G75*
%MOIN*%
%OFA0B0*%
%FSLAX25Y25*%
%IPPOS*%
%LPD*%
%AMOC8*
5,1,8,0,0,1.08239X$1,22.5*
%
%ADD10C,0.01200*%
%ADD11C,0.04000*%
%ADD12C,0.01600*%
%ADD13C,0.03962*%
D10*
X0047500Y0134400D02*
X0047500Y0176200D01*
X0064000Y0192700D01*
D11*
X0064000Y0192700D03*
X0047500Y0134400D03*
D12*
X0011600Y0214461D02*
X0011600Y0023956D01*
X0011851Y0024207D01*
X0015062Y0025537D01*
X0018538Y0025537D01*
X0021749Y0024207D01*
X0024207Y0021749D01*
X0025537Y0018538D01*
X0025537Y0015062D01*
X0024207Y0011851D01*
X0023956Y0011600D01*
X0150701Y0011600D01*
X0150701Y0214461D01*
X0011600Y0214461D01*
X0011600Y0213008D02*
X0150701Y0213008D01*
X0150701Y0211409D02*
X0011600Y0211409D01*
X0011600Y0209811D02*
X0150701Y0209811D01*
X0150701Y0208212D02*
X0011600Y0208212D01*
X0011600Y0206614D02*
X0150701Y0206614D01*
X0150701Y0205015D02*
X0011600Y0205015D01*
X0011600Y0203417D02*
X0150701Y0203417D01*
X0150701Y0201818D02*
X0011600Y0201818D01*
X0011600Y0200220D02*
X0150701Y0200220D01*
X0150701Y0198621D02*
X0011600Y0198621D01*
X0011600Y0197023D02*
X0150701Y0197023D01*
X0150701Y0195424D02*
X0066650Y0195424D01*
X0066153Y0195921D02*
X0064756Y0196500D01*
X0063244Y0196500D01*
X0061847Y0195921D01*
X0060779Y0194853D01*
X0060200Y0193456D01*
X0060200Y0192294D01*
X0045465Y0177559D01*
X0045100Y0176677D01*
X0045100Y0137374D01*
X0044279Y0136553D01*
X0043700Y0135156D01*
X0043700Y0133644D01*
X0044279Y0132247D01*
X0045347Y0131179D01*
X0046744Y0130600D01*
X0048256Y0130600D01*
X0049653Y0131179D01*
X0050721Y0132247D01*
X0051300Y0133644D01*
X0051300Y0135156D01*
X0050721Y0136553D01*
X0049900Y0137374D01*
X0049900Y0175206D01*
X0063594Y0188900D01*
X0064756Y0188900D01*
X0066153Y0189479D01*
X0067221Y0190547D01*
X0067800Y0191944D01*
X0067800Y0193456D01*
X0067221Y0194853D01*
X0066153Y0195921D01*
X0067647Y0193826D02*
X0150701Y0193826D01*
X0150701Y0192227D02*
X0067800Y0192227D01*
X0067255Y0190629D02*
X0150701Y0190629D01*
X0150701Y0189030D02*
X0065070Y0189030D01*
X0062126Y0187432D02*
X0150701Y0187432D01*
X0150701Y0185833D02*
X0060527Y0185833D01*
X0058929Y0184235D02*
X0150701Y0184235D01*
X0150701Y0182636D02*
X0057330Y0182636D01*
X0055732Y0181038D02*
X0150701Y0181038D01*
X0150701Y0179439D02*
X0054133Y0179439D01*
X0052535Y0177841D02*
X0150701Y0177841D01*
X0150701Y0176242D02*
X0050936Y0176242D01*
X0049900Y0174644D02*
X0150701Y0174644D01*
X0150701Y0173045D02*
X0049900Y0173045D01*
X0049900Y0171447D02*
X0150701Y0171447D01*
X0150701Y0169848D02*
X0049900Y0169848D01*
X0049900Y0168250D02*
X0150701Y0168250D01*
X0150701Y0166651D02*
X0049900Y0166651D01*
X0049900Y0165053D02*
X0150701Y0165053D01*
X0150701Y0163454D02*
X0049900Y0163454D01*
X0049900Y0161856D02*
X0150701Y0161856D01*
X0150701Y0160257D02*
X0049900Y0160257D01*
X0049900Y0158659D02*
X0150701Y0158659D01*
X0150701Y0157060D02*
X0049900Y0157060D01*
X0049900Y0155462D02*
X0150701Y0155462D01*
X0150701Y0153863D02*
X0049900Y0153863D01*
X0049900Y0152265D02*
X0150701Y0152265D01*
X0150701Y0150666D02*
X0049900Y0150666D01*
X0049900Y0149068D02*
X0150701Y0149068D01*
X0150701Y0147469D02*
X0049900Y0147469D01*
X0049900Y0145870D02*
X0150701Y0145870D01*
X0150701Y0144272D02*
X0049900Y0144272D01*
X0049900Y0142673D02*
X0150701Y0142673D01*
X0150701Y0141075D02*
X0049900Y0141075D01*
X0049900Y0139476D02*
X0150701Y0139476D01*
X0150701Y0137878D02*
X0049900Y0137878D01*
X0050835Y0136279D02*
X0150701Y0136279D01*
X0150701Y0134681D02*
X0051300Y0134681D01*
X0051067Y0133082D02*
X0150701Y0133082D01*
X0150701Y0131484D02*
X0049958Y0131484D01*
X0045042Y0131484D02*
X0011600Y0131484D01*
X0011600Y0133082D02*
X0043933Y0133082D01*
X0043700Y0134681D02*
X0011600Y0134681D01*
X0011600Y0136279D02*
X0044165Y0136279D01*
X0045100Y0137878D02*
X0011600Y0137878D01*
X0011600Y0139476D02*
X0045100Y0139476D01*
X0045100Y0141075D02*
X0011600Y0141075D01*
X0011600Y0142673D02*
X0045100Y0142673D01*
X0045100Y0144272D02*
X0011600Y0144272D01*
X0011600Y0145870D02*
X0045100Y0145870D01*
X0045100Y0147469D02*
X0011600Y0147469D01*
X0011600Y0149068D02*
X0045100Y0149068D01*
X0045100Y0150666D02*
X0011600Y0150666D01*
X0011600Y0152265D02*
X0045100Y0152265D01*
X0045100Y0153863D02*
X0011600Y0153863D01*
X0011600Y0155462D02*
X0045100Y0155462D01*
X0045100Y0157060D02*
X0011600Y0157060D01*
X0011600Y0158659D02*
X0045100Y0158659D01*
X0045100Y0160257D02*
X0011600Y0160257D01*
X0011600Y0161856D02*
X0045100Y0161856D01*
X0045100Y0163454D02*
X0011600Y0163454D01*
X0011600Y0165053D02*
X0045100Y0165053D01*
X0045100Y0166651D02*
X0011600Y0166651D01*
X0011600Y0168250D02*
X0045100Y0168250D01*
X0045100Y0169848D02*
X0011600Y0169848D01*
X0011600Y0171447D02*
X0045100Y0171447D01*
X0045100Y0173045D02*
X0011600Y0173045D01*
X0011600Y0174644D02*
X0045100Y0174644D01*
X0045100Y0176242D02*
X0011600Y0176242D01*
X0011600Y0177841D02*
X0045747Y0177841D01*
X0047345Y0179439D02*
X0011600Y0179439D01*
X0011600Y0181038D02*
X0048944Y0181038D01*
X0050542Y0182636D02*
X0011600Y0182636D01*
X0011600Y0184235D02*
X0052141Y0184235D01*
X0053739Y0185833D02*
X0011600Y0185833D01*
X0011600Y0187432D02*
X0055338Y0187432D01*
X0056936Y0189030D02*
X0011600Y0189030D01*
X0011600Y0190629D02*
X0058535Y0190629D01*
X0060133Y0192227D02*
X0011600Y0192227D01*
X0011600Y0193826D02*
X0060353Y0193826D01*
X0061350Y0195424D02*
X0011600Y0195424D01*
X0011600Y0129885D02*
X0150701Y0129885D01*
X0150701Y0128287D02*
X0011600Y0128287D01*
X0011600Y0126688D02*
X0150701Y0126688D01*
X0150701Y0125090D02*
X0011600Y0125090D01*
X0011600Y0123491D02*
X0150701Y0123491D01*
X0150701Y0121893D02*
X0011600Y0121893D01*
X0011600Y0120294D02*
X0150701Y0120294D01*
X0150701Y0118696D02*
X0011600Y0118696D01*
X0011600Y0117097D02*
X0150701Y0117097D01*
X0150701Y0115499D02*
X0011600Y0115499D01*
X0011600Y0113900D02*
X0150701Y0113900D01*
X0150701Y0112302D02*
X0011600Y0112302D01*
X0011600Y0110703D02*
X0150701Y0110703D01*
X0150701Y0109105D02*
X0011600Y0109105D01*
X0011600Y0107506D02*
X0150701Y0107506D01*
X0150701Y0105908D02*
X0011600Y0105908D01*
X0011600Y0104309D02*
X0150701Y0104309D01*
X0150701Y0102711D02*
X0011600Y0102711D01*
X0011600Y0101112D02*
X0150701Y0101112D01*
X0150701Y0099514D02*
X0011600Y0099514D01*
X0011600Y0097915D02*
X0150701Y0097915D01*
X0150701Y0096317D02*
X0011600Y0096317D01*
X0011600Y0094718D02*
X0150701Y0094718D01*
X0150701Y0093120D02*
X0011600Y0093120D01*
X0011600Y0091521D02*
X0150701Y0091521D01*
X0150701Y0089923D02*
X0011600Y0089923D01*
X0011600Y0088324D02*
X0150701Y0088324D01*
X0150701Y0086726D02*
X0011600Y0086726D01*
X0011600Y0085127D02*
X0150701Y0085127D01*
X0150701Y0083529D02*
X0011600Y0083529D01*
X0011600Y0081930D02*
X0150701Y0081930D01*
X0150701Y0080332D02*
X0011600Y0080332D01*
X0011600Y0078733D02*
X0150701Y0078733D01*
X0150701Y0077134D02*
X0011600Y0077134D01*
X0011600Y0075536D02*
X0150701Y0075536D01*
X0150701Y0073937D02*
X0011600Y0073937D01*
X0011600Y0072339D02*
X0150701Y0072339D01*
X0150701Y0070740D02*
X0011600Y0070740D01*
X0011600Y0069142D02*
X0150701Y0069142D01*
X0150701Y0067543D02*
X0011600Y0067543D01*
X0011600Y0065945D02*
X0150701Y0065945D01*
X0150701Y0064346D02*
X0011600Y0064346D01*
X0011600Y0062748D02*
X0150701Y0062748D01*
X0150701Y0061149D02*
X0011600Y0061149D01*
X0011600Y0059551D02*
X0150701Y0059551D01*
X0150701Y0057952D02*
X0011600Y0057952D01*
X0011600Y0056354D02*
X0150701Y0056354D01*
X0150701Y0054755D02*
X0011600Y0054755D01*
X0011600Y0053157D02*
X0150701Y0053157D01*
X0150701Y0051558D02*
X0011600Y0051558D01*
X0011600Y0049960D02*
X0150701Y0049960D01*
X0150701Y0048361D02*
X0011600Y0048361D01*
X0011600Y0046763D02*
X0150701Y0046763D01*
X0150701Y0045164D02*
X0011600Y0045164D01*
X0011600Y0043566D02*
X0150701Y0043566D01*
X0150701Y0041967D02*
X0011600Y0041967D01*
X0011600Y0040369D02*
X0150701Y0040369D01*
X0150701Y0038770D02*
X0011600Y0038770D01*
X0011600Y0037172D02*
X0150701Y0037172D01*
X0150701Y0035573D02*
X0011600Y0035573D01*
X0011600Y0033975D02*
X0150701Y0033975D01*
X0150701Y0032376D02*
X0011600Y0032376D01*
X0011600Y0030778D02*
X0150701Y0030778D01*
X0150701Y0029179D02*
X0011600Y0029179D01*
X0011600Y0027581D02*
X0150701Y0027581D01*
X0150701Y0025982D02*
X0011600Y0025982D01*
X0011600Y0024384D02*
X0012278Y0024384D01*
X0021322Y0024384D02*
X0150701Y0024384D01*
X0150701Y0022785D02*
X0023171Y0022785D01*
X0024440Y0021187D02*
X0150701Y0021187D01*
X0150701Y0019588D02*
X0025102Y0019588D01*
X0025537Y0017990D02*
X0150701Y0017990D01*
X0150701Y0016391D02*
X0025537Y0016391D01*
X0025425Y0014793D02*
X0150701Y0014793D01*
X0150701Y0013194D02*
X0024763Y0013194D01*
D13*
X0024300Y0101800D03*
X0041800Y0154300D03*
X0026800Y0166800D03*
X0114300Y0059300D03*
X0114300Y0026800D03*
X0131800Y0101800D03*
M02*
