G75*
%MOIN*%
%OFA0B0*%
%FSLAX25Y25*%
%IPPOS*%
%LPD*%
%AMOC8*
5,1,8,0,0,1.08239X$1,22.5*
%
%ADD10C,0.00000*%
%ADD11R,0.15354X0.15354*%
%ADD12R,0.12598X0.12598*%
%ADD13R,0.05906X0.05118*%
%ADD14R,0.18110X0.03937*%
%ADD15R,0.13386X0.06299*%
%ADD16R,0.08661X0.02362*%
%ADD17R,0.05118X0.05906*%
%ADD18C,0.01200*%
%ADD19C,0.04000*%
%ADD20C,0.01600*%
%ADD21C,0.03962*%
D10*
X0004300Y0004300D02*
X0004300Y0196761D01*
X0230501Y0196761D01*
X0230501Y0004300D01*
X0004300Y0004300D01*
X0010363Y0016800D02*
X0010365Y0016925D01*
X0010371Y0017050D01*
X0010381Y0017174D01*
X0010395Y0017298D01*
X0010412Y0017422D01*
X0010434Y0017545D01*
X0010460Y0017667D01*
X0010489Y0017789D01*
X0010522Y0017909D01*
X0010560Y0018028D01*
X0010600Y0018147D01*
X0010645Y0018263D01*
X0010693Y0018378D01*
X0010745Y0018492D01*
X0010801Y0018604D01*
X0010860Y0018714D01*
X0010922Y0018822D01*
X0010988Y0018929D01*
X0011057Y0019033D01*
X0011130Y0019134D01*
X0011205Y0019234D01*
X0011284Y0019331D01*
X0011366Y0019425D01*
X0011451Y0019517D01*
X0011538Y0019606D01*
X0011629Y0019692D01*
X0011722Y0019775D01*
X0011818Y0019856D01*
X0011916Y0019933D01*
X0012016Y0020007D01*
X0012119Y0020078D01*
X0012224Y0020145D01*
X0012332Y0020210D01*
X0012441Y0020270D01*
X0012552Y0020328D01*
X0012665Y0020381D01*
X0012779Y0020431D01*
X0012895Y0020478D01*
X0013012Y0020520D01*
X0013131Y0020559D01*
X0013251Y0020595D01*
X0013372Y0020626D01*
X0013494Y0020654D01*
X0013616Y0020677D01*
X0013740Y0020697D01*
X0013864Y0020713D01*
X0013988Y0020725D01*
X0014113Y0020733D01*
X0014238Y0020737D01*
X0014362Y0020737D01*
X0014487Y0020733D01*
X0014612Y0020725D01*
X0014736Y0020713D01*
X0014860Y0020697D01*
X0014984Y0020677D01*
X0015106Y0020654D01*
X0015228Y0020626D01*
X0015349Y0020595D01*
X0015469Y0020559D01*
X0015588Y0020520D01*
X0015705Y0020478D01*
X0015821Y0020431D01*
X0015935Y0020381D01*
X0016048Y0020328D01*
X0016159Y0020270D01*
X0016269Y0020210D01*
X0016376Y0020145D01*
X0016481Y0020078D01*
X0016584Y0020007D01*
X0016684Y0019933D01*
X0016782Y0019856D01*
X0016878Y0019775D01*
X0016971Y0019692D01*
X0017062Y0019606D01*
X0017149Y0019517D01*
X0017234Y0019425D01*
X0017316Y0019331D01*
X0017395Y0019234D01*
X0017470Y0019134D01*
X0017543Y0019033D01*
X0017612Y0018929D01*
X0017678Y0018822D01*
X0017740Y0018714D01*
X0017799Y0018604D01*
X0017855Y0018492D01*
X0017907Y0018378D01*
X0017955Y0018263D01*
X0018000Y0018147D01*
X0018040Y0018028D01*
X0018078Y0017909D01*
X0018111Y0017789D01*
X0018140Y0017667D01*
X0018166Y0017545D01*
X0018188Y0017422D01*
X0018205Y0017298D01*
X0018219Y0017174D01*
X0018229Y0017050D01*
X0018235Y0016925D01*
X0018237Y0016800D01*
X0018235Y0016675D01*
X0018229Y0016550D01*
X0018219Y0016426D01*
X0018205Y0016302D01*
X0018188Y0016178D01*
X0018166Y0016055D01*
X0018140Y0015933D01*
X0018111Y0015811D01*
X0018078Y0015691D01*
X0018040Y0015572D01*
X0018000Y0015453D01*
X0017955Y0015337D01*
X0017907Y0015222D01*
X0017855Y0015108D01*
X0017799Y0014996D01*
X0017740Y0014886D01*
X0017678Y0014778D01*
X0017612Y0014671D01*
X0017543Y0014567D01*
X0017470Y0014466D01*
X0017395Y0014366D01*
X0017316Y0014269D01*
X0017234Y0014175D01*
X0017149Y0014083D01*
X0017062Y0013994D01*
X0016971Y0013908D01*
X0016878Y0013825D01*
X0016782Y0013744D01*
X0016684Y0013667D01*
X0016584Y0013593D01*
X0016481Y0013522D01*
X0016376Y0013455D01*
X0016268Y0013390D01*
X0016159Y0013330D01*
X0016048Y0013272D01*
X0015935Y0013219D01*
X0015821Y0013169D01*
X0015705Y0013122D01*
X0015588Y0013080D01*
X0015469Y0013041D01*
X0015349Y0013005D01*
X0015228Y0012974D01*
X0015106Y0012946D01*
X0014984Y0012923D01*
X0014860Y0012903D01*
X0014736Y0012887D01*
X0014612Y0012875D01*
X0014487Y0012867D01*
X0014362Y0012863D01*
X0014238Y0012863D01*
X0014113Y0012867D01*
X0013988Y0012875D01*
X0013864Y0012887D01*
X0013740Y0012903D01*
X0013616Y0012923D01*
X0013494Y0012946D01*
X0013372Y0012974D01*
X0013251Y0013005D01*
X0013131Y0013041D01*
X0013012Y0013080D01*
X0012895Y0013122D01*
X0012779Y0013169D01*
X0012665Y0013219D01*
X0012552Y0013272D01*
X0012441Y0013330D01*
X0012331Y0013390D01*
X0012224Y0013455D01*
X0012119Y0013522D01*
X0012016Y0013593D01*
X0011916Y0013667D01*
X0011818Y0013744D01*
X0011722Y0013825D01*
X0011629Y0013908D01*
X0011538Y0013994D01*
X0011451Y0014083D01*
X0011366Y0014175D01*
X0011284Y0014269D01*
X0011205Y0014366D01*
X0011130Y0014466D01*
X0011057Y0014567D01*
X0010988Y0014671D01*
X0010922Y0014778D01*
X0010860Y0014886D01*
X0010801Y0014996D01*
X0010745Y0015108D01*
X0010693Y0015222D01*
X0010645Y0015337D01*
X0010600Y0015453D01*
X0010560Y0015572D01*
X0010522Y0015691D01*
X0010489Y0015811D01*
X0010460Y0015933D01*
X0010434Y0016055D01*
X0010412Y0016178D01*
X0010395Y0016302D01*
X0010381Y0016426D01*
X0010371Y0016550D01*
X0010365Y0016675D01*
X0010363Y0016800D01*
X0010363Y0184300D02*
X0010365Y0184425D01*
X0010371Y0184550D01*
X0010381Y0184674D01*
X0010395Y0184798D01*
X0010412Y0184922D01*
X0010434Y0185045D01*
X0010460Y0185167D01*
X0010489Y0185289D01*
X0010522Y0185409D01*
X0010560Y0185528D01*
X0010600Y0185647D01*
X0010645Y0185763D01*
X0010693Y0185878D01*
X0010745Y0185992D01*
X0010801Y0186104D01*
X0010860Y0186214D01*
X0010922Y0186322D01*
X0010988Y0186429D01*
X0011057Y0186533D01*
X0011130Y0186634D01*
X0011205Y0186734D01*
X0011284Y0186831D01*
X0011366Y0186925D01*
X0011451Y0187017D01*
X0011538Y0187106D01*
X0011629Y0187192D01*
X0011722Y0187275D01*
X0011818Y0187356D01*
X0011916Y0187433D01*
X0012016Y0187507D01*
X0012119Y0187578D01*
X0012224Y0187645D01*
X0012332Y0187710D01*
X0012441Y0187770D01*
X0012552Y0187828D01*
X0012665Y0187881D01*
X0012779Y0187931D01*
X0012895Y0187978D01*
X0013012Y0188020D01*
X0013131Y0188059D01*
X0013251Y0188095D01*
X0013372Y0188126D01*
X0013494Y0188154D01*
X0013616Y0188177D01*
X0013740Y0188197D01*
X0013864Y0188213D01*
X0013988Y0188225D01*
X0014113Y0188233D01*
X0014238Y0188237D01*
X0014362Y0188237D01*
X0014487Y0188233D01*
X0014612Y0188225D01*
X0014736Y0188213D01*
X0014860Y0188197D01*
X0014984Y0188177D01*
X0015106Y0188154D01*
X0015228Y0188126D01*
X0015349Y0188095D01*
X0015469Y0188059D01*
X0015588Y0188020D01*
X0015705Y0187978D01*
X0015821Y0187931D01*
X0015935Y0187881D01*
X0016048Y0187828D01*
X0016159Y0187770D01*
X0016269Y0187710D01*
X0016376Y0187645D01*
X0016481Y0187578D01*
X0016584Y0187507D01*
X0016684Y0187433D01*
X0016782Y0187356D01*
X0016878Y0187275D01*
X0016971Y0187192D01*
X0017062Y0187106D01*
X0017149Y0187017D01*
X0017234Y0186925D01*
X0017316Y0186831D01*
X0017395Y0186734D01*
X0017470Y0186634D01*
X0017543Y0186533D01*
X0017612Y0186429D01*
X0017678Y0186322D01*
X0017740Y0186214D01*
X0017799Y0186104D01*
X0017855Y0185992D01*
X0017907Y0185878D01*
X0017955Y0185763D01*
X0018000Y0185647D01*
X0018040Y0185528D01*
X0018078Y0185409D01*
X0018111Y0185289D01*
X0018140Y0185167D01*
X0018166Y0185045D01*
X0018188Y0184922D01*
X0018205Y0184798D01*
X0018219Y0184674D01*
X0018229Y0184550D01*
X0018235Y0184425D01*
X0018237Y0184300D01*
X0018235Y0184175D01*
X0018229Y0184050D01*
X0018219Y0183926D01*
X0018205Y0183802D01*
X0018188Y0183678D01*
X0018166Y0183555D01*
X0018140Y0183433D01*
X0018111Y0183311D01*
X0018078Y0183191D01*
X0018040Y0183072D01*
X0018000Y0182953D01*
X0017955Y0182837D01*
X0017907Y0182722D01*
X0017855Y0182608D01*
X0017799Y0182496D01*
X0017740Y0182386D01*
X0017678Y0182278D01*
X0017612Y0182171D01*
X0017543Y0182067D01*
X0017470Y0181966D01*
X0017395Y0181866D01*
X0017316Y0181769D01*
X0017234Y0181675D01*
X0017149Y0181583D01*
X0017062Y0181494D01*
X0016971Y0181408D01*
X0016878Y0181325D01*
X0016782Y0181244D01*
X0016684Y0181167D01*
X0016584Y0181093D01*
X0016481Y0181022D01*
X0016376Y0180955D01*
X0016268Y0180890D01*
X0016159Y0180830D01*
X0016048Y0180772D01*
X0015935Y0180719D01*
X0015821Y0180669D01*
X0015705Y0180622D01*
X0015588Y0180580D01*
X0015469Y0180541D01*
X0015349Y0180505D01*
X0015228Y0180474D01*
X0015106Y0180446D01*
X0014984Y0180423D01*
X0014860Y0180403D01*
X0014736Y0180387D01*
X0014612Y0180375D01*
X0014487Y0180367D01*
X0014362Y0180363D01*
X0014238Y0180363D01*
X0014113Y0180367D01*
X0013988Y0180375D01*
X0013864Y0180387D01*
X0013740Y0180403D01*
X0013616Y0180423D01*
X0013494Y0180446D01*
X0013372Y0180474D01*
X0013251Y0180505D01*
X0013131Y0180541D01*
X0013012Y0180580D01*
X0012895Y0180622D01*
X0012779Y0180669D01*
X0012665Y0180719D01*
X0012552Y0180772D01*
X0012441Y0180830D01*
X0012331Y0180890D01*
X0012224Y0180955D01*
X0012119Y0181022D01*
X0012016Y0181093D01*
X0011916Y0181167D01*
X0011818Y0181244D01*
X0011722Y0181325D01*
X0011629Y0181408D01*
X0011538Y0181494D01*
X0011451Y0181583D01*
X0011366Y0181675D01*
X0011284Y0181769D01*
X0011205Y0181866D01*
X0011130Y0181966D01*
X0011057Y0182067D01*
X0010988Y0182171D01*
X0010922Y0182278D01*
X0010860Y0182386D01*
X0010801Y0182496D01*
X0010745Y0182608D01*
X0010693Y0182722D01*
X0010645Y0182837D01*
X0010600Y0182953D01*
X0010560Y0183072D01*
X0010522Y0183191D01*
X0010489Y0183311D01*
X0010460Y0183433D01*
X0010434Y0183555D01*
X0010412Y0183678D01*
X0010395Y0183802D01*
X0010381Y0183926D01*
X0010371Y0184050D01*
X0010365Y0184175D01*
X0010363Y0184300D01*
X0215363Y0186800D02*
X0215365Y0186925D01*
X0215371Y0187050D01*
X0215381Y0187174D01*
X0215395Y0187298D01*
X0215412Y0187422D01*
X0215434Y0187545D01*
X0215460Y0187667D01*
X0215489Y0187789D01*
X0215522Y0187909D01*
X0215560Y0188028D01*
X0215600Y0188147D01*
X0215645Y0188263D01*
X0215693Y0188378D01*
X0215745Y0188492D01*
X0215801Y0188604D01*
X0215860Y0188714D01*
X0215922Y0188822D01*
X0215988Y0188929D01*
X0216057Y0189033D01*
X0216130Y0189134D01*
X0216205Y0189234D01*
X0216284Y0189331D01*
X0216366Y0189425D01*
X0216451Y0189517D01*
X0216538Y0189606D01*
X0216629Y0189692D01*
X0216722Y0189775D01*
X0216818Y0189856D01*
X0216916Y0189933D01*
X0217016Y0190007D01*
X0217119Y0190078D01*
X0217224Y0190145D01*
X0217332Y0190210D01*
X0217441Y0190270D01*
X0217552Y0190328D01*
X0217665Y0190381D01*
X0217779Y0190431D01*
X0217895Y0190478D01*
X0218012Y0190520D01*
X0218131Y0190559D01*
X0218251Y0190595D01*
X0218372Y0190626D01*
X0218494Y0190654D01*
X0218616Y0190677D01*
X0218740Y0190697D01*
X0218864Y0190713D01*
X0218988Y0190725D01*
X0219113Y0190733D01*
X0219238Y0190737D01*
X0219362Y0190737D01*
X0219487Y0190733D01*
X0219612Y0190725D01*
X0219736Y0190713D01*
X0219860Y0190697D01*
X0219984Y0190677D01*
X0220106Y0190654D01*
X0220228Y0190626D01*
X0220349Y0190595D01*
X0220469Y0190559D01*
X0220588Y0190520D01*
X0220705Y0190478D01*
X0220821Y0190431D01*
X0220935Y0190381D01*
X0221048Y0190328D01*
X0221159Y0190270D01*
X0221269Y0190210D01*
X0221376Y0190145D01*
X0221481Y0190078D01*
X0221584Y0190007D01*
X0221684Y0189933D01*
X0221782Y0189856D01*
X0221878Y0189775D01*
X0221971Y0189692D01*
X0222062Y0189606D01*
X0222149Y0189517D01*
X0222234Y0189425D01*
X0222316Y0189331D01*
X0222395Y0189234D01*
X0222470Y0189134D01*
X0222543Y0189033D01*
X0222612Y0188929D01*
X0222678Y0188822D01*
X0222740Y0188714D01*
X0222799Y0188604D01*
X0222855Y0188492D01*
X0222907Y0188378D01*
X0222955Y0188263D01*
X0223000Y0188147D01*
X0223040Y0188028D01*
X0223078Y0187909D01*
X0223111Y0187789D01*
X0223140Y0187667D01*
X0223166Y0187545D01*
X0223188Y0187422D01*
X0223205Y0187298D01*
X0223219Y0187174D01*
X0223229Y0187050D01*
X0223235Y0186925D01*
X0223237Y0186800D01*
X0223235Y0186675D01*
X0223229Y0186550D01*
X0223219Y0186426D01*
X0223205Y0186302D01*
X0223188Y0186178D01*
X0223166Y0186055D01*
X0223140Y0185933D01*
X0223111Y0185811D01*
X0223078Y0185691D01*
X0223040Y0185572D01*
X0223000Y0185453D01*
X0222955Y0185337D01*
X0222907Y0185222D01*
X0222855Y0185108D01*
X0222799Y0184996D01*
X0222740Y0184886D01*
X0222678Y0184778D01*
X0222612Y0184671D01*
X0222543Y0184567D01*
X0222470Y0184466D01*
X0222395Y0184366D01*
X0222316Y0184269D01*
X0222234Y0184175D01*
X0222149Y0184083D01*
X0222062Y0183994D01*
X0221971Y0183908D01*
X0221878Y0183825D01*
X0221782Y0183744D01*
X0221684Y0183667D01*
X0221584Y0183593D01*
X0221481Y0183522D01*
X0221376Y0183455D01*
X0221268Y0183390D01*
X0221159Y0183330D01*
X0221048Y0183272D01*
X0220935Y0183219D01*
X0220821Y0183169D01*
X0220705Y0183122D01*
X0220588Y0183080D01*
X0220469Y0183041D01*
X0220349Y0183005D01*
X0220228Y0182974D01*
X0220106Y0182946D01*
X0219984Y0182923D01*
X0219860Y0182903D01*
X0219736Y0182887D01*
X0219612Y0182875D01*
X0219487Y0182867D01*
X0219362Y0182863D01*
X0219238Y0182863D01*
X0219113Y0182867D01*
X0218988Y0182875D01*
X0218864Y0182887D01*
X0218740Y0182903D01*
X0218616Y0182923D01*
X0218494Y0182946D01*
X0218372Y0182974D01*
X0218251Y0183005D01*
X0218131Y0183041D01*
X0218012Y0183080D01*
X0217895Y0183122D01*
X0217779Y0183169D01*
X0217665Y0183219D01*
X0217552Y0183272D01*
X0217441Y0183330D01*
X0217331Y0183390D01*
X0217224Y0183455D01*
X0217119Y0183522D01*
X0217016Y0183593D01*
X0216916Y0183667D01*
X0216818Y0183744D01*
X0216722Y0183825D01*
X0216629Y0183908D01*
X0216538Y0183994D01*
X0216451Y0184083D01*
X0216366Y0184175D01*
X0216284Y0184269D01*
X0216205Y0184366D01*
X0216130Y0184466D01*
X0216057Y0184567D01*
X0215988Y0184671D01*
X0215922Y0184778D01*
X0215860Y0184886D01*
X0215801Y0184996D01*
X0215745Y0185108D01*
X0215693Y0185222D01*
X0215645Y0185337D01*
X0215600Y0185453D01*
X0215560Y0185572D01*
X0215522Y0185691D01*
X0215489Y0185811D01*
X0215460Y0185933D01*
X0215434Y0186055D01*
X0215412Y0186178D01*
X0215395Y0186302D01*
X0215381Y0186426D01*
X0215371Y0186550D01*
X0215365Y0186675D01*
X0215363Y0186800D01*
X0215363Y0016800D02*
X0215365Y0016925D01*
X0215371Y0017050D01*
X0215381Y0017174D01*
X0215395Y0017298D01*
X0215412Y0017422D01*
X0215434Y0017545D01*
X0215460Y0017667D01*
X0215489Y0017789D01*
X0215522Y0017909D01*
X0215560Y0018028D01*
X0215600Y0018147D01*
X0215645Y0018263D01*
X0215693Y0018378D01*
X0215745Y0018492D01*
X0215801Y0018604D01*
X0215860Y0018714D01*
X0215922Y0018822D01*
X0215988Y0018929D01*
X0216057Y0019033D01*
X0216130Y0019134D01*
X0216205Y0019234D01*
X0216284Y0019331D01*
X0216366Y0019425D01*
X0216451Y0019517D01*
X0216538Y0019606D01*
X0216629Y0019692D01*
X0216722Y0019775D01*
X0216818Y0019856D01*
X0216916Y0019933D01*
X0217016Y0020007D01*
X0217119Y0020078D01*
X0217224Y0020145D01*
X0217332Y0020210D01*
X0217441Y0020270D01*
X0217552Y0020328D01*
X0217665Y0020381D01*
X0217779Y0020431D01*
X0217895Y0020478D01*
X0218012Y0020520D01*
X0218131Y0020559D01*
X0218251Y0020595D01*
X0218372Y0020626D01*
X0218494Y0020654D01*
X0218616Y0020677D01*
X0218740Y0020697D01*
X0218864Y0020713D01*
X0218988Y0020725D01*
X0219113Y0020733D01*
X0219238Y0020737D01*
X0219362Y0020737D01*
X0219487Y0020733D01*
X0219612Y0020725D01*
X0219736Y0020713D01*
X0219860Y0020697D01*
X0219984Y0020677D01*
X0220106Y0020654D01*
X0220228Y0020626D01*
X0220349Y0020595D01*
X0220469Y0020559D01*
X0220588Y0020520D01*
X0220705Y0020478D01*
X0220821Y0020431D01*
X0220935Y0020381D01*
X0221048Y0020328D01*
X0221159Y0020270D01*
X0221269Y0020210D01*
X0221376Y0020145D01*
X0221481Y0020078D01*
X0221584Y0020007D01*
X0221684Y0019933D01*
X0221782Y0019856D01*
X0221878Y0019775D01*
X0221971Y0019692D01*
X0222062Y0019606D01*
X0222149Y0019517D01*
X0222234Y0019425D01*
X0222316Y0019331D01*
X0222395Y0019234D01*
X0222470Y0019134D01*
X0222543Y0019033D01*
X0222612Y0018929D01*
X0222678Y0018822D01*
X0222740Y0018714D01*
X0222799Y0018604D01*
X0222855Y0018492D01*
X0222907Y0018378D01*
X0222955Y0018263D01*
X0223000Y0018147D01*
X0223040Y0018028D01*
X0223078Y0017909D01*
X0223111Y0017789D01*
X0223140Y0017667D01*
X0223166Y0017545D01*
X0223188Y0017422D01*
X0223205Y0017298D01*
X0223219Y0017174D01*
X0223229Y0017050D01*
X0223235Y0016925D01*
X0223237Y0016800D01*
X0223235Y0016675D01*
X0223229Y0016550D01*
X0223219Y0016426D01*
X0223205Y0016302D01*
X0223188Y0016178D01*
X0223166Y0016055D01*
X0223140Y0015933D01*
X0223111Y0015811D01*
X0223078Y0015691D01*
X0223040Y0015572D01*
X0223000Y0015453D01*
X0222955Y0015337D01*
X0222907Y0015222D01*
X0222855Y0015108D01*
X0222799Y0014996D01*
X0222740Y0014886D01*
X0222678Y0014778D01*
X0222612Y0014671D01*
X0222543Y0014567D01*
X0222470Y0014466D01*
X0222395Y0014366D01*
X0222316Y0014269D01*
X0222234Y0014175D01*
X0222149Y0014083D01*
X0222062Y0013994D01*
X0221971Y0013908D01*
X0221878Y0013825D01*
X0221782Y0013744D01*
X0221684Y0013667D01*
X0221584Y0013593D01*
X0221481Y0013522D01*
X0221376Y0013455D01*
X0221268Y0013390D01*
X0221159Y0013330D01*
X0221048Y0013272D01*
X0220935Y0013219D01*
X0220821Y0013169D01*
X0220705Y0013122D01*
X0220588Y0013080D01*
X0220469Y0013041D01*
X0220349Y0013005D01*
X0220228Y0012974D01*
X0220106Y0012946D01*
X0219984Y0012923D01*
X0219860Y0012903D01*
X0219736Y0012887D01*
X0219612Y0012875D01*
X0219487Y0012867D01*
X0219362Y0012863D01*
X0219238Y0012863D01*
X0219113Y0012867D01*
X0218988Y0012875D01*
X0218864Y0012887D01*
X0218740Y0012903D01*
X0218616Y0012923D01*
X0218494Y0012946D01*
X0218372Y0012974D01*
X0218251Y0013005D01*
X0218131Y0013041D01*
X0218012Y0013080D01*
X0217895Y0013122D01*
X0217779Y0013169D01*
X0217665Y0013219D01*
X0217552Y0013272D01*
X0217441Y0013330D01*
X0217331Y0013390D01*
X0217224Y0013455D01*
X0217119Y0013522D01*
X0217016Y0013593D01*
X0216916Y0013667D01*
X0216818Y0013744D01*
X0216722Y0013825D01*
X0216629Y0013908D01*
X0216538Y0013994D01*
X0216451Y0014083D01*
X0216366Y0014175D01*
X0216284Y0014269D01*
X0216205Y0014366D01*
X0216130Y0014466D01*
X0216057Y0014567D01*
X0215988Y0014671D01*
X0215922Y0014778D01*
X0215860Y0014886D01*
X0215801Y0014996D01*
X0215745Y0015108D01*
X0215693Y0015222D01*
X0215645Y0015337D01*
X0215600Y0015453D01*
X0215560Y0015572D01*
X0215522Y0015691D01*
X0215489Y0015811D01*
X0215460Y0015933D01*
X0215434Y0016055D01*
X0215412Y0016178D01*
X0215395Y0016302D01*
X0215381Y0016426D01*
X0215371Y0016550D01*
X0215365Y0016675D01*
X0215363Y0016800D01*
D11*
X0169300Y0044300D03*
X0079300Y0044300D03*
D12*
X0047017Y0044300D03*
X0111583Y0044300D03*
X0137017Y0044300D03*
X0201583Y0044300D03*
D13*
X0136800Y0133060D03*
X0136800Y0140540D03*
X0136800Y0153060D03*
X0136800Y0160540D03*
X0114300Y0162646D03*
X0114300Y0155954D03*
X0061800Y0157646D03*
X0061800Y0150954D03*
X0061800Y0123040D03*
X0061800Y0115560D03*
X0061800Y0103040D03*
X0061800Y0095560D03*
D14*
X0038867Y0115363D03*
X0038867Y0123237D03*
X0184733Y0115737D03*
X0184733Y0107863D03*
D15*
X0205206Y0098414D03*
X0205206Y0125186D03*
X0018394Y0132686D03*
X0018394Y0105914D03*
D16*
X0084064Y0134300D03*
X0084064Y0139300D03*
X0084064Y0144300D03*
X0084064Y0149300D03*
X0104536Y0149300D03*
X0104536Y0144300D03*
X0104536Y0139300D03*
X0104536Y0134300D03*
X0114064Y0116800D03*
X0114064Y0111800D03*
X0114064Y0106800D03*
X0114064Y0101800D03*
X0134536Y0101800D03*
X0134536Y0106800D03*
X0134536Y0111800D03*
X0134536Y0116800D03*
D17*
X0155560Y0139300D03*
X0163040Y0139300D03*
X0128040Y0086800D03*
X0120560Y0086800D03*
D18*
X0120300Y0087300D01*
X0120300Y0093300D01*
X0115300Y0098300D01*
X0115300Y0101300D01*
X0114300Y0102300D01*
X0114064Y0101800D01*
X0114300Y0106300D02*
X0114064Y0106800D01*
X0114300Y0106300D02*
X0119300Y0106300D01*
X0121300Y0104300D01*
X0114064Y0111800D02*
X0113300Y0111300D01*
X0107300Y0111300D01*
X0106300Y0110300D01*
X0107300Y0122300D02*
X0085300Y0100300D01*
X0085300Y0056300D01*
X0118300Y0056300D01*
X0130300Y0044300D01*
X0137017Y0044300D01*
X0142300Y0044300D01*
X0154300Y0056300D01*
X0179300Y0056300D01*
X0191300Y0044300D01*
X0201583Y0044300D01*
X0184300Y0107300D02*
X0184733Y0107863D01*
X0184300Y0107300D02*
X0135300Y0107300D01*
X0134536Y0106800D01*
X0134300Y0102300D02*
X0134536Y0101800D01*
X0134300Y0102300D02*
X0133300Y0101300D01*
X0133300Y0098300D01*
X0128300Y0093300D01*
X0128300Y0087300D01*
X0128040Y0086800D01*
X0134536Y0111800D02*
X0135300Y0112300D01*
X0169300Y0112300D01*
X0173300Y0116300D01*
X0184300Y0116300D01*
X0184733Y0115737D01*
X0155560Y0139300D02*
X0155300Y0139300D01*
X0154300Y0140300D01*
X0137300Y0140300D01*
X0136800Y0140540D01*
X0136300Y0140300D01*
X0131300Y0140300D01*
X0130300Y0139300D01*
X0104536Y0139300D01*
X0104536Y0134300D02*
X0104300Y0134300D01*
X0104300Y0126300D01*
X0066300Y0088300D01*
X0057300Y0088300D01*
X0054300Y0091300D01*
X0054300Y0115300D01*
X0061300Y0115300D01*
X0061800Y0115560D01*
X0062300Y0122300D02*
X0061800Y0123040D01*
X0062300Y0122300D02*
X0067300Y0122300D01*
X0068300Y0121300D01*
X0069300Y0122300D01*
X0069300Y0155300D01*
X0076300Y0162300D01*
X0114300Y0162300D01*
X0114300Y0162646D01*
X0114300Y0156300D02*
X0114300Y0155954D01*
X0116300Y0156300D01*
X0116300Y0153300D01*
X0112300Y0149300D01*
X0112300Y0148300D01*
X0108300Y0144300D01*
X0104536Y0144300D01*
X0104536Y0134300D02*
X0108300Y0134300D01*
X0109300Y0133300D01*
X0136300Y0133300D01*
X0136800Y0133060D01*
X0134300Y0117300D02*
X0125300Y0117300D01*
X0120300Y0122300D01*
X0107300Y0122300D01*
X0134300Y0117300D02*
X0134536Y0116800D01*
X0127300Y0156300D02*
X0116300Y0156300D01*
X0114300Y0156300D01*
X0127300Y0156300D02*
X0131300Y0160300D01*
X0136300Y0160300D01*
X0136800Y0160540D01*
X0069300Y0155300D02*
X0067300Y0157300D01*
X0062300Y0157300D01*
X0061800Y0157646D01*
X0068300Y0121300D02*
X0069300Y0120300D01*
X0069300Y0105300D01*
X0067300Y0103300D01*
X0062300Y0103300D01*
X0061800Y0103040D01*
X0062300Y0096300D02*
X0061800Y0095560D01*
X0062300Y0096300D02*
X0068300Y0096300D01*
X0054300Y0115300D02*
X0039300Y0115300D01*
X0038867Y0115363D01*
X0085300Y0056300D02*
X0085300Y0050300D01*
X0079300Y0044300D01*
X0069300Y0032300D02*
X0094300Y0032300D01*
X0106300Y0044300D01*
X0111583Y0044300D01*
X0112300Y0044300D01*
X0113300Y0043300D01*
X0117300Y0043300D01*
X0121300Y0047300D01*
X0069300Y0032300D02*
X0057300Y0044300D01*
X0047017Y0044300D01*
D19*
X0068300Y0096300D03*
X0106300Y0110300D03*
X0121300Y0104300D03*
X0121300Y0047300D03*
D20*
X0124817Y0045861D02*
X0125345Y0045861D01*
X0124972Y0046234D02*
X0128917Y0042289D01*
X0128917Y0037255D01*
X0129972Y0036201D01*
X0144061Y0036201D01*
X0145116Y0037255D01*
X0145116Y0043722D01*
X0155294Y0053900D01*
X0178306Y0053900D01*
X0189941Y0042265D01*
X0190823Y0041900D01*
X0193484Y0041900D01*
X0193484Y0037255D01*
X0194539Y0036201D01*
X0208628Y0036201D01*
X0209683Y0037255D01*
X0209683Y0051345D01*
X0208628Y0052399D01*
X0194539Y0052399D01*
X0193484Y0051345D01*
X0193484Y0046700D01*
X0192294Y0046700D01*
X0181335Y0057659D01*
X0180659Y0058335D01*
X0179777Y0058700D01*
X0153823Y0058700D01*
X0152941Y0058335D01*
X0145116Y0050510D01*
X0145116Y0051345D01*
X0144061Y0052399D01*
X0129972Y0052399D01*
X0128917Y0051345D01*
X0128917Y0049077D01*
X0120335Y0057659D01*
X0119659Y0058335D01*
X0118777Y0058700D01*
X0087700Y0058700D01*
X0087700Y0099306D01*
X0108294Y0119900D01*
X0119306Y0119900D01*
X0123941Y0115265D01*
X0124823Y0114900D01*
X0128406Y0114900D01*
X0128406Y0114873D01*
X0128979Y0114300D01*
X0128406Y0113727D01*
X0128406Y0109873D01*
X0128979Y0109300D01*
X0128406Y0108727D01*
X0128406Y0104873D01*
X0128979Y0104300D01*
X0128406Y0103727D01*
X0128406Y0099873D01*
X0129460Y0098819D01*
X0130425Y0098819D01*
X0126265Y0094659D01*
X0125900Y0093777D01*
X0125900Y0091553D01*
X0124736Y0091553D01*
X0124300Y0091117D01*
X0123864Y0091553D01*
X0122700Y0091553D01*
X0122700Y0093777D01*
X0122335Y0094659D01*
X0118175Y0098819D01*
X0119140Y0098819D01*
X0120194Y0099873D01*
X0120194Y0100645D01*
X0120544Y0100500D01*
X0122056Y0100500D01*
X0123453Y0101079D01*
X0124521Y0102147D01*
X0125100Y0103544D01*
X0125100Y0105056D01*
X0124521Y0106453D01*
X0123453Y0107521D01*
X0122056Y0108100D01*
X0120894Y0108100D01*
X0120659Y0108335D01*
X0120194Y0108527D01*
X0120194Y0108727D01*
X0119621Y0109300D01*
X0120194Y0109873D01*
X0120194Y0113727D01*
X0119621Y0114300D01*
X0119835Y0114514D01*
X0120072Y0114924D01*
X0120194Y0115382D01*
X0120194Y0116800D01*
X0120194Y0118218D01*
X0120072Y0118676D01*
X0119835Y0119086D01*
X0119500Y0119421D01*
X0119089Y0119658D01*
X0118631Y0119781D01*
X0114064Y0119781D01*
X0114064Y0116800D01*
X0120194Y0116800D01*
X0114064Y0116800D01*
X0114064Y0116800D01*
X0114064Y0116800D01*
X0114064Y0119781D01*
X0109496Y0119781D01*
X0109038Y0119658D01*
X0108628Y0119421D01*
X0108293Y0119086D01*
X0108056Y0118676D01*
X0107933Y0118218D01*
X0107933Y0116800D01*
X0114064Y0116800D01*
X0107933Y0116800D01*
X0107933Y0115382D01*
X0108056Y0114924D01*
X0108293Y0114514D01*
X0108506Y0114300D01*
X0107940Y0113734D01*
X0107056Y0114100D01*
X0105544Y0114100D01*
X0104147Y0113521D01*
X0103079Y0112453D01*
X0102500Y0111056D01*
X0102500Y0109544D01*
X0103079Y0108147D01*
X0104147Y0107079D01*
X0105544Y0106500D01*
X0107056Y0106500D01*
X0107933Y0106863D01*
X0107933Y0104873D01*
X0108506Y0104300D01*
X0107933Y0103727D01*
X0107933Y0099873D01*
X0108987Y0098819D01*
X0112900Y0098819D01*
X0112900Y0097823D01*
X0113265Y0096941D01*
X0113941Y0096265D01*
X0117900Y0092306D01*
X0117900Y0091553D01*
X0117255Y0091553D01*
X0116201Y0090498D01*
X0116201Y0083102D01*
X0117255Y0082047D01*
X0123864Y0082047D01*
X0124300Y0082483D01*
X0124736Y0082047D01*
X0131345Y0082047D01*
X0132399Y0083102D01*
X0132399Y0090498D01*
X0131345Y0091553D01*
X0130700Y0091553D01*
X0130700Y0092306D01*
X0134659Y0096265D01*
X0135335Y0096941D01*
X0135700Y0097823D01*
X0135700Y0098819D01*
X0139613Y0098819D01*
X0140667Y0099873D01*
X0140667Y0103727D01*
X0140094Y0104300D01*
X0140667Y0104873D01*
X0140667Y0104900D01*
X0174127Y0104900D01*
X0174932Y0104094D01*
X0194534Y0104094D01*
X0195588Y0105149D01*
X0195588Y0110577D01*
X0194534Y0111631D01*
X0174932Y0111631D01*
X0173878Y0110577D01*
X0173878Y0109700D01*
X0140494Y0109700D01*
X0140667Y0109873D01*
X0140667Y0109900D01*
X0169777Y0109900D01*
X0170659Y0110265D01*
X0173878Y0113484D01*
X0173878Y0113023D01*
X0174932Y0111969D01*
X0194534Y0111969D01*
X0195588Y0113023D01*
X0195588Y0118451D01*
X0194534Y0119505D01*
X0174932Y0119505D01*
X0174127Y0118700D01*
X0172823Y0118700D01*
X0171941Y0118335D01*
X0168306Y0114700D01*
X0140494Y0114700D01*
X0140667Y0114873D01*
X0140667Y0118727D01*
X0139613Y0119781D01*
X0129460Y0119781D01*
X0129379Y0119700D01*
X0126294Y0119700D01*
X0122335Y0123659D01*
X0121659Y0124335D01*
X0120777Y0124700D01*
X0106823Y0124700D01*
X0105941Y0124335D01*
X0083941Y0102335D01*
X0083265Y0101659D01*
X0082900Y0100777D01*
X0082900Y0053777D01*
X0070877Y0053777D01*
X0069823Y0052723D01*
X0069823Y0035877D01*
X0070877Y0034823D01*
X0087723Y0034823D01*
X0088777Y0035877D01*
X0088777Y0052723D01*
X0087723Y0053777D01*
X0087700Y0053777D01*
X0087700Y0053900D01*
X0117306Y0053900D01*
X0120234Y0050972D01*
X0119683Y0050743D01*
X0119683Y0051345D01*
X0118628Y0052399D01*
X0104539Y0052399D01*
X0103484Y0051345D01*
X0103484Y0044878D01*
X0093306Y0034700D01*
X0070294Y0034700D01*
X0058659Y0046335D01*
X0057777Y0046700D01*
X0055116Y0046700D01*
X0055116Y0051345D01*
X0054061Y0052399D01*
X0039972Y0052399D01*
X0038917Y0051345D01*
X0038917Y0037255D01*
X0039972Y0036201D01*
X0054061Y0036201D01*
X0055116Y0037255D01*
X0055116Y0041900D01*
X0056306Y0041900D01*
X0067265Y0030941D01*
X0067941Y0030265D01*
X0068823Y0029900D01*
X0094777Y0029900D01*
X0095659Y0030265D01*
X0103484Y0038090D01*
X0103484Y0037255D01*
X0104539Y0036201D01*
X0118628Y0036201D01*
X0119683Y0037255D01*
X0119683Y0042289D01*
X0120894Y0043500D01*
X0122056Y0043500D01*
X0123453Y0044079D01*
X0124521Y0045147D01*
X0124972Y0046234D01*
X0123637Y0044263D02*
X0126943Y0044263D01*
X0128542Y0042664D02*
X0120058Y0042664D01*
X0119683Y0041066D02*
X0128917Y0041066D01*
X0128917Y0039467D02*
X0119683Y0039467D01*
X0119683Y0037869D02*
X0128917Y0037869D01*
X0129902Y0036270D02*
X0118698Y0036270D01*
X0104469Y0036270D02*
X0101664Y0036270D01*
X0100066Y0034672D02*
X0225701Y0034672D01*
X0225701Y0036270D02*
X0208698Y0036270D01*
X0209683Y0037869D02*
X0225701Y0037869D01*
X0225701Y0039467D02*
X0209683Y0039467D01*
X0209683Y0041066D02*
X0225701Y0041066D01*
X0225701Y0042664D02*
X0209683Y0042664D01*
X0209683Y0044263D02*
X0225701Y0044263D01*
X0225701Y0045861D02*
X0209683Y0045861D01*
X0209683Y0047460D02*
X0225701Y0047460D01*
X0225701Y0049058D02*
X0209683Y0049058D01*
X0209683Y0050657D02*
X0225701Y0050657D01*
X0225701Y0052255D02*
X0208772Y0052255D01*
X0194395Y0052255D02*
X0186739Y0052255D01*
X0188337Y0050657D02*
X0193484Y0050657D01*
X0193484Y0049058D02*
X0189936Y0049058D01*
X0191534Y0047460D02*
X0193484Y0047460D01*
X0189542Y0042664D02*
X0178777Y0042664D01*
X0178777Y0043500D02*
X0170100Y0043500D01*
X0170100Y0045100D01*
X0168500Y0045100D01*
X0168500Y0053777D01*
X0161386Y0053777D01*
X0160928Y0053654D01*
X0160518Y0053418D01*
X0160182Y0053082D01*
X0159945Y0052672D01*
X0159823Y0052214D01*
X0159823Y0045100D01*
X0168500Y0045100D01*
X0168500Y0043500D01*
X0159823Y0043500D01*
X0159823Y0036386D01*
X0159945Y0035928D01*
X0160182Y0035518D01*
X0160518Y0035182D01*
X0160928Y0034945D01*
X0161386Y0034823D01*
X0168500Y0034823D01*
X0168500Y0043500D01*
X0170100Y0043500D01*
X0170100Y0034823D01*
X0177214Y0034823D01*
X0177672Y0034945D01*
X0178082Y0035182D01*
X0178418Y0035518D01*
X0178654Y0035928D01*
X0178777Y0036386D01*
X0178777Y0043500D01*
X0178777Y0045100D02*
X0178777Y0052214D01*
X0178654Y0052672D01*
X0178418Y0053082D01*
X0178082Y0053418D01*
X0177672Y0053654D01*
X0177214Y0053777D01*
X0170100Y0053777D01*
X0170100Y0045100D01*
X0178777Y0045100D01*
X0178777Y0045861D02*
X0186345Y0045861D01*
X0187943Y0044263D02*
X0170100Y0044263D01*
X0170100Y0045861D02*
X0168500Y0045861D01*
X0168500Y0044263D02*
X0145657Y0044263D01*
X0145116Y0042664D02*
X0159823Y0042664D01*
X0159823Y0041066D02*
X0145116Y0041066D01*
X0145116Y0039467D02*
X0159823Y0039467D01*
X0159823Y0037869D02*
X0145116Y0037869D01*
X0144131Y0036270D02*
X0159854Y0036270D01*
X0168500Y0036270D02*
X0170100Y0036270D01*
X0170100Y0037869D02*
X0168500Y0037869D01*
X0168500Y0039467D02*
X0170100Y0039467D01*
X0170100Y0041066D02*
X0168500Y0041066D01*
X0168500Y0042664D02*
X0170100Y0042664D01*
X0170100Y0047460D02*
X0168500Y0047460D01*
X0168500Y0049058D02*
X0170100Y0049058D01*
X0170100Y0050657D02*
X0168500Y0050657D01*
X0168500Y0052255D02*
X0170100Y0052255D01*
X0178352Y0053854D02*
X0155248Y0053854D01*
X0153649Y0052255D02*
X0159834Y0052255D01*
X0159823Y0050657D02*
X0152051Y0050657D01*
X0150452Y0049058D02*
X0159823Y0049058D01*
X0159823Y0047460D02*
X0148854Y0047460D01*
X0147255Y0045861D02*
X0159823Y0045861D01*
X0150058Y0055452D02*
X0122542Y0055452D01*
X0124140Y0053854D02*
X0148460Y0053854D01*
X0146861Y0052255D02*
X0144205Y0052255D01*
X0145116Y0050657D02*
X0145263Y0050657D01*
X0151657Y0057051D02*
X0120943Y0057051D01*
X0118900Y0058649D02*
X0153700Y0058649D01*
X0132399Y0084226D02*
X0225701Y0084226D01*
X0225701Y0085824D02*
X0132399Y0085824D01*
X0132399Y0087423D02*
X0225701Y0087423D01*
X0225701Y0089021D02*
X0132399Y0089021D01*
X0132278Y0090620D02*
X0225701Y0090620D01*
X0225701Y0092218D02*
X0130700Y0092218D01*
X0132211Y0093817D02*
X0197415Y0093817D01*
X0197767Y0093465D02*
X0212644Y0093465D01*
X0213698Y0094519D01*
X0213698Y0102309D01*
X0212644Y0103364D01*
X0197767Y0103364D01*
X0196713Y0102309D01*
X0196713Y0094519D01*
X0197767Y0093465D01*
X0196713Y0095415D02*
X0133809Y0095415D01*
X0134659Y0096265D02*
X0134659Y0096265D01*
X0135365Y0097014D02*
X0196713Y0097014D01*
X0196713Y0098612D02*
X0135700Y0098612D01*
X0140667Y0100211D02*
X0196713Y0100211D01*
X0196713Y0101809D02*
X0140667Y0101809D01*
X0140667Y0103408D02*
X0225701Y0103408D01*
X0225701Y0105006D02*
X0195445Y0105006D01*
X0195588Y0106605D02*
X0225701Y0106605D01*
X0225701Y0108203D02*
X0195588Y0108203D01*
X0195588Y0109802D02*
X0225701Y0109802D01*
X0225701Y0111400D02*
X0194765Y0111400D01*
X0195564Y0112999D02*
X0225701Y0112999D01*
X0225701Y0114597D02*
X0195588Y0114597D01*
X0195588Y0116196D02*
X0225701Y0116196D01*
X0225701Y0117794D02*
X0195588Y0117794D01*
X0194646Y0119393D02*
X0225701Y0119393D01*
X0225701Y0120991D02*
X0213399Y0120991D01*
X0213698Y0121291D02*
X0212644Y0120236D01*
X0197767Y0120236D01*
X0196713Y0121291D01*
X0196713Y0129081D01*
X0197767Y0130135D01*
X0212644Y0130135D01*
X0213698Y0129081D01*
X0213698Y0121291D01*
X0213698Y0122590D02*
X0225701Y0122590D01*
X0225701Y0124188D02*
X0213698Y0124188D01*
X0213698Y0125787D02*
X0225701Y0125787D01*
X0225701Y0127385D02*
X0213698Y0127385D01*
X0213698Y0128984D02*
X0225701Y0128984D01*
X0225701Y0130582D02*
X0141553Y0130582D01*
X0141553Y0129755D02*
X0141553Y0136364D01*
X0141117Y0136800D01*
X0141553Y0137236D01*
X0141553Y0137900D01*
X0151201Y0137900D01*
X0151201Y0135602D01*
X0152255Y0134547D01*
X0158864Y0134547D01*
X0159300Y0134983D01*
X0159376Y0134907D01*
X0159786Y0134670D01*
X0160244Y0134547D01*
X0162561Y0134547D01*
X0162561Y0138820D01*
X0163520Y0138820D01*
X0163520Y0134547D01*
X0165836Y0134547D01*
X0166294Y0134670D01*
X0166704Y0134907D01*
X0167040Y0135242D01*
X0167277Y0135652D01*
X0167399Y0136110D01*
X0167399Y0138820D01*
X0163520Y0138820D01*
X0163520Y0139780D01*
X0162561Y0139780D01*
X0162561Y0144053D01*
X0160244Y0144053D01*
X0159786Y0143930D01*
X0159376Y0143693D01*
X0159300Y0143617D01*
X0158864Y0144053D01*
X0152255Y0144053D01*
X0151201Y0142998D01*
X0151201Y0142700D01*
X0141553Y0142700D01*
X0141553Y0143845D01*
X0140498Y0144899D01*
X0133102Y0144899D01*
X0132047Y0143845D01*
X0132047Y0142700D01*
X0130823Y0142700D01*
X0129941Y0142335D01*
X0129306Y0141700D01*
X0110194Y0141700D01*
X0110094Y0141800D01*
X0110667Y0142373D01*
X0110667Y0143273D01*
X0113659Y0146265D01*
X0114335Y0146941D01*
X0114700Y0147823D01*
X0114700Y0148306D01*
X0117659Y0151265D01*
X0117989Y0151594D01*
X0117998Y0151594D01*
X0119053Y0152649D01*
X0119053Y0153900D01*
X0127777Y0153900D01*
X0128659Y0154265D01*
X0132047Y0157653D01*
X0132047Y0157236D01*
X0132483Y0156800D01*
X0132407Y0156724D01*
X0132170Y0156314D01*
X0132047Y0155856D01*
X0132047Y0153539D01*
X0136320Y0153539D01*
X0136320Y0152580D01*
X0132047Y0152580D01*
X0132047Y0150264D01*
X0132170Y0149806D01*
X0132407Y0149396D01*
X0132742Y0149060D01*
X0133152Y0148823D01*
X0133610Y0148701D01*
X0136320Y0148701D01*
X0136320Y0152580D01*
X0137280Y0152580D01*
X0137280Y0153539D01*
X0141553Y0153539D01*
X0141553Y0155856D01*
X0141430Y0156314D01*
X0141193Y0156724D01*
X0141117Y0156800D01*
X0141553Y0157236D01*
X0141553Y0163845D01*
X0140498Y0164899D01*
X0133102Y0164899D01*
X0132047Y0163845D01*
X0132047Y0162700D01*
X0130823Y0162700D01*
X0129941Y0162335D01*
X0129265Y0161659D01*
X0126306Y0158700D01*
X0119053Y0158700D01*
X0119053Y0159258D01*
X0119011Y0159300D01*
X0119053Y0159342D01*
X0119053Y0165951D01*
X0117998Y0167005D01*
X0110602Y0167005D01*
X0109547Y0165951D01*
X0109547Y0164700D01*
X0075823Y0164700D01*
X0074941Y0164335D01*
X0069300Y0158694D01*
X0068659Y0159335D01*
X0067777Y0159700D01*
X0066553Y0159700D01*
X0066553Y0160951D01*
X0065498Y0162005D01*
X0058102Y0162005D01*
X0057047Y0160951D01*
X0057047Y0154342D01*
X0057174Y0154215D01*
X0057170Y0154207D01*
X0057047Y0153750D01*
X0057047Y0151433D01*
X0061320Y0151433D01*
X0061320Y0150474D01*
X0057047Y0150474D01*
X0057047Y0148158D01*
X0057170Y0147700D01*
X0057407Y0147289D01*
X0057742Y0146954D01*
X0058152Y0146717D01*
X0058610Y0146594D01*
X0061320Y0146594D01*
X0061320Y0150474D01*
X0062280Y0150474D01*
X0062280Y0151433D01*
X0066553Y0151433D01*
X0066553Y0153750D01*
X0066430Y0154207D01*
X0066426Y0154215D01*
X0066553Y0154342D01*
X0066553Y0154653D01*
X0066900Y0154306D01*
X0066900Y0124700D01*
X0066553Y0124700D01*
X0066553Y0126345D01*
X0065498Y0127399D01*
X0058102Y0127399D01*
X0057047Y0126345D01*
X0057047Y0119736D01*
X0057483Y0119300D01*
X0057047Y0118864D01*
X0057047Y0117700D01*
X0049722Y0117700D01*
X0049722Y0118077D01*
X0048668Y0119131D01*
X0029066Y0119131D01*
X0028012Y0118077D01*
X0028012Y0112649D01*
X0029066Y0111594D01*
X0048668Y0111594D01*
X0049722Y0112649D01*
X0049722Y0112900D01*
X0051900Y0112900D01*
X0051900Y0090823D01*
X0052265Y0089941D01*
X0052941Y0089265D01*
X0055941Y0086265D01*
X0056823Y0085900D01*
X0066777Y0085900D01*
X0067659Y0086265D01*
X0068335Y0086941D01*
X0106335Y0124941D01*
X0106700Y0125823D01*
X0106700Y0131319D01*
X0107887Y0131319D01*
X0107941Y0131265D01*
X0108823Y0130900D01*
X0132047Y0130900D01*
X0132047Y0129755D01*
X0133102Y0128701D01*
X0140498Y0128701D01*
X0141553Y0129755D01*
X0140781Y0128984D02*
X0196713Y0128984D01*
X0196713Y0127385D02*
X0106700Y0127385D01*
X0106685Y0125787D02*
X0196713Y0125787D01*
X0196713Y0124188D02*
X0121806Y0124188D01*
X0123404Y0122590D02*
X0196713Y0122590D01*
X0197012Y0120991D02*
X0125003Y0120991D01*
X0121412Y0117794D02*
X0120194Y0117794D01*
X0120194Y0116196D02*
X0123010Y0116196D01*
X0119883Y0114597D02*
X0128682Y0114597D01*
X0128406Y0112999D02*
X0120194Y0112999D01*
X0120194Y0111400D02*
X0128406Y0111400D01*
X0128477Y0109802D02*
X0120123Y0109802D01*
X0120791Y0108203D02*
X0128406Y0108203D01*
X0128406Y0106605D02*
X0124369Y0106605D01*
X0125100Y0105006D02*
X0128406Y0105006D01*
X0128406Y0103408D02*
X0125043Y0103408D01*
X0124183Y0101809D02*
X0128406Y0101809D01*
X0128406Y0100211D02*
X0120194Y0100211D01*
X0118382Y0098612D02*
X0130218Y0098612D01*
X0128620Y0097014D02*
X0119980Y0097014D01*
X0121579Y0095415D02*
X0127021Y0095415D01*
X0125916Y0093817D02*
X0122684Y0093817D01*
X0122700Y0092218D02*
X0125900Y0092218D01*
X0131925Y0082627D02*
X0225701Y0082627D01*
X0225701Y0081029D02*
X0087700Y0081029D01*
X0087700Y0082627D02*
X0116675Y0082627D01*
X0116201Y0084226D02*
X0087700Y0084226D01*
X0087700Y0085824D02*
X0116201Y0085824D01*
X0116201Y0087423D02*
X0087700Y0087423D01*
X0087700Y0089021D02*
X0116201Y0089021D01*
X0116322Y0090620D02*
X0087700Y0090620D01*
X0087700Y0092218D02*
X0117900Y0092218D01*
X0116389Y0093817D02*
X0087700Y0093817D01*
X0087700Y0095415D02*
X0114791Y0095415D01*
X0113235Y0097014D02*
X0087700Y0097014D01*
X0087700Y0098612D02*
X0112900Y0098612D01*
X0107933Y0100211D02*
X0088605Y0100211D01*
X0090203Y0101809D02*
X0107933Y0101809D01*
X0107933Y0103408D02*
X0091802Y0103408D01*
X0093400Y0105006D02*
X0107933Y0105006D01*
X0107933Y0106605D02*
X0107309Y0106605D01*
X0105291Y0106605D02*
X0094999Y0106605D01*
X0096597Y0108203D02*
X0103055Y0108203D01*
X0102500Y0109802D02*
X0098196Y0109802D01*
X0099794Y0111400D02*
X0102643Y0111400D01*
X0103625Y0112999D02*
X0101393Y0112999D01*
X0102991Y0114597D02*
X0108244Y0114597D01*
X0107933Y0116196D02*
X0104590Y0116196D01*
X0106188Y0117794D02*
X0107933Y0117794D01*
X0107787Y0119393D02*
X0108599Y0119393D01*
X0104196Y0122590D02*
X0103984Y0122590D01*
X0102597Y0120991D02*
X0102385Y0120991D01*
X0100999Y0119393D02*
X0100787Y0119393D01*
X0099400Y0117794D02*
X0099188Y0117794D01*
X0097802Y0116196D02*
X0097590Y0116196D01*
X0096203Y0114597D02*
X0095991Y0114597D01*
X0094605Y0112999D02*
X0094393Y0112999D01*
X0093006Y0111400D02*
X0092794Y0111400D01*
X0091408Y0109802D02*
X0091196Y0109802D01*
X0089809Y0108203D02*
X0089597Y0108203D01*
X0088211Y0106605D02*
X0087999Y0106605D01*
X0086612Y0105006D02*
X0086400Y0105006D01*
X0085014Y0103408D02*
X0084802Y0103408D01*
X0083415Y0101809D02*
X0083203Y0101809D01*
X0082900Y0100211D02*
X0081605Y0100211D01*
X0082900Y0098612D02*
X0080006Y0098612D01*
X0078408Y0097014D02*
X0082900Y0097014D01*
X0082900Y0095415D02*
X0076809Y0095415D01*
X0075211Y0093817D02*
X0082900Y0093817D01*
X0082900Y0092218D02*
X0073612Y0092218D01*
X0072014Y0090620D02*
X0082900Y0090620D01*
X0082900Y0089021D02*
X0070415Y0089021D01*
X0068817Y0087423D02*
X0082900Y0087423D01*
X0082900Y0085824D02*
X0009100Y0085824D01*
X0009100Y0084226D02*
X0082900Y0084226D01*
X0082900Y0082627D02*
X0009100Y0082627D01*
X0009100Y0081029D02*
X0082900Y0081029D01*
X0082900Y0079430D02*
X0009100Y0079430D01*
X0009100Y0077832D02*
X0082900Y0077832D01*
X0082900Y0076233D02*
X0009100Y0076233D01*
X0009100Y0074634D02*
X0082900Y0074634D01*
X0082900Y0073036D02*
X0009100Y0073036D01*
X0009100Y0071437D02*
X0082900Y0071437D01*
X0082900Y0069839D02*
X0009100Y0069839D01*
X0009100Y0068240D02*
X0082900Y0068240D01*
X0082900Y0066642D02*
X0009100Y0066642D01*
X0009100Y0065043D02*
X0082900Y0065043D01*
X0082900Y0063445D02*
X0009100Y0063445D01*
X0009100Y0061846D02*
X0082900Y0061846D01*
X0082900Y0060248D02*
X0009100Y0060248D01*
X0009100Y0058649D02*
X0082900Y0058649D01*
X0082900Y0057051D02*
X0009100Y0057051D01*
X0009100Y0055452D02*
X0082900Y0055452D01*
X0082900Y0053854D02*
X0009100Y0053854D01*
X0009100Y0052255D02*
X0039828Y0052255D01*
X0038917Y0050657D02*
X0009100Y0050657D01*
X0009100Y0049058D02*
X0038917Y0049058D01*
X0038917Y0047460D02*
X0009100Y0047460D01*
X0009100Y0045861D02*
X0038917Y0045861D01*
X0038917Y0044263D02*
X0009100Y0044263D01*
X0009100Y0042664D02*
X0038917Y0042664D01*
X0038917Y0041066D02*
X0009100Y0041066D01*
X0009100Y0039467D02*
X0038917Y0039467D01*
X0038917Y0037869D02*
X0009100Y0037869D01*
X0009100Y0036270D02*
X0039902Y0036270D01*
X0054131Y0036270D02*
X0061936Y0036270D01*
X0063534Y0034672D02*
X0009100Y0034672D01*
X0009100Y0033073D02*
X0065133Y0033073D01*
X0066731Y0031475D02*
X0009100Y0031475D01*
X0009100Y0029876D02*
X0225701Y0029876D01*
X0225701Y0028278D02*
X0009100Y0028278D01*
X0009100Y0026679D02*
X0225701Y0026679D01*
X0225701Y0025081D02*
X0222140Y0025081D01*
X0221038Y0025537D02*
X0224249Y0024207D01*
X0225701Y0022755D01*
X0225701Y0180845D01*
X0224249Y0179393D01*
X0221038Y0178063D01*
X0217562Y0178063D01*
X0214351Y0179393D01*
X0211893Y0181851D01*
X0210563Y0185062D01*
X0210563Y0188538D01*
X0211893Y0191749D01*
X0212105Y0191961D01*
X0018636Y0191961D01*
X0019249Y0191707D01*
X0021707Y0189249D01*
X0023037Y0186038D01*
X0023037Y0182562D01*
X0021707Y0179351D01*
X0019249Y0176893D01*
X0016038Y0175563D01*
X0012562Y0175563D01*
X0009351Y0176893D01*
X0009100Y0177144D01*
X0009100Y0023956D01*
X0009351Y0024207D01*
X0012562Y0025537D01*
X0016038Y0025537D01*
X0019249Y0024207D01*
X0021707Y0021749D01*
X0023037Y0018538D01*
X0023037Y0015062D01*
X0021707Y0011851D01*
X0019249Y0009393D01*
X0018541Y0009100D01*
X0215059Y0009100D01*
X0214351Y0009393D01*
X0211893Y0011851D01*
X0210563Y0015062D01*
X0210563Y0018538D01*
X0211893Y0021749D01*
X0214351Y0024207D01*
X0217562Y0025537D01*
X0221038Y0025537D01*
X0224974Y0023482D02*
X0225701Y0023482D01*
X0225701Y0031475D02*
X0096869Y0031475D01*
X0098467Y0033073D02*
X0225701Y0033073D01*
X0216460Y0025081D02*
X0017140Y0025081D01*
X0019974Y0023482D02*
X0213626Y0023482D01*
X0212028Y0021884D02*
X0021572Y0021884D01*
X0022313Y0020285D02*
X0211287Y0020285D01*
X0210625Y0018687D02*
X0022975Y0018687D01*
X0023037Y0017088D02*
X0210563Y0017088D01*
X0210563Y0015490D02*
X0023037Y0015490D01*
X0022552Y0013891D02*
X0211048Y0013891D01*
X0211710Y0012293D02*
X0021890Y0012293D01*
X0020550Y0010694D02*
X0213050Y0010694D01*
X0194469Y0036270D02*
X0178746Y0036270D01*
X0178777Y0037869D02*
X0193484Y0037869D01*
X0193484Y0039467D02*
X0178777Y0039467D01*
X0178777Y0041066D02*
X0193484Y0041066D01*
X0184746Y0047460D02*
X0178777Y0047460D01*
X0178777Y0049058D02*
X0183148Y0049058D01*
X0181549Y0050657D02*
X0178777Y0050657D01*
X0178766Y0052255D02*
X0179951Y0052255D01*
X0183542Y0055452D02*
X0225701Y0055452D01*
X0225701Y0053854D02*
X0185140Y0053854D01*
X0181943Y0057051D02*
X0225701Y0057051D01*
X0225701Y0058649D02*
X0179900Y0058649D01*
X0212996Y0093817D02*
X0225701Y0093817D01*
X0225701Y0095415D02*
X0213698Y0095415D01*
X0213698Y0097014D02*
X0225701Y0097014D01*
X0225701Y0098612D02*
X0213698Y0098612D01*
X0213698Y0100211D02*
X0225701Y0100211D01*
X0225701Y0101809D02*
X0213698Y0101809D01*
X0225701Y0079430D02*
X0087700Y0079430D01*
X0087700Y0077832D02*
X0225701Y0077832D01*
X0225701Y0076233D02*
X0087700Y0076233D01*
X0087700Y0074634D02*
X0225701Y0074634D01*
X0225701Y0073036D02*
X0087700Y0073036D01*
X0087700Y0071437D02*
X0225701Y0071437D01*
X0225701Y0069839D02*
X0087700Y0069839D01*
X0087700Y0068240D02*
X0225701Y0068240D01*
X0225701Y0066642D02*
X0087700Y0066642D01*
X0087700Y0065043D02*
X0225701Y0065043D01*
X0225701Y0063445D02*
X0087700Y0063445D01*
X0087700Y0061846D02*
X0225701Y0061846D01*
X0225701Y0060248D02*
X0087700Y0060248D01*
X0087700Y0053854D02*
X0117352Y0053854D01*
X0118772Y0052255D02*
X0118951Y0052255D01*
X0125739Y0052255D02*
X0129828Y0052255D01*
X0128917Y0050657D02*
X0127337Y0050657D01*
X0104395Y0052255D02*
X0088777Y0052255D01*
X0088777Y0050657D02*
X0103484Y0050657D01*
X0103484Y0049058D02*
X0088777Y0049058D01*
X0088777Y0047460D02*
X0103484Y0047460D01*
X0103484Y0045861D02*
X0088777Y0045861D01*
X0088777Y0044263D02*
X0102869Y0044263D01*
X0101270Y0042664D02*
X0088777Y0042664D01*
X0088777Y0041066D02*
X0099672Y0041066D01*
X0098073Y0039467D02*
X0088777Y0039467D01*
X0088777Y0037869D02*
X0096475Y0037869D01*
X0094876Y0036270D02*
X0088777Y0036270D01*
X0103263Y0037869D02*
X0103484Y0037869D01*
X0069823Y0037869D02*
X0067125Y0037869D01*
X0065527Y0039467D02*
X0069823Y0039467D01*
X0069823Y0041066D02*
X0063928Y0041066D01*
X0062330Y0042664D02*
X0069823Y0042664D01*
X0069823Y0044263D02*
X0060731Y0044263D01*
X0059133Y0045861D02*
X0069823Y0045861D01*
X0069823Y0047460D02*
X0055116Y0047460D01*
X0055116Y0049058D02*
X0069823Y0049058D01*
X0069823Y0050657D02*
X0055116Y0050657D01*
X0054205Y0052255D02*
X0069823Y0052255D01*
X0057140Y0041066D02*
X0055116Y0041066D01*
X0055116Y0039467D02*
X0058739Y0039467D01*
X0060337Y0037869D02*
X0055116Y0037869D01*
X0068724Y0036270D02*
X0069823Y0036270D01*
X0054783Y0087423D02*
X0009100Y0087423D01*
X0009100Y0089021D02*
X0053185Y0089021D01*
X0051984Y0090620D02*
X0009100Y0090620D01*
X0009100Y0092218D02*
X0051900Y0092218D01*
X0051900Y0093817D02*
X0009100Y0093817D01*
X0009100Y0095415D02*
X0051900Y0095415D01*
X0051900Y0097014D02*
X0009100Y0097014D01*
X0009100Y0098612D02*
X0051900Y0098612D01*
X0051900Y0100211D02*
X0009100Y0100211D01*
X0009100Y0101809D02*
X0010111Y0101809D01*
X0009902Y0102019D02*
X0010956Y0100965D01*
X0025833Y0100965D01*
X0026887Y0102019D01*
X0026887Y0109809D01*
X0025833Y0110864D01*
X0010956Y0110864D01*
X0009902Y0109809D01*
X0009902Y0102019D01*
X0009902Y0103408D02*
X0009100Y0103408D01*
X0009100Y0105006D02*
X0009902Y0105006D01*
X0009902Y0106605D02*
X0009100Y0106605D01*
X0009100Y0108203D02*
X0009902Y0108203D01*
X0009902Y0109802D02*
X0009100Y0109802D01*
X0009100Y0111400D02*
X0051900Y0111400D01*
X0051900Y0109802D02*
X0026887Y0109802D01*
X0026887Y0108203D02*
X0051900Y0108203D01*
X0051900Y0106605D02*
X0026887Y0106605D01*
X0026887Y0105006D02*
X0051900Y0105006D01*
X0051900Y0103408D02*
X0026887Y0103408D01*
X0026678Y0101809D02*
X0051900Y0101809D01*
X0049722Y0117794D02*
X0057047Y0117794D01*
X0057390Y0119393D02*
X0009100Y0119393D01*
X0009100Y0120991D02*
X0028012Y0120991D01*
X0028012Y0120523D02*
X0029066Y0119469D01*
X0048668Y0119469D01*
X0049722Y0120523D01*
X0049722Y0125951D01*
X0048668Y0127005D01*
X0029066Y0127005D01*
X0028012Y0125951D01*
X0028012Y0120523D01*
X0028012Y0122590D02*
X0009100Y0122590D01*
X0009100Y0124188D02*
X0028012Y0124188D01*
X0028012Y0125787D02*
X0009100Y0125787D01*
X0009100Y0127385D02*
X0058088Y0127385D01*
X0057047Y0125787D02*
X0049722Y0125787D01*
X0049722Y0124188D02*
X0057047Y0124188D01*
X0057047Y0122590D02*
X0049722Y0122590D01*
X0049722Y0120991D02*
X0057047Y0120991D01*
X0065512Y0127385D02*
X0066900Y0127385D01*
X0066900Y0125787D02*
X0066553Y0125787D01*
X0066900Y0128984D02*
X0026887Y0128984D01*
X0026887Y0128791D02*
X0026887Y0136581D01*
X0025833Y0137635D01*
X0010956Y0137635D01*
X0009902Y0136581D01*
X0009902Y0128791D01*
X0010956Y0127736D01*
X0025833Y0127736D01*
X0026887Y0128791D01*
X0026887Y0130582D02*
X0066900Y0130582D01*
X0066900Y0132181D02*
X0026887Y0132181D01*
X0026887Y0133779D02*
X0066900Y0133779D01*
X0066900Y0135378D02*
X0026887Y0135378D01*
X0026492Y0136976D02*
X0066900Y0136976D01*
X0066900Y0138575D02*
X0009100Y0138575D01*
X0009100Y0140173D02*
X0066900Y0140173D01*
X0066900Y0141772D02*
X0009100Y0141772D01*
X0009100Y0143370D02*
X0066900Y0143370D01*
X0066900Y0144969D02*
X0009100Y0144969D01*
X0009100Y0146568D02*
X0066900Y0146568D01*
X0066193Y0147289D02*
X0066430Y0147700D01*
X0066553Y0148158D01*
X0066553Y0150474D01*
X0062280Y0150474D01*
X0062280Y0146594D01*
X0064990Y0146594D01*
X0065448Y0146717D01*
X0065858Y0146954D01*
X0066193Y0147289D01*
X0066553Y0148166D02*
X0066900Y0148166D01*
X0066900Y0149765D02*
X0066553Y0149765D01*
X0066900Y0151363D02*
X0062280Y0151363D01*
X0061320Y0151363D02*
X0009100Y0151363D01*
X0009100Y0149765D02*
X0057047Y0149765D01*
X0057047Y0148166D02*
X0009100Y0148166D01*
X0009100Y0152962D02*
X0057047Y0152962D01*
X0057047Y0154560D02*
X0009100Y0154560D01*
X0009100Y0156159D02*
X0057047Y0156159D01*
X0057047Y0157757D02*
X0009100Y0157757D01*
X0009100Y0159356D02*
X0057047Y0159356D01*
X0057050Y0160954D02*
X0009100Y0160954D01*
X0009100Y0162553D02*
X0073159Y0162553D01*
X0074757Y0164151D02*
X0009100Y0164151D01*
X0009100Y0165750D02*
X0109547Y0165750D01*
X0119053Y0165750D02*
X0225701Y0165750D01*
X0225701Y0167348D02*
X0009100Y0167348D01*
X0009100Y0168947D02*
X0225701Y0168947D01*
X0225701Y0170545D02*
X0009100Y0170545D01*
X0009100Y0172144D02*
X0225701Y0172144D01*
X0225701Y0173742D02*
X0009100Y0173742D01*
X0009100Y0175341D02*
X0225701Y0175341D01*
X0225701Y0176939D02*
X0019295Y0176939D01*
X0020894Y0178538D02*
X0216416Y0178538D01*
X0213608Y0180136D02*
X0022032Y0180136D01*
X0022694Y0181735D02*
X0212009Y0181735D01*
X0211279Y0183333D02*
X0023037Y0183333D01*
X0023037Y0184932D02*
X0210617Y0184932D01*
X0210563Y0186530D02*
X0022833Y0186530D01*
X0022171Y0188129D02*
X0210563Y0188129D01*
X0211056Y0189727D02*
X0021229Y0189727D01*
X0019630Y0191326D02*
X0211718Y0191326D01*
X0222184Y0178538D02*
X0225701Y0178538D01*
X0225701Y0180136D02*
X0224992Y0180136D01*
X0225701Y0164151D02*
X0141246Y0164151D01*
X0141553Y0162553D02*
X0225701Y0162553D01*
X0225701Y0160954D02*
X0141553Y0160954D01*
X0141553Y0159356D02*
X0225701Y0159356D01*
X0225701Y0157757D02*
X0141553Y0157757D01*
X0141472Y0156159D02*
X0225701Y0156159D01*
X0225701Y0154560D02*
X0141553Y0154560D01*
X0141553Y0152580D02*
X0137280Y0152580D01*
X0137280Y0148701D01*
X0139990Y0148701D01*
X0140448Y0148823D01*
X0140858Y0149060D01*
X0141193Y0149396D01*
X0141430Y0149806D01*
X0141553Y0150264D01*
X0141553Y0152580D01*
X0141553Y0151363D02*
X0225701Y0151363D01*
X0225701Y0149765D02*
X0141406Y0149765D01*
X0137280Y0149765D02*
X0136320Y0149765D01*
X0136320Y0151363D02*
X0137280Y0151363D01*
X0137280Y0152962D02*
X0225701Y0152962D01*
X0225701Y0148166D02*
X0114700Y0148166D01*
X0113962Y0146568D02*
X0225701Y0146568D01*
X0225701Y0144969D02*
X0112363Y0144969D01*
X0110765Y0143370D02*
X0132047Y0143370D01*
X0129378Y0141772D02*
X0110122Y0141772D01*
X0116159Y0149765D02*
X0132194Y0149765D01*
X0132047Y0151363D02*
X0117757Y0151363D01*
X0119053Y0152962D02*
X0136320Y0152962D01*
X0132047Y0154560D02*
X0128954Y0154560D01*
X0130553Y0156159D02*
X0132128Y0156159D01*
X0128560Y0160954D02*
X0119053Y0160954D01*
X0119053Y0159356D02*
X0126962Y0159356D01*
X0129265Y0161659D02*
X0129265Y0161659D01*
X0130467Y0162553D02*
X0119053Y0162553D01*
X0119053Y0164151D02*
X0132354Y0164151D01*
X0141553Y0143370D02*
X0151573Y0143370D01*
X0151201Y0136976D02*
X0141294Y0136976D01*
X0141553Y0135378D02*
X0151425Y0135378D01*
X0162561Y0135378D02*
X0163520Y0135378D01*
X0163520Y0136976D02*
X0162561Y0136976D01*
X0162561Y0138575D02*
X0163520Y0138575D01*
X0163520Y0139780D02*
X0167399Y0139780D01*
X0167399Y0142490D01*
X0167277Y0142948D01*
X0167040Y0143358D01*
X0166704Y0143693D01*
X0166294Y0143930D01*
X0165836Y0144053D01*
X0163520Y0144053D01*
X0163520Y0139780D01*
X0163520Y0140173D02*
X0162561Y0140173D01*
X0162561Y0141772D02*
X0163520Y0141772D01*
X0163520Y0143370D02*
X0162561Y0143370D01*
X0167027Y0143370D02*
X0225701Y0143370D01*
X0225701Y0141772D02*
X0167399Y0141772D01*
X0167399Y0140173D02*
X0225701Y0140173D01*
X0225701Y0138575D02*
X0167399Y0138575D01*
X0167399Y0136976D02*
X0225701Y0136976D01*
X0225701Y0135378D02*
X0167118Y0135378D01*
X0174820Y0119393D02*
X0140001Y0119393D01*
X0140667Y0117794D02*
X0171400Y0117794D01*
X0169802Y0116196D02*
X0140667Y0116196D01*
X0140595Y0109802D02*
X0173878Y0109802D01*
X0174701Y0111400D02*
X0171794Y0111400D01*
X0173393Y0112999D02*
X0173902Y0112999D01*
X0141553Y0132181D02*
X0225701Y0132181D01*
X0225701Y0133779D02*
X0141553Y0133779D01*
X0132819Y0128984D02*
X0106700Y0128984D01*
X0106700Y0130582D02*
X0132047Y0130582D01*
X0119813Y0119393D02*
X0119528Y0119393D01*
X0114064Y0119393D02*
X0114064Y0119393D01*
X0114064Y0117794D02*
X0114064Y0117794D01*
X0114064Y0116800D02*
X0114064Y0116800D01*
X0105794Y0124188D02*
X0105582Y0124188D01*
X0071560Y0160954D02*
X0066550Y0160954D01*
X0068609Y0159356D02*
X0069961Y0159356D01*
X0066646Y0154560D02*
X0066553Y0154560D01*
X0066553Y0152962D02*
X0066900Y0152962D01*
X0062280Y0149765D02*
X0061320Y0149765D01*
X0061320Y0148166D02*
X0062280Y0148166D01*
X0028012Y0117794D02*
X0009100Y0117794D01*
X0009100Y0116196D02*
X0028012Y0116196D01*
X0028012Y0114597D02*
X0009100Y0114597D01*
X0009100Y0112999D02*
X0028012Y0112999D01*
X0009902Y0128984D02*
X0009100Y0128984D01*
X0009100Y0130582D02*
X0009902Y0130582D01*
X0009902Y0132181D02*
X0009100Y0132181D01*
X0009100Y0133779D02*
X0009902Y0133779D01*
X0009902Y0135378D02*
X0009100Y0135378D01*
X0009100Y0136976D02*
X0010297Y0136976D01*
X0009305Y0176939D02*
X0009100Y0176939D01*
X0009100Y0025081D02*
X0011460Y0025081D01*
D21*
X0039300Y0079300D03*
X0041800Y0151800D03*
X0136800Y0174300D03*
X0191800Y0151800D03*
X0151800Y0084300D03*
X0194300Y0074300D03*
M02*
