G75*
%MOIN*%
%OFA0B0*%
%FSLAX25Y25*%
%IPPOS*%
%LPD*%
%AMOC8*
5,1,8,0,0,1.08239X$1,22.5*
%
%ADD10C,0.08674*%
%ADD11R,0.16154X0.16154*%
%ADD12R,0.13398X0.13398*%
%ADD13R,0.06706X0.05918*%
%ADD14R,0.18910X0.04737*%
%ADD15R,0.14186X0.07099*%
%ADD16R,0.09461X0.03162*%
%ADD17R,0.05918X0.06706*%
%ADD18C,0.04800*%
%ADD19C,0.04762*%
D10*
X0014300Y0016800D03*
X0014300Y0184300D03*
X0219300Y0186800D03*
X0219300Y0016800D03*
D11*
X0169300Y0044300D03*
X0079300Y0044300D03*
D12*
X0047017Y0044300D03*
X0111583Y0044300D03*
X0137017Y0044300D03*
X0201583Y0044300D03*
D13*
X0136800Y0133060D03*
X0136800Y0140540D03*
X0136800Y0153060D03*
X0136800Y0160540D03*
X0114300Y0162646D03*
X0114300Y0155954D03*
X0061800Y0157646D03*
X0061800Y0150954D03*
X0061800Y0123040D03*
X0061800Y0115560D03*
X0061800Y0103040D03*
X0061800Y0095560D03*
D14*
X0038867Y0115363D03*
X0038867Y0123237D03*
X0184733Y0115737D03*
X0184733Y0107863D03*
D15*
X0205206Y0098414D03*
X0205206Y0125186D03*
X0018394Y0132686D03*
X0018394Y0105914D03*
D16*
X0084064Y0134300D03*
X0084064Y0139300D03*
X0084064Y0144300D03*
X0084064Y0149300D03*
X0104536Y0149300D03*
X0104536Y0144300D03*
X0104536Y0139300D03*
X0104536Y0134300D03*
X0114064Y0116800D03*
X0114064Y0111800D03*
X0114064Y0106800D03*
X0114064Y0101800D03*
X0134536Y0101800D03*
X0134536Y0106800D03*
X0134536Y0111800D03*
X0134536Y0116800D03*
D17*
X0155560Y0139300D03*
X0163040Y0139300D03*
X0128040Y0086800D03*
X0120560Y0086800D03*
D18*
X0121300Y0104300D03*
X0106300Y0110300D03*
X0068300Y0096300D03*
X0121300Y0047300D03*
D19*
X0151800Y0084300D03*
X0194300Y0074300D03*
X0191800Y0151800D03*
X0136800Y0174300D03*
X0041800Y0151800D03*
X0039300Y0079300D03*
M02*
