G75*
%MOIN*%
%OFA0B0*%
%FSLAX25Y25*%
%IPPOS*%
%LPD*%
%AMOC8*
5,1,8,0,0,1.08239X$1,22.5*
%
%ADD10C,0.01200*%
%ADD11C,0.04000*%
%ADD12C,0.01600*%
%ADD13C,0.03962*%
D10*
X0068300Y0096300D02*
X0092300Y0096300D01*
X0106300Y0110300D01*
X0121300Y0104300D02*
X0121300Y0047300D01*
D11*
X0121300Y0047300D03*
X0121300Y0104300D03*
X0106300Y0110300D03*
X0068300Y0096300D03*
D12*
X0018541Y0009100D02*
X0215059Y0009100D01*
X0214351Y0009393D01*
X0211893Y0011851D01*
X0210563Y0015062D01*
X0210563Y0018538D01*
X0211893Y0021749D01*
X0214351Y0024207D01*
X0217562Y0025537D01*
X0221038Y0025537D01*
X0224249Y0024207D01*
X0225701Y0022755D01*
X0225701Y0180845D01*
X0224249Y0179393D01*
X0221038Y0178063D01*
X0217562Y0178063D01*
X0214351Y0179393D01*
X0211893Y0181851D01*
X0210563Y0185062D01*
X0210563Y0188538D01*
X0211893Y0191749D01*
X0212105Y0191961D01*
X0018636Y0191961D01*
X0019249Y0191707D01*
X0021707Y0189249D01*
X0023037Y0186038D01*
X0023037Y0182562D01*
X0021707Y0179351D01*
X0019249Y0176893D01*
X0016038Y0175563D01*
X0012562Y0175563D01*
X0009351Y0176893D01*
X0009100Y0177144D01*
X0009100Y0023956D01*
X0009351Y0024207D01*
X0012562Y0025537D01*
X0016038Y0025537D01*
X0019249Y0024207D01*
X0021707Y0021749D01*
X0023037Y0018538D01*
X0023037Y0015062D01*
X0021707Y0011851D01*
X0019249Y0009393D01*
X0018541Y0009100D01*
X0020550Y0010694D02*
X0213050Y0010694D01*
X0211710Y0012293D02*
X0021890Y0012293D01*
X0022552Y0013891D02*
X0211048Y0013891D01*
X0210563Y0015490D02*
X0023037Y0015490D01*
X0023037Y0017088D02*
X0210563Y0017088D01*
X0210625Y0018687D02*
X0022975Y0018687D01*
X0022313Y0020285D02*
X0211287Y0020285D01*
X0212028Y0021884D02*
X0021572Y0021884D01*
X0019974Y0023482D02*
X0213626Y0023482D01*
X0216460Y0025081D02*
X0017140Y0025081D01*
X0011460Y0025081D02*
X0009100Y0025081D01*
X0009100Y0026679D02*
X0225701Y0026679D01*
X0225701Y0025081D02*
X0222140Y0025081D01*
X0224974Y0023482D02*
X0225701Y0023482D01*
X0225701Y0028278D02*
X0009100Y0028278D01*
X0009100Y0029876D02*
X0225701Y0029876D01*
X0225701Y0031475D02*
X0009100Y0031475D01*
X0009100Y0033073D02*
X0225701Y0033073D01*
X0225701Y0034672D02*
X0009100Y0034672D01*
X0009100Y0036270D02*
X0225701Y0036270D01*
X0225701Y0037869D02*
X0009100Y0037869D01*
X0009100Y0039467D02*
X0225701Y0039467D01*
X0225701Y0041066D02*
X0009100Y0041066D01*
X0009100Y0042664D02*
X0225701Y0042664D01*
X0225701Y0044263D02*
X0123637Y0044263D01*
X0123453Y0044079D02*
X0124521Y0045147D01*
X0125100Y0046544D01*
X0125100Y0048056D01*
X0124521Y0049453D01*
X0123700Y0050274D01*
X0123700Y0101326D01*
X0124521Y0102147D01*
X0125100Y0103544D01*
X0125100Y0105056D01*
X0124521Y0106453D01*
X0123453Y0107521D01*
X0122056Y0108100D01*
X0120544Y0108100D01*
X0119147Y0107521D01*
X0118079Y0106453D01*
X0117500Y0105056D01*
X0117500Y0103544D01*
X0118079Y0102147D01*
X0118900Y0101326D01*
X0118900Y0050274D01*
X0118079Y0049453D01*
X0117500Y0048056D01*
X0117500Y0046544D01*
X0118079Y0045147D01*
X0119147Y0044079D01*
X0120544Y0043500D01*
X0122056Y0043500D01*
X0123453Y0044079D01*
X0124817Y0045861D02*
X0225701Y0045861D01*
X0225701Y0047460D02*
X0125100Y0047460D01*
X0124685Y0049058D02*
X0225701Y0049058D01*
X0225701Y0050657D02*
X0123700Y0050657D01*
X0123700Y0052255D02*
X0225701Y0052255D01*
X0225701Y0053854D02*
X0123700Y0053854D01*
X0123700Y0055452D02*
X0225701Y0055452D01*
X0225701Y0057051D02*
X0123700Y0057051D01*
X0123700Y0058649D02*
X0225701Y0058649D01*
X0225701Y0060248D02*
X0123700Y0060248D01*
X0123700Y0061846D02*
X0225701Y0061846D01*
X0225701Y0063445D02*
X0123700Y0063445D01*
X0123700Y0065043D02*
X0225701Y0065043D01*
X0225701Y0066642D02*
X0123700Y0066642D01*
X0123700Y0068240D02*
X0225701Y0068240D01*
X0225701Y0069839D02*
X0123700Y0069839D01*
X0123700Y0071437D02*
X0225701Y0071437D01*
X0225701Y0073036D02*
X0123700Y0073036D01*
X0123700Y0074634D02*
X0225701Y0074634D01*
X0225701Y0076233D02*
X0123700Y0076233D01*
X0123700Y0077832D02*
X0225701Y0077832D01*
X0225701Y0079430D02*
X0123700Y0079430D01*
X0123700Y0081029D02*
X0225701Y0081029D01*
X0225701Y0082627D02*
X0123700Y0082627D01*
X0123700Y0084226D02*
X0225701Y0084226D01*
X0225701Y0085824D02*
X0123700Y0085824D01*
X0123700Y0087423D02*
X0225701Y0087423D01*
X0225701Y0089021D02*
X0123700Y0089021D01*
X0123700Y0090620D02*
X0225701Y0090620D01*
X0225701Y0092218D02*
X0123700Y0092218D01*
X0123700Y0093817D02*
X0225701Y0093817D01*
X0225701Y0095415D02*
X0123700Y0095415D01*
X0123700Y0097014D02*
X0225701Y0097014D01*
X0225701Y0098612D02*
X0123700Y0098612D01*
X0123700Y0100211D02*
X0225701Y0100211D01*
X0225701Y0101809D02*
X0124183Y0101809D01*
X0125043Y0103408D02*
X0225701Y0103408D01*
X0225701Y0105006D02*
X0125100Y0105006D01*
X0124369Y0106605D02*
X0225701Y0106605D01*
X0225701Y0108203D02*
X0109545Y0108203D01*
X0109521Y0108147D02*
X0110100Y0109544D01*
X0110100Y0111056D01*
X0109521Y0112453D01*
X0108453Y0113521D01*
X0107056Y0114100D01*
X0105544Y0114100D01*
X0104147Y0113521D01*
X0103079Y0112453D01*
X0102500Y0111056D01*
X0102500Y0109894D01*
X0091306Y0098700D01*
X0071274Y0098700D01*
X0070453Y0099521D01*
X0069056Y0100100D01*
X0067544Y0100100D01*
X0066147Y0099521D01*
X0065079Y0098453D01*
X0064500Y0097056D01*
X0064500Y0095544D01*
X0065079Y0094147D01*
X0066147Y0093079D01*
X0067544Y0092500D01*
X0069056Y0092500D01*
X0070453Y0093079D01*
X0071274Y0093900D01*
X0091823Y0093900D01*
X0092777Y0093900D01*
X0093659Y0094265D01*
X0105894Y0106500D01*
X0107056Y0106500D01*
X0108453Y0107079D01*
X0109521Y0108147D01*
X0110100Y0109802D02*
X0225701Y0109802D01*
X0225701Y0111400D02*
X0109957Y0111400D01*
X0108975Y0112999D02*
X0225701Y0112999D01*
X0225701Y0114597D02*
X0009100Y0114597D01*
X0009100Y0112999D02*
X0103625Y0112999D01*
X0102643Y0111400D02*
X0009100Y0111400D01*
X0009100Y0109802D02*
X0102408Y0109802D01*
X0100809Y0108203D02*
X0009100Y0108203D01*
X0009100Y0106605D02*
X0099211Y0106605D01*
X0097612Y0105006D02*
X0009100Y0105006D01*
X0009100Y0103408D02*
X0096014Y0103408D01*
X0094415Y0101809D02*
X0009100Y0101809D01*
X0009100Y0100211D02*
X0092817Y0100211D01*
X0096408Y0097014D02*
X0118900Y0097014D01*
X0118900Y0098612D02*
X0098006Y0098612D01*
X0099605Y0100211D02*
X0118900Y0100211D01*
X0118417Y0101809D02*
X0101203Y0101809D01*
X0102802Y0103408D02*
X0117556Y0103408D01*
X0117500Y0105006D02*
X0104400Y0105006D01*
X0107309Y0106605D02*
X0118231Y0106605D01*
X0118900Y0095415D02*
X0094809Y0095415D01*
X0071191Y0093817D02*
X0118900Y0093817D01*
X0118900Y0092218D02*
X0009100Y0092218D01*
X0009100Y0090620D02*
X0118900Y0090620D01*
X0118900Y0089021D02*
X0009100Y0089021D01*
X0009100Y0087423D02*
X0118900Y0087423D01*
X0118900Y0085824D02*
X0009100Y0085824D01*
X0009100Y0084226D02*
X0118900Y0084226D01*
X0118900Y0082627D02*
X0009100Y0082627D01*
X0009100Y0081029D02*
X0118900Y0081029D01*
X0118900Y0079430D02*
X0009100Y0079430D01*
X0009100Y0077832D02*
X0118900Y0077832D01*
X0118900Y0076233D02*
X0009100Y0076233D01*
X0009100Y0074634D02*
X0118900Y0074634D01*
X0118900Y0073036D02*
X0009100Y0073036D01*
X0009100Y0071437D02*
X0118900Y0071437D01*
X0118900Y0069839D02*
X0009100Y0069839D01*
X0009100Y0068240D02*
X0118900Y0068240D01*
X0118900Y0066642D02*
X0009100Y0066642D01*
X0009100Y0065043D02*
X0118900Y0065043D01*
X0118900Y0063445D02*
X0009100Y0063445D01*
X0009100Y0061846D02*
X0118900Y0061846D01*
X0118900Y0060248D02*
X0009100Y0060248D01*
X0009100Y0058649D02*
X0118900Y0058649D01*
X0118900Y0057051D02*
X0009100Y0057051D01*
X0009100Y0055452D02*
X0118900Y0055452D01*
X0118900Y0053854D02*
X0009100Y0053854D01*
X0009100Y0052255D02*
X0118900Y0052255D01*
X0118900Y0050657D02*
X0009100Y0050657D01*
X0009100Y0049058D02*
X0117915Y0049058D01*
X0117500Y0047460D02*
X0009100Y0047460D01*
X0009100Y0045861D02*
X0117783Y0045861D01*
X0118963Y0044263D02*
X0009100Y0044263D01*
X0009100Y0093817D02*
X0065409Y0093817D01*
X0064553Y0095415D02*
X0009100Y0095415D01*
X0009100Y0097014D02*
X0064500Y0097014D01*
X0065238Y0098612D02*
X0009100Y0098612D01*
X0009100Y0116196D02*
X0225701Y0116196D01*
X0225701Y0117794D02*
X0009100Y0117794D01*
X0009100Y0119393D02*
X0225701Y0119393D01*
X0225701Y0120991D02*
X0009100Y0120991D01*
X0009100Y0122590D02*
X0225701Y0122590D01*
X0225701Y0124188D02*
X0009100Y0124188D01*
X0009100Y0125787D02*
X0225701Y0125787D01*
X0225701Y0127385D02*
X0009100Y0127385D01*
X0009100Y0128984D02*
X0225701Y0128984D01*
X0225701Y0130582D02*
X0009100Y0130582D01*
X0009100Y0132181D02*
X0225701Y0132181D01*
X0225701Y0133779D02*
X0009100Y0133779D01*
X0009100Y0135378D02*
X0225701Y0135378D01*
X0225701Y0136976D02*
X0009100Y0136976D01*
X0009100Y0138575D02*
X0225701Y0138575D01*
X0225701Y0140173D02*
X0009100Y0140173D01*
X0009100Y0141772D02*
X0225701Y0141772D01*
X0225701Y0143370D02*
X0009100Y0143370D01*
X0009100Y0144969D02*
X0225701Y0144969D01*
X0225701Y0146568D02*
X0009100Y0146568D01*
X0009100Y0148166D02*
X0225701Y0148166D01*
X0225701Y0149765D02*
X0009100Y0149765D01*
X0009100Y0151363D02*
X0225701Y0151363D01*
X0225701Y0152962D02*
X0009100Y0152962D01*
X0009100Y0154560D02*
X0225701Y0154560D01*
X0225701Y0156159D02*
X0009100Y0156159D01*
X0009100Y0157757D02*
X0225701Y0157757D01*
X0225701Y0159356D02*
X0009100Y0159356D01*
X0009100Y0160954D02*
X0225701Y0160954D01*
X0225701Y0162553D02*
X0009100Y0162553D01*
X0009100Y0164151D02*
X0225701Y0164151D01*
X0225701Y0165750D02*
X0009100Y0165750D01*
X0009100Y0167348D02*
X0225701Y0167348D01*
X0225701Y0168947D02*
X0009100Y0168947D01*
X0009100Y0170545D02*
X0225701Y0170545D01*
X0225701Y0172144D02*
X0009100Y0172144D01*
X0009100Y0173742D02*
X0225701Y0173742D01*
X0225701Y0175341D02*
X0009100Y0175341D01*
X0009100Y0176939D02*
X0009305Y0176939D01*
X0019295Y0176939D02*
X0225701Y0176939D01*
X0225701Y0178538D02*
X0222184Y0178538D01*
X0224992Y0180136D02*
X0225701Y0180136D01*
X0216416Y0178538D02*
X0020894Y0178538D01*
X0022032Y0180136D02*
X0213608Y0180136D01*
X0212009Y0181735D02*
X0022694Y0181735D01*
X0023037Y0183333D02*
X0211279Y0183333D01*
X0210617Y0184932D02*
X0023037Y0184932D01*
X0022833Y0186530D02*
X0210563Y0186530D01*
X0210563Y0188129D02*
X0022171Y0188129D01*
X0021229Y0189727D02*
X0211056Y0189727D01*
X0211718Y0191326D02*
X0019630Y0191326D01*
D13*
X0041800Y0151800D03*
X0039300Y0079300D03*
X0136800Y0174300D03*
X0191800Y0151800D03*
X0151800Y0084300D03*
X0194300Y0074300D03*
M02*
