G75*
%MOIN*%
%OFA0B0*%
%FSLAX25Y25*%
%IPPOS*%
%LPD*%
%AMOC8*
5,1,8,0,0,1.08239X$1,22.5*
%
%ADD10C,0.00000*%
%ADD11R,0.15354X0.15354*%
%ADD12R,0.12598X0.12598*%
%ADD13R,0.05906X0.05118*%
%ADD14R,0.08000X0.02600*%
%ADD15R,0.04724X0.04724*%
%ADD16R,0.05512X0.04331*%
%ADD17R,0.04331X0.05512*%
%ADD18C,0.01200*%
%ADD19C,0.04000*%
%ADD20C,0.01600*%
%ADD21C,0.03962*%
D10*
X0006800Y0006800D02*
X0006800Y0219261D01*
X0155501Y0219261D01*
X0155501Y0006800D01*
X0006800Y0006800D01*
X0012863Y0016800D02*
X0012865Y0016925D01*
X0012871Y0017050D01*
X0012881Y0017174D01*
X0012895Y0017298D01*
X0012912Y0017422D01*
X0012934Y0017545D01*
X0012960Y0017667D01*
X0012989Y0017789D01*
X0013022Y0017909D01*
X0013060Y0018028D01*
X0013100Y0018147D01*
X0013145Y0018263D01*
X0013193Y0018378D01*
X0013245Y0018492D01*
X0013301Y0018604D01*
X0013360Y0018714D01*
X0013422Y0018822D01*
X0013488Y0018929D01*
X0013557Y0019033D01*
X0013630Y0019134D01*
X0013705Y0019234D01*
X0013784Y0019331D01*
X0013866Y0019425D01*
X0013951Y0019517D01*
X0014038Y0019606D01*
X0014129Y0019692D01*
X0014222Y0019775D01*
X0014318Y0019856D01*
X0014416Y0019933D01*
X0014516Y0020007D01*
X0014619Y0020078D01*
X0014724Y0020145D01*
X0014832Y0020210D01*
X0014941Y0020270D01*
X0015052Y0020328D01*
X0015165Y0020381D01*
X0015279Y0020431D01*
X0015395Y0020478D01*
X0015512Y0020520D01*
X0015631Y0020559D01*
X0015751Y0020595D01*
X0015872Y0020626D01*
X0015994Y0020654D01*
X0016116Y0020677D01*
X0016240Y0020697D01*
X0016364Y0020713D01*
X0016488Y0020725D01*
X0016613Y0020733D01*
X0016738Y0020737D01*
X0016862Y0020737D01*
X0016987Y0020733D01*
X0017112Y0020725D01*
X0017236Y0020713D01*
X0017360Y0020697D01*
X0017484Y0020677D01*
X0017606Y0020654D01*
X0017728Y0020626D01*
X0017849Y0020595D01*
X0017969Y0020559D01*
X0018088Y0020520D01*
X0018205Y0020478D01*
X0018321Y0020431D01*
X0018435Y0020381D01*
X0018548Y0020328D01*
X0018659Y0020270D01*
X0018769Y0020210D01*
X0018876Y0020145D01*
X0018981Y0020078D01*
X0019084Y0020007D01*
X0019184Y0019933D01*
X0019282Y0019856D01*
X0019378Y0019775D01*
X0019471Y0019692D01*
X0019562Y0019606D01*
X0019649Y0019517D01*
X0019734Y0019425D01*
X0019816Y0019331D01*
X0019895Y0019234D01*
X0019970Y0019134D01*
X0020043Y0019033D01*
X0020112Y0018929D01*
X0020178Y0018822D01*
X0020240Y0018714D01*
X0020299Y0018604D01*
X0020355Y0018492D01*
X0020407Y0018378D01*
X0020455Y0018263D01*
X0020500Y0018147D01*
X0020540Y0018028D01*
X0020578Y0017909D01*
X0020611Y0017789D01*
X0020640Y0017667D01*
X0020666Y0017545D01*
X0020688Y0017422D01*
X0020705Y0017298D01*
X0020719Y0017174D01*
X0020729Y0017050D01*
X0020735Y0016925D01*
X0020737Y0016800D01*
X0020735Y0016675D01*
X0020729Y0016550D01*
X0020719Y0016426D01*
X0020705Y0016302D01*
X0020688Y0016178D01*
X0020666Y0016055D01*
X0020640Y0015933D01*
X0020611Y0015811D01*
X0020578Y0015691D01*
X0020540Y0015572D01*
X0020500Y0015453D01*
X0020455Y0015337D01*
X0020407Y0015222D01*
X0020355Y0015108D01*
X0020299Y0014996D01*
X0020240Y0014886D01*
X0020178Y0014778D01*
X0020112Y0014671D01*
X0020043Y0014567D01*
X0019970Y0014466D01*
X0019895Y0014366D01*
X0019816Y0014269D01*
X0019734Y0014175D01*
X0019649Y0014083D01*
X0019562Y0013994D01*
X0019471Y0013908D01*
X0019378Y0013825D01*
X0019282Y0013744D01*
X0019184Y0013667D01*
X0019084Y0013593D01*
X0018981Y0013522D01*
X0018876Y0013455D01*
X0018768Y0013390D01*
X0018659Y0013330D01*
X0018548Y0013272D01*
X0018435Y0013219D01*
X0018321Y0013169D01*
X0018205Y0013122D01*
X0018088Y0013080D01*
X0017969Y0013041D01*
X0017849Y0013005D01*
X0017728Y0012974D01*
X0017606Y0012946D01*
X0017484Y0012923D01*
X0017360Y0012903D01*
X0017236Y0012887D01*
X0017112Y0012875D01*
X0016987Y0012867D01*
X0016862Y0012863D01*
X0016738Y0012863D01*
X0016613Y0012867D01*
X0016488Y0012875D01*
X0016364Y0012887D01*
X0016240Y0012903D01*
X0016116Y0012923D01*
X0015994Y0012946D01*
X0015872Y0012974D01*
X0015751Y0013005D01*
X0015631Y0013041D01*
X0015512Y0013080D01*
X0015395Y0013122D01*
X0015279Y0013169D01*
X0015165Y0013219D01*
X0015052Y0013272D01*
X0014941Y0013330D01*
X0014831Y0013390D01*
X0014724Y0013455D01*
X0014619Y0013522D01*
X0014516Y0013593D01*
X0014416Y0013667D01*
X0014318Y0013744D01*
X0014222Y0013825D01*
X0014129Y0013908D01*
X0014038Y0013994D01*
X0013951Y0014083D01*
X0013866Y0014175D01*
X0013784Y0014269D01*
X0013705Y0014366D01*
X0013630Y0014466D01*
X0013557Y0014567D01*
X0013488Y0014671D01*
X0013422Y0014778D01*
X0013360Y0014886D01*
X0013301Y0014996D01*
X0013245Y0015108D01*
X0013193Y0015222D01*
X0013145Y0015337D01*
X0013100Y0015453D01*
X0013060Y0015572D01*
X0013022Y0015691D01*
X0012989Y0015811D01*
X0012960Y0015933D01*
X0012934Y0016055D01*
X0012912Y0016178D01*
X0012895Y0016302D01*
X0012881Y0016426D01*
X0012871Y0016550D01*
X0012865Y0016675D01*
X0012863Y0016800D01*
D11*
X0056800Y0041800D03*
D12*
X0024517Y0041800D03*
X0089083Y0041800D03*
D13*
X0091800Y0093454D03*
X0091800Y0100146D03*
X0069300Y0100146D03*
X0069300Y0093454D03*
D14*
X0063900Y0129300D03*
X0063900Y0134300D03*
X0063900Y0139300D03*
X0063900Y0144300D03*
X0039700Y0144300D03*
X0039700Y0139300D03*
X0039700Y0134300D03*
X0039700Y0129300D03*
D15*
X0062666Y0186800D03*
X0070934Y0186800D03*
X0137666Y0186800D03*
X0145934Y0186800D03*
D16*
X0121800Y0160737D03*
X0121800Y0152863D03*
X0121800Y0130737D03*
X0121800Y0122863D03*
D17*
X0110737Y0186800D03*
X0102863Y0186800D03*
X0030737Y0186800D03*
X0022863Y0186800D03*
D18*
X0030737Y0186800D02*
X0031000Y0187200D01*
X0032100Y0188300D01*
X0033200Y0188300D01*
X0042000Y0179500D01*
X0068400Y0179500D01*
X0070600Y0181700D01*
X0070600Y0186100D01*
X0070934Y0186800D01*
X0064000Y0192700D02*
X0062900Y0191600D01*
X0062900Y0187200D01*
X0062666Y0186800D01*
X0064000Y0192700D02*
X0065100Y0193800D01*
X0091500Y0193800D01*
X0098100Y0187200D01*
X0102500Y0187200D01*
X0102863Y0186800D01*
X0110737Y0186800D02*
X0111300Y0187200D01*
X0136600Y0187200D01*
X0137666Y0186800D01*
X0145934Y0186800D02*
X0146500Y0186100D01*
X0146500Y0159700D01*
X0142100Y0155300D01*
X0127800Y0169600D01*
X0081600Y0169600D01*
X0060700Y0148700D01*
X0058500Y0163400D01*
X0034300Y0163400D01*
X0031000Y0147600D01*
X0031000Y0130000D01*
X0032100Y0128900D01*
X0038700Y0128900D01*
X0039700Y0129300D01*
X0039800Y0128900D01*
X0039800Y0061800D01*
X0047500Y0054100D01*
X0071700Y0054100D01*
X0083800Y0042000D01*
X0088200Y0042000D01*
X0089083Y0041800D01*
X0091800Y0100146D02*
X0091500Y0100300D01*
X0091500Y0114600D01*
X0071700Y0134400D01*
X0064000Y0134400D01*
X0063900Y0134300D01*
X0062900Y0134400D01*
X0056300Y0134400D01*
X0051900Y0138800D01*
X0039800Y0138800D01*
X0039700Y0139300D01*
X0039800Y0134400D02*
X0039700Y0134300D01*
X0039800Y0134400D02*
X0047500Y0134400D01*
X0061800Y0144300D02*
X0063900Y0144300D01*
X0061800Y0144300D02*
X0061800Y0147600D01*
X0060700Y0148700D01*
X0063900Y0139300D02*
X0064000Y0138800D01*
X0072800Y0138800D01*
X0101400Y0167400D01*
X0126700Y0167400D01*
X0128900Y0165200D01*
X0128900Y0155300D01*
X0126700Y0153100D01*
X0122300Y0153100D01*
X0121800Y0152863D01*
X0122300Y0152000D01*
X0122300Y0148700D01*
X0114600Y0141000D01*
X0114600Y0124500D01*
X0115700Y0123400D01*
X0121200Y0123400D01*
X0121800Y0122863D01*
X0121800Y0130737D02*
X0122300Y0131100D01*
X0122300Y0135500D01*
X0142100Y0155300D01*
X0121800Y0160737D02*
X0121200Y0160800D01*
X0098100Y0160800D01*
X0071700Y0134400D01*
X0065100Y0128900D02*
X0065100Y0125600D01*
X0069500Y0121200D01*
X0069500Y0100300D01*
X0069300Y0100146D01*
X0065100Y0128900D02*
X0064000Y0130000D01*
X0063900Y0129300D01*
X0047500Y0054100D02*
X0035400Y0042000D01*
X0025500Y0042000D01*
X0024517Y0041800D01*
D19*
X0047500Y0134400D03*
X0064000Y0192700D03*
D20*
X0066705Y0190031D02*
X0067221Y0190547D01*
X0067575Y0191400D01*
X0090506Y0191400D01*
X0096065Y0185841D01*
X0096741Y0185165D01*
X0097623Y0184800D01*
X0098898Y0184800D01*
X0098898Y0183298D01*
X0099952Y0182244D01*
X0105774Y0182244D01*
X0106800Y0183270D01*
X0107826Y0182244D01*
X0113648Y0182244D01*
X0114702Y0183298D01*
X0114702Y0184800D01*
X0133504Y0184800D01*
X0133504Y0183692D01*
X0134558Y0182638D01*
X0140774Y0182638D01*
X0141800Y0183664D01*
X0142826Y0182638D01*
X0144100Y0182638D01*
X0144100Y0160694D01*
X0142100Y0158694D01*
X0129835Y0170959D01*
X0129159Y0171635D01*
X0128277Y0172000D01*
X0081123Y0172000D01*
X0080241Y0171635D01*
X0062369Y0153763D01*
X0060900Y0163579D01*
X0060900Y0163877D01*
X0060830Y0164046D01*
X0060803Y0164227D01*
X0060649Y0164483D01*
X0060535Y0164759D01*
X0060405Y0164889D01*
X0060311Y0165046D01*
X0060071Y0165223D01*
X0059859Y0165435D01*
X0059690Y0165505D01*
X0059543Y0165613D01*
X0059253Y0165686D01*
X0058977Y0165800D01*
X0058794Y0165800D01*
X0058617Y0165844D01*
X0058321Y0165800D01*
X0034548Y0165800D01*
X0034323Y0165847D01*
X0034075Y0165800D01*
X0033823Y0165800D01*
X0033611Y0165712D01*
X0033385Y0165670D01*
X0033174Y0165531D01*
X0032941Y0165435D01*
X0032778Y0165272D01*
X0032586Y0165147D01*
X0032444Y0164938D01*
X0032265Y0164759D01*
X0032178Y0164548D01*
X0032048Y0164358D01*
X0031997Y0164111D01*
X0031900Y0163877D01*
X0031900Y0163648D01*
X0028697Y0148311D01*
X0028600Y0148077D01*
X0028600Y0147848D01*
X0028553Y0147623D01*
X0028600Y0147375D01*
X0028600Y0129523D01*
X0028965Y0128641D01*
X0029641Y0127965D01*
X0030741Y0126865D01*
X0031623Y0126500D01*
X0034654Y0126500D01*
X0034954Y0126200D01*
X0037400Y0126200D01*
X0037400Y0061323D01*
X0037765Y0060441D01*
X0044106Y0054100D01*
X0034406Y0044400D01*
X0032616Y0044400D01*
X0032616Y0048845D01*
X0031561Y0049899D01*
X0017472Y0049899D01*
X0016417Y0048845D01*
X0016417Y0034755D01*
X0017472Y0033701D01*
X0031561Y0033701D01*
X0032616Y0034755D01*
X0032616Y0039600D01*
X0035877Y0039600D01*
X0036759Y0039965D01*
X0048494Y0051700D01*
X0070706Y0051700D01*
X0080984Y0041422D01*
X0080984Y0034755D01*
X0082039Y0033701D01*
X0096128Y0033701D01*
X0097183Y0034755D01*
X0097183Y0048845D01*
X0096128Y0049899D01*
X0082039Y0049899D01*
X0080984Y0048845D01*
X0080984Y0048210D01*
X0073059Y0056135D01*
X0072177Y0056500D01*
X0048494Y0056500D01*
X0042200Y0062794D01*
X0042200Y0126200D01*
X0044446Y0126200D01*
X0045500Y0127254D01*
X0045500Y0131115D01*
X0046744Y0130600D01*
X0048256Y0130600D01*
X0049653Y0131179D01*
X0050721Y0132247D01*
X0051300Y0133644D01*
X0051300Y0135156D01*
X0050785Y0136400D01*
X0050906Y0136400D01*
X0054265Y0133041D01*
X0054941Y0132365D01*
X0055823Y0132000D01*
X0058354Y0132000D01*
X0058554Y0131800D01*
X0058100Y0131346D01*
X0058100Y0127254D01*
X0059154Y0126200D01*
X0062700Y0126200D01*
X0062700Y0125123D01*
X0063065Y0124241D01*
X0063741Y0123565D01*
X0067100Y0120206D01*
X0067100Y0104505D01*
X0065602Y0104505D01*
X0064547Y0103451D01*
X0064547Y0096842D01*
X0064674Y0096715D01*
X0064670Y0096707D01*
X0064547Y0096250D01*
X0064547Y0093933D01*
X0068820Y0093933D01*
X0068820Y0092974D01*
X0064547Y0092974D01*
X0064547Y0090658D01*
X0064670Y0090200D01*
X0064907Y0089789D01*
X0065242Y0089454D01*
X0065652Y0089217D01*
X0066110Y0089094D01*
X0068820Y0089094D01*
X0068820Y0092974D01*
X0069780Y0092974D01*
X0069780Y0093933D01*
X0074053Y0093933D01*
X0074053Y0096250D01*
X0073930Y0096707D01*
X0073926Y0096715D01*
X0074053Y0096842D01*
X0074053Y0103451D01*
X0072998Y0104505D01*
X0071900Y0104505D01*
X0071900Y0121677D01*
X0071535Y0122559D01*
X0067894Y0126200D01*
X0068646Y0126200D01*
X0069700Y0127254D01*
X0069700Y0131346D01*
X0069246Y0131800D01*
X0069446Y0132000D01*
X0070706Y0132000D01*
X0089100Y0113606D01*
X0089100Y0104505D01*
X0088102Y0104505D01*
X0087047Y0103451D01*
X0087047Y0096842D01*
X0087174Y0096715D01*
X0087170Y0096707D01*
X0087047Y0096250D01*
X0087047Y0093933D01*
X0091320Y0093933D01*
X0091320Y0092974D01*
X0087047Y0092974D01*
X0087047Y0090658D01*
X0087170Y0090200D01*
X0087407Y0089789D01*
X0087742Y0089454D01*
X0088152Y0089217D01*
X0088610Y0089094D01*
X0091320Y0089094D01*
X0091320Y0092974D01*
X0092280Y0092974D01*
X0092280Y0093933D01*
X0096553Y0093933D01*
X0096553Y0096250D01*
X0096430Y0096707D01*
X0096426Y0096715D01*
X0096553Y0096842D01*
X0096553Y0103451D01*
X0095498Y0104505D01*
X0093900Y0104505D01*
X0093900Y0115077D01*
X0093535Y0115959D01*
X0075094Y0134400D01*
X0099094Y0158400D01*
X0117244Y0158400D01*
X0117244Y0157826D01*
X0118270Y0156800D01*
X0117244Y0155774D01*
X0117244Y0149952D01*
X0118298Y0148898D01*
X0119104Y0148898D01*
X0112565Y0142359D01*
X0112200Y0141477D01*
X0112200Y0124023D01*
X0112565Y0123141D01*
X0113241Y0122465D01*
X0114341Y0121365D01*
X0115223Y0121000D01*
X0117244Y0121000D01*
X0117244Y0119952D01*
X0118298Y0118898D01*
X0125301Y0118898D01*
X0126356Y0119952D01*
X0126356Y0125774D01*
X0125330Y0126800D01*
X0126356Y0127826D01*
X0126356Y0133648D01*
X0125301Y0134702D01*
X0124896Y0134702D01*
X0143459Y0153265D01*
X0144135Y0153941D01*
X0148535Y0158341D01*
X0148900Y0159223D01*
X0148900Y0182638D01*
X0149042Y0182638D01*
X0150096Y0183692D01*
X0150096Y0189908D01*
X0149042Y0190962D01*
X0142826Y0190962D01*
X0141800Y0189936D01*
X0140774Y0190962D01*
X0134558Y0190962D01*
X0133504Y0189908D01*
X0133504Y0189600D01*
X0114702Y0189600D01*
X0114702Y0190301D01*
X0113648Y0191356D01*
X0107826Y0191356D01*
X0106800Y0190330D01*
X0105774Y0191356D01*
X0099952Y0191356D01*
X0098898Y0190301D01*
X0098898Y0189796D01*
X0092859Y0195835D01*
X0091977Y0196200D01*
X0065480Y0196200D01*
X0064756Y0196500D01*
X0063244Y0196500D01*
X0061847Y0195921D01*
X0060779Y0194853D01*
X0060200Y0193456D01*
X0060200Y0191944D01*
X0060500Y0191220D01*
X0060500Y0190962D01*
X0059558Y0190962D01*
X0058504Y0189908D01*
X0058504Y0183692D01*
X0059558Y0182638D01*
X0065774Y0182638D01*
X0066800Y0183664D01*
X0067826Y0182638D01*
X0068144Y0182638D01*
X0067406Y0181900D01*
X0042994Y0181900D01*
X0035235Y0189659D01*
X0034702Y0190192D01*
X0034702Y0190301D01*
X0033648Y0191356D01*
X0027826Y0191356D01*
X0026772Y0190301D01*
X0026772Y0190004D01*
X0026706Y0190251D01*
X0026469Y0190661D01*
X0026134Y0190996D01*
X0025723Y0191233D01*
X0025265Y0191356D01*
X0023146Y0191356D01*
X0023146Y0187083D01*
X0022580Y0187083D01*
X0022580Y0191356D01*
X0020461Y0191356D01*
X0020003Y0191233D01*
X0019592Y0190996D01*
X0019257Y0190661D01*
X0019020Y0190251D01*
X0018898Y0189793D01*
X0018898Y0187083D01*
X0022580Y0187083D01*
X0022580Y0186517D01*
X0023146Y0186517D01*
X0023146Y0182244D01*
X0025265Y0182244D01*
X0025723Y0182367D01*
X0026134Y0182604D01*
X0026469Y0182939D01*
X0026706Y0183349D01*
X0026772Y0183596D01*
X0026772Y0183298D01*
X0027826Y0182244D01*
X0033648Y0182244D01*
X0034702Y0183298D01*
X0034702Y0183404D01*
X0040641Y0177465D01*
X0041523Y0177100D01*
X0068877Y0177100D01*
X0069759Y0177465D01*
X0070435Y0178141D01*
X0072635Y0180341D01*
X0073000Y0181223D01*
X0073000Y0182638D01*
X0074042Y0182638D01*
X0075096Y0183692D01*
X0075096Y0189908D01*
X0074042Y0190962D01*
X0067826Y0190962D01*
X0066800Y0189936D01*
X0066705Y0190031D01*
X0067255Y0190629D02*
X0067493Y0190629D01*
X0068142Y0182636D02*
X0042258Y0182636D01*
X0040659Y0184235D02*
X0058504Y0184235D01*
X0058504Y0185833D02*
X0039061Y0185833D01*
X0037462Y0187432D02*
X0058504Y0187432D01*
X0058504Y0189030D02*
X0035864Y0189030D01*
X0034375Y0190629D02*
X0059225Y0190629D01*
X0060200Y0192227D02*
X0011600Y0192227D01*
X0011600Y0190629D02*
X0019239Y0190629D01*
X0018898Y0189030D02*
X0011600Y0189030D01*
X0011600Y0187432D02*
X0018898Y0187432D01*
X0018898Y0186517D02*
X0018898Y0183807D01*
X0019020Y0183349D01*
X0019257Y0182939D01*
X0019592Y0182604D01*
X0020003Y0182367D01*
X0020461Y0182244D01*
X0022580Y0182244D01*
X0022580Y0186517D01*
X0018898Y0186517D01*
X0018898Y0185833D02*
X0011600Y0185833D01*
X0011600Y0184235D02*
X0018898Y0184235D01*
X0019560Y0182636D02*
X0011600Y0182636D01*
X0011600Y0181038D02*
X0037068Y0181038D01*
X0035470Y0182636D02*
X0034040Y0182636D01*
X0038667Y0179439D02*
X0011600Y0179439D01*
X0011600Y0177841D02*
X0040265Y0177841D01*
X0032522Y0165053D02*
X0011600Y0165053D01*
X0011600Y0166651D02*
X0075257Y0166651D01*
X0073659Y0165053D02*
X0060302Y0165053D01*
X0060919Y0163454D02*
X0072060Y0163454D01*
X0070461Y0161856D02*
X0061158Y0161856D01*
X0061397Y0160257D02*
X0068863Y0160257D01*
X0067264Y0158659D02*
X0061636Y0158659D01*
X0061876Y0157060D02*
X0065666Y0157060D01*
X0064067Y0155462D02*
X0062115Y0155462D01*
X0062354Y0153863D02*
X0062469Y0153863D01*
X0057501Y0153863D02*
X0034760Y0153863D01*
X0034426Y0152265D02*
X0057740Y0152265D01*
X0057979Y0150666D02*
X0034092Y0150666D01*
X0033758Y0149068D02*
X0058218Y0149068D01*
X0058300Y0148521D02*
X0058300Y0148223D01*
X0058370Y0148054D01*
X0058397Y0147873D01*
X0058551Y0147617D01*
X0058665Y0147341D01*
X0058795Y0147211D01*
X0058859Y0147104D01*
X0058100Y0146346D01*
X0058100Y0142254D01*
X0058554Y0141800D01*
X0058100Y0141346D01*
X0058100Y0137254D01*
X0058554Y0136800D01*
X0057294Y0136800D01*
X0053259Y0140835D01*
X0052377Y0141200D01*
X0045500Y0141200D01*
X0045500Y0141346D01*
X0045046Y0141800D01*
X0045140Y0141895D01*
X0045377Y0142305D01*
X0045500Y0142763D01*
X0045500Y0144300D01*
X0045500Y0145837D01*
X0045377Y0146295D01*
X0045140Y0146705D01*
X0044805Y0147040D01*
X0044395Y0147277D01*
X0043937Y0147400D01*
X0039700Y0147400D01*
X0039700Y0144300D01*
X0039700Y0144300D01*
X0045500Y0144300D01*
X0039700Y0144300D01*
X0039700Y0144300D01*
X0039700Y0144300D01*
X0033900Y0144300D01*
X0033900Y0145837D01*
X0034023Y0146295D01*
X0034260Y0146705D01*
X0034595Y0147040D01*
X0035005Y0147277D01*
X0035463Y0147400D01*
X0039700Y0147400D01*
X0039700Y0144300D01*
X0033900Y0144300D01*
X0033900Y0142763D01*
X0034023Y0142305D01*
X0034260Y0141895D01*
X0034354Y0141800D01*
X0033900Y0141346D01*
X0033900Y0137254D01*
X0034354Y0136800D01*
X0033900Y0136346D01*
X0033900Y0132254D01*
X0034354Y0131800D01*
X0033900Y0131346D01*
X0033900Y0131300D01*
X0033400Y0131300D01*
X0033400Y0147352D01*
X0036251Y0161000D01*
X0056432Y0161000D01*
X0058300Y0148521D01*
X0058612Y0147469D02*
X0033424Y0147469D01*
X0033400Y0145870D02*
X0033909Y0145870D01*
X0033900Y0144272D02*
X0033400Y0144272D01*
X0033400Y0142673D02*
X0033924Y0142673D01*
X0033900Y0141075D02*
X0033400Y0141075D01*
X0033400Y0139476D02*
X0033900Y0139476D01*
X0033900Y0137878D02*
X0033400Y0137878D01*
X0033400Y0136279D02*
X0033900Y0136279D01*
X0033900Y0134681D02*
X0033400Y0134681D01*
X0033400Y0133082D02*
X0033900Y0133082D01*
X0034038Y0131484D02*
X0033400Y0131484D01*
X0031168Y0126688D02*
X0011600Y0126688D01*
X0011600Y0125090D02*
X0037400Y0125090D01*
X0037400Y0123491D02*
X0011600Y0123491D01*
X0011600Y0121893D02*
X0037400Y0121893D01*
X0037400Y0120294D02*
X0011600Y0120294D01*
X0011600Y0118696D02*
X0037400Y0118696D01*
X0037400Y0117097D02*
X0011600Y0117097D01*
X0011600Y0115499D02*
X0037400Y0115499D01*
X0037400Y0113900D02*
X0011600Y0113900D01*
X0011600Y0112302D02*
X0037400Y0112302D01*
X0037400Y0110703D02*
X0011600Y0110703D01*
X0011600Y0109105D02*
X0037400Y0109105D01*
X0037400Y0107506D02*
X0011600Y0107506D01*
X0011600Y0105908D02*
X0037400Y0105908D01*
X0037400Y0104309D02*
X0011600Y0104309D01*
X0011600Y0102711D02*
X0037400Y0102711D01*
X0037400Y0101112D02*
X0011600Y0101112D01*
X0011600Y0099514D02*
X0037400Y0099514D01*
X0037400Y0097915D02*
X0011600Y0097915D01*
X0011600Y0096317D02*
X0037400Y0096317D01*
X0037400Y0094718D02*
X0011600Y0094718D01*
X0011600Y0093120D02*
X0037400Y0093120D01*
X0037400Y0091521D02*
X0011600Y0091521D01*
X0011600Y0089923D02*
X0037400Y0089923D01*
X0037400Y0088324D02*
X0011600Y0088324D01*
X0011600Y0086726D02*
X0037400Y0086726D01*
X0037400Y0085127D02*
X0011600Y0085127D01*
X0011600Y0083529D02*
X0037400Y0083529D01*
X0037400Y0081930D02*
X0011600Y0081930D01*
X0011600Y0080332D02*
X0037400Y0080332D01*
X0037400Y0078733D02*
X0011600Y0078733D01*
X0011600Y0077134D02*
X0037400Y0077134D01*
X0037400Y0075536D02*
X0011600Y0075536D01*
X0011600Y0073937D02*
X0037400Y0073937D01*
X0037400Y0072339D02*
X0011600Y0072339D01*
X0011600Y0070740D02*
X0037400Y0070740D01*
X0037400Y0069142D02*
X0011600Y0069142D01*
X0011600Y0067543D02*
X0037400Y0067543D01*
X0037400Y0065945D02*
X0011600Y0065945D01*
X0011600Y0064346D02*
X0037400Y0064346D01*
X0037400Y0062748D02*
X0011600Y0062748D01*
X0011600Y0061149D02*
X0037472Y0061149D01*
X0038655Y0059551D02*
X0011600Y0059551D01*
X0011600Y0057952D02*
X0040254Y0057952D01*
X0041852Y0056354D02*
X0011600Y0056354D01*
X0011600Y0054755D02*
X0043451Y0054755D01*
X0043163Y0053157D02*
X0011600Y0053157D01*
X0011600Y0051558D02*
X0041564Y0051558D01*
X0039966Y0049960D02*
X0011600Y0049960D01*
X0011600Y0048361D02*
X0016417Y0048361D01*
X0016417Y0046763D02*
X0011600Y0046763D01*
X0011600Y0045164D02*
X0016417Y0045164D01*
X0016417Y0043566D02*
X0011600Y0043566D01*
X0011600Y0041967D02*
X0016417Y0041967D01*
X0016417Y0040369D02*
X0011600Y0040369D01*
X0011600Y0038770D02*
X0016417Y0038770D01*
X0016417Y0037172D02*
X0011600Y0037172D01*
X0011600Y0035573D02*
X0016417Y0035573D01*
X0017198Y0033975D02*
X0011600Y0033975D01*
X0011600Y0032376D02*
X0048687Y0032376D01*
X0048886Y0032323D02*
X0056000Y0032323D01*
X0056000Y0041000D01*
X0047323Y0041000D01*
X0047323Y0033886D01*
X0047445Y0033428D01*
X0047682Y0033018D01*
X0048018Y0032682D01*
X0048428Y0032445D01*
X0048886Y0032323D01*
X0047323Y0033975D02*
X0031835Y0033975D01*
X0032616Y0035573D02*
X0047323Y0035573D01*
X0047323Y0037172D02*
X0032616Y0037172D01*
X0032616Y0038770D02*
X0047323Y0038770D01*
X0047323Y0040369D02*
X0037163Y0040369D01*
X0038761Y0041967D02*
X0056000Y0041967D01*
X0056000Y0042600D02*
X0056000Y0041000D01*
X0057600Y0041000D01*
X0057600Y0042600D01*
X0056000Y0042600D01*
X0056000Y0051277D01*
X0048886Y0051277D01*
X0048428Y0051154D01*
X0048018Y0050918D01*
X0047682Y0050582D01*
X0047445Y0050172D01*
X0047323Y0049714D01*
X0047323Y0042600D01*
X0056000Y0042600D01*
X0056000Y0043566D02*
X0057600Y0043566D01*
X0057600Y0042600D02*
X0057600Y0051277D01*
X0064714Y0051277D01*
X0065172Y0051154D01*
X0065582Y0050918D01*
X0065918Y0050582D01*
X0066154Y0050172D01*
X0066277Y0049714D01*
X0066277Y0042600D01*
X0057600Y0042600D01*
X0057600Y0041967D02*
X0080439Y0041967D01*
X0080984Y0040369D02*
X0066277Y0040369D01*
X0066277Y0041000D02*
X0057600Y0041000D01*
X0057600Y0032323D01*
X0064714Y0032323D01*
X0065172Y0032445D01*
X0065582Y0032682D01*
X0065918Y0033018D01*
X0066154Y0033428D01*
X0066277Y0033886D01*
X0066277Y0041000D01*
X0066277Y0038770D02*
X0080984Y0038770D01*
X0080984Y0037172D02*
X0066277Y0037172D01*
X0066277Y0035573D02*
X0080984Y0035573D01*
X0081765Y0033975D02*
X0066277Y0033975D01*
X0064913Y0032376D02*
X0150701Y0032376D01*
X0150701Y0030778D02*
X0011600Y0030778D01*
X0011600Y0029179D02*
X0150701Y0029179D01*
X0150701Y0027581D02*
X0011600Y0027581D01*
X0011600Y0025982D02*
X0150701Y0025982D01*
X0150701Y0024384D02*
X0021322Y0024384D01*
X0021749Y0024207D02*
X0018538Y0025537D01*
X0015062Y0025537D01*
X0011851Y0024207D01*
X0011600Y0023956D01*
X0011600Y0214461D01*
X0150701Y0214461D01*
X0150701Y0011600D01*
X0023956Y0011600D01*
X0024207Y0011851D01*
X0025537Y0015062D01*
X0025537Y0018538D01*
X0024207Y0021749D01*
X0021749Y0024207D01*
X0023171Y0022785D02*
X0150701Y0022785D01*
X0150701Y0021187D02*
X0024440Y0021187D01*
X0025102Y0019588D02*
X0150701Y0019588D01*
X0150701Y0017990D02*
X0025537Y0017990D01*
X0025537Y0016391D02*
X0150701Y0016391D01*
X0150701Y0014793D02*
X0025425Y0014793D01*
X0024763Y0013194D02*
X0150701Y0013194D01*
X0150701Y0033975D02*
X0096402Y0033975D01*
X0097183Y0035573D02*
X0150701Y0035573D01*
X0150701Y0037172D02*
X0097183Y0037172D01*
X0097183Y0038770D02*
X0150701Y0038770D01*
X0150701Y0040369D02*
X0097183Y0040369D01*
X0097183Y0041967D02*
X0150701Y0041967D01*
X0150701Y0043566D02*
X0097183Y0043566D01*
X0097183Y0045164D02*
X0150701Y0045164D01*
X0150701Y0046763D02*
X0097183Y0046763D01*
X0097183Y0048361D02*
X0150701Y0048361D01*
X0150701Y0049960D02*
X0079234Y0049960D01*
X0077636Y0051558D02*
X0150701Y0051558D01*
X0150701Y0053157D02*
X0076037Y0053157D01*
X0074439Y0054755D02*
X0150701Y0054755D01*
X0150701Y0056354D02*
X0072530Y0056354D01*
X0070848Y0051558D02*
X0048352Y0051558D01*
X0047389Y0049960D02*
X0046754Y0049960D01*
X0047323Y0048361D02*
X0045155Y0048361D01*
X0043557Y0046763D02*
X0047323Y0046763D01*
X0047323Y0045164D02*
X0041958Y0045164D01*
X0040360Y0043566D02*
X0047323Y0043566D01*
X0038367Y0048361D02*
X0032616Y0048361D01*
X0032616Y0046763D02*
X0036769Y0046763D01*
X0035170Y0045164D02*
X0032616Y0045164D01*
X0043845Y0061149D02*
X0150701Y0061149D01*
X0150701Y0059551D02*
X0045443Y0059551D01*
X0047042Y0057952D02*
X0150701Y0057952D01*
X0150701Y0062748D02*
X0042246Y0062748D01*
X0042200Y0064346D02*
X0150701Y0064346D01*
X0150701Y0065945D02*
X0042200Y0065945D01*
X0042200Y0067543D02*
X0150701Y0067543D01*
X0150701Y0069142D02*
X0042200Y0069142D01*
X0042200Y0070740D02*
X0150701Y0070740D01*
X0150701Y0072339D02*
X0042200Y0072339D01*
X0042200Y0073937D02*
X0150701Y0073937D01*
X0150701Y0075536D02*
X0042200Y0075536D01*
X0042200Y0077134D02*
X0150701Y0077134D01*
X0150701Y0078733D02*
X0042200Y0078733D01*
X0042200Y0080332D02*
X0150701Y0080332D01*
X0150701Y0081930D02*
X0042200Y0081930D01*
X0042200Y0083529D02*
X0150701Y0083529D01*
X0150701Y0085127D02*
X0042200Y0085127D01*
X0042200Y0086726D02*
X0150701Y0086726D01*
X0150701Y0088324D02*
X0042200Y0088324D01*
X0042200Y0089923D02*
X0064830Y0089923D01*
X0064547Y0091521D02*
X0042200Y0091521D01*
X0042200Y0093120D02*
X0068820Y0093120D01*
X0069780Y0093120D02*
X0091320Y0093120D01*
X0092280Y0093120D02*
X0150701Y0093120D01*
X0150701Y0094718D02*
X0096553Y0094718D01*
X0096535Y0096317D02*
X0150701Y0096317D01*
X0150701Y0097915D02*
X0096553Y0097915D01*
X0096553Y0099514D02*
X0150701Y0099514D01*
X0150701Y0101112D02*
X0096553Y0101112D01*
X0096553Y0102711D02*
X0150701Y0102711D01*
X0150701Y0104309D02*
X0095695Y0104309D01*
X0093900Y0105908D02*
X0150701Y0105908D01*
X0150701Y0107506D02*
X0093900Y0107506D01*
X0093900Y0109105D02*
X0150701Y0109105D01*
X0150701Y0110703D02*
X0093900Y0110703D01*
X0093900Y0112302D02*
X0150701Y0112302D01*
X0150701Y0113900D02*
X0093900Y0113900D01*
X0093725Y0115499D02*
X0150701Y0115499D01*
X0150701Y0117097D02*
X0092397Y0117097D01*
X0090798Y0118696D02*
X0150701Y0118696D01*
X0150701Y0120294D02*
X0126356Y0120294D01*
X0126356Y0121893D02*
X0150701Y0121893D01*
X0150701Y0123491D02*
X0126356Y0123491D01*
X0126356Y0125090D02*
X0150701Y0125090D01*
X0150701Y0126688D02*
X0125441Y0126688D01*
X0126356Y0128287D02*
X0150701Y0128287D01*
X0150701Y0129885D02*
X0126356Y0129885D01*
X0126356Y0131484D02*
X0150701Y0131484D01*
X0150701Y0133082D02*
X0126356Y0133082D01*
X0125323Y0134681D02*
X0150701Y0134681D01*
X0150701Y0136279D02*
X0126474Y0136279D01*
X0128072Y0137878D02*
X0150701Y0137878D01*
X0150701Y0139476D02*
X0129671Y0139476D01*
X0131269Y0141075D02*
X0150701Y0141075D01*
X0150701Y0142673D02*
X0132868Y0142673D01*
X0134466Y0144272D02*
X0150701Y0144272D01*
X0150701Y0145870D02*
X0136065Y0145870D01*
X0137663Y0147469D02*
X0150701Y0147469D01*
X0150701Y0149068D02*
X0139262Y0149068D01*
X0140860Y0150666D02*
X0150701Y0150666D01*
X0150701Y0152265D02*
X0142459Y0152265D01*
X0143459Y0153265D02*
X0143459Y0153265D01*
X0144057Y0153863D02*
X0150701Y0153863D01*
X0150701Y0155462D02*
X0145656Y0155462D01*
X0144135Y0153941D02*
X0144135Y0153941D01*
X0147254Y0157060D02*
X0150701Y0157060D01*
X0150701Y0158659D02*
X0148666Y0158659D01*
X0148900Y0160257D02*
X0150701Y0160257D01*
X0150701Y0161856D02*
X0148900Y0161856D01*
X0148900Y0163454D02*
X0150701Y0163454D01*
X0150701Y0165053D02*
X0148900Y0165053D01*
X0148900Y0166651D02*
X0150701Y0166651D01*
X0150701Y0168250D02*
X0148900Y0168250D01*
X0148900Y0169848D02*
X0150701Y0169848D01*
X0150701Y0171447D02*
X0148900Y0171447D01*
X0148900Y0173045D02*
X0150701Y0173045D01*
X0150701Y0174644D02*
X0148900Y0174644D01*
X0148900Y0176242D02*
X0150701Y0176242D01*
X0150701Y0177841D02*
X0148900Y0177841D01*
X0148900Y0179439D02*
X0150701Y0179439D01*
X0150701Y0181038D02*
X0148900Y0181038D01*
X0148900Y0182636D02*
X0150701Y0182636D01*
X0150701Y0184235D02*
X0150096Y0184235D01*
X0150096Y0185833D02*
X0150701Y0185833D01*
X0150701Y0187432D02*
X0150096Y0187432D01*
X0150096Y0189030D02*
X0150701Y0189030D01*
X0150701Y0190629D02*
X0149375Y0190629D01*
X0150701Y0192227D02*
X0096467Y0192227D01*
X0098065Y0190629D02*
X0099225Y0190629D01*
X0096073Y0185833D02*
X0075096Y0185833D01*
X0075096Y0184235D02*
X0098898Y0184235D01*
X0099560Y0182636D02*
X0073000Y0182636D01*
X0072923Y0181038D02*
X0144100Y0181038D01*
X0144100Y0182636D02*
X0114040Y0182636D01*
X0114702Y0184235D02*
X0133504Y0184235D01*
X0134225Y0190629D02*
X0114375Y0190629D01*
X0107099Y0190629D02*
X0106501Y0190629D01*
X0106166Y0182636D02*
X0107434Y0182636D01*
X0094474Y0187432D02*
X0075096Y0187432D01*
X0075096Y0189030D02*
X0092876Y0189030D01*
X0091277Y0190629D02*
X0074375Y0190629D01*
X0071733Y0179439D02*
X0144100Y0179439D01*
X0144100Y0177841D02*
X0070135Y0177841D01*
X0076856Y0168250D02*
X0011600Y0168250D01*
X0011600Y0169848D02*
X0078454Y0169848D01*
X0080053Y0171447D02*
X0011600Y0171447D01*
X0011600Y0173045D02*
X0144100Y0173045D01*
X0144100Y0171447D02*
X0129347Y0171447D01*
X0130946Y0169848D02*
X0144100Y0169848D01*
X0144100Y0168250D02*
X0132544Y0168250D01*
X0134143Y0166651D02*
X0144100Y0166651D01*
X0144100Y0165053D02*
X0135741Y0165053D01*
X0137340Y0163454D02*
X0144100Y0163454D01*
X0144100Y0161856D02*
X0138938Y0161856D01*
X0140537Y0160257D02*
X0143663Y0160257D01*
X0144100Y0174644D02*
X0011600Y0174644D01*
X0011600Y0176242D02*
X0144100Y0176242D01*
X0142493Y0190629D02*
X0141107Y0190629D01*
X0150701Y0193826D02*
X0094868Y0193826D01*
X0093270Y0195424D02*
X0150701Y0195424D01*
X0150701Y0197023D02*
X0011600Y0197023D01*
X0011600Y0198621D02*
X0150701Y0198621D01*
X0150701Y0200220D02*
X0011600Y0200220D01*
X0011600Y0201818D02*
X0150701Y0201818D01*
X0150701Y0203417D02*
X0011600Y0203417D01*
X0011600Y0205015D02*
X0150701Y0205015D01*
X0150701Y0206614D02*
X0011600Y0206614D01*
X0011600Y0208212D02*
X0150701Y0208212D01*
X0150701Y0209811D02*
X0011600Y0209811D01*
X0011600Y0211409D02*
X0150701Y0211409D01*
X0150701Y0213008D02*
X0011600Y0213008D01*
X0011600Y0195424D02*
X0061350Y0195424D01*
X0060353Y0193826D02*
X0011600Y0193826D01*
X0022580Y0190629D02*
X0023146Y0190629D01*
X0023146Y0189030D02*
X0022580Y0189030D01*
X0022580Y0187432D02*
X0023146Y0187432D01*
X0023146Y0185833D02*
X0022580Y0185833D01*
X0022580Y0184235D02*
X0023146Y0184235D01*
X0023146Y0182636D02*
X0022580Y0182636D01*
X0026166Y0182636D02*
X0027434Y0182636D01*
X0027099Y0190629D02*
X0026487Y0190629D01*
X0031860Y0163454D02*
X0011600Y0163454D01*
X0011600Y0161856D02*
X0031526Y0161856D01*
X0031192Y0160257D02*
X0011600Y0160257D01*
X0011600Y0158659D02*
X0030858Y0158659D01*
X0030524Y0157060D02*
X0011600Y0157060D01*
X0011600Y0155462D02*
X0030190Y0155462D01*
X0029856Y0153863D02*
X0011600Y0153863D01*
X0011600Y0152265D02*
X0029522Y0152265D01*
X0029189Y0150666D02*
X0011600Y0150666D01*
X0011600Y0149068D02*
X0028855Y0149068D01*
X0028582Y0147469D02*
X0011600Y0147469D01*
X0011600Y0145870D02*
X0028600Y0145870D01*
X0028600Y0144272D02*
X0011600Y0144272D01*
X0011600Y0142673D02*
X0028600Y0142673D01*
X0028600Y0141075D02*
X0011600Y0141075D01*
X0011600Y0139476D02*
X0028600Y0139476D01*
X0028600Y0137878D02*
X0011600Y0137878D01*
X0011600Y0136279D02*
X0028600Y0136279D01*
X0028600Y0134681D02*
X0011600Y0134681D01*
X0011600Y0133082D02*
X0028600Y0133082D01*
X0028600Y0131484D02*
X0011600Y0131484D01*
X0011600Y0129885D02*
X0028600Y0129885D01*
X0029319Y0128287D02*
X0011600Y0128287D01*
X0035094Y0155462D02*
X0057261Y0155462D01*
X0057022Y0157060D02*
X0035428Y0157060D01*
X0035761Y0158659D02*
X0056783Y0158659D01*
X0056544Y0160257D02*
X0036095Y0160257D01*
X0039700Y0145870D02*
X0039700Y0145870D01*
X0045491Y0145870D02*
X0058100Y0145870D01*
X0058100Y0144272D02*
X0045500Y0144272D01*
X0045476Y0142673D02*
X0058100Y0142673D01*
X0058100Y0141075D02*
X0052679Y0141075D01*
X0054618Y0139476D02*
X0058100Y0139476D01*
X0058100Y0137878D02*
X0056216Y0137878D01*
X0058554Y0136800D02*
X0058554Y0136800D01*
X0058238Y0131484D02*
X0049958Y0131484D01*
X0051067Y0133082D02*
X0054223Y0133082D01*
X0052625Y0134681D02*
X0051300Y0134681D01*
X0051026Y0136279D02*
X0050835Y0136279D01*
X0045500Y0129885D02*
X0058100Y0129885D01*
X0058100Y0128287D02*
X0045500Y0128287D01*
X0044934Y0126688D02*
X0058666Y0126688D01*
X0062714Y0125090D02*
X0042200Y0125090D01*
X0042200Y0123491D02*
X0063815Y0123491D01*
X0065413Y0121893D02*
X0042200Y0121893D01*
X0042200Y0120294D02*
X0067012Y0120294D01*
X0067100Y0118696D02*
X0042200Y0118696D01*
X0042200Y0117097D02*
X0067100Y0117097D01*
X0067100Y0115499D02*
X0042200Y0115499D01*
X0042200Y0113900D02*
X0067100Y0113900D01*
X0067100Y0112302D02*
X0042200Y0112302D01*
X0042200Y0110703D02*
X0067100Y0110703D01*
X0067100Y0109105D02*
X0042200Y0109105D01*
X0042200Y0107506D02*
X0067100Y0107506D01*
X0067100Y0105908D02*
X0042200Y0105908D01*
X0042200Y0104309D02*
X0065405Y0104309D01*
X0064547Y0102711D02*
X0042200Y0102711D01*
X0042200Y0101112D02*
X0064547Y0101112D01*
X0064547Y0099514D02*
X0042200Y0099514D01*
X0042200Y0097915D02*
X0064547Y0097915D01*
X0064565Y0096317D02*
X0042200Y0096317D01*
X0042200Y0094718D02*
X0064547Y0094718D01*
X0068820Y0091521D02*
X0069780Y0091521D01*
X0069780Y0092974D02*
X0069780Y0089094D01*
X0072490Y0089094D01*
X0072948Y0089217D01*
X0073358Y0089454D01*
X0073693Y0089789D01*
X0073930Y0090200D01*
X0074053Y0090658D01*
X0074053Y0092974D01*
X0069780Y0092974D01*
X0069780Y0089923D02*
X0068820Y0089923D01*
X0073770Y0089923D02*
X0087330Y0089923D01*
X0087047Y0091521D02*
X0074053Y0091521D01*
X0074053Y0094718D02*
X0087047Y0094718D01*
X0087065Y0096317D02*
X0074035Y0096317D01*
X0074053Y0097915D02*
X0087047Y0097915D01*
X0087047Y0099514D02*
X0074053Y0099514D01*
X0074053Y0101112D02*
X0087047Y0101112D01*
X0087047Y0102711D02*
X0074053Y0102711D01*
X0073195Y0104309D02*
X0087905Y0104309D01*
X0089100Y0105908D02*
X0071900Y0105908D01*
X0071900Y0107506D02*
X0089100Y0107506D01*
X0089100Y0109105D02*
X0071900Y0109105D01*
X0071900Y0110703D02*
X0089100Y0110703D01*
X0089100Y0112302D02*
X0071900Y0112302D01*
X0071900Y0113900D02*
X0088806Y0113900D01*
X0087207Y0115499D02*
X0071900Y0115499D01*
X0071900Y0117097D02*
X0085609Y0117097D01*
X0084010Y0118696D02*
X0071900Y0118696D01*
X0071900Y0120294D02*
X0082412Y0120294D01*
X0080813Y0121893D02*
X0071811Y0121893D01*
X0070603Y0123491D02*
X0079215Y0123491D01*
X0077616Y0125090D02*
X0069004Y0125090D01*
X0069134Y0126688D02*
X0076018Y0126688D01*
X0074419Y0128287D02*
X0069700Y0128287D01*
X0069700Y0129885D02*
X0072821Y0129885D01*
X0071222Y0131484D02*
X0069562Y0131484D01*
X0075375Y0134681D02*
X0112200Y0134681D01*
X0112200Y0136279D02*
X0076974Y0136279D01*
X0078572Y0137878D02*
X0112200Y0137878D01*
X0112200Y0139476D02*
X0080171Y0139476D01*
X0081769Y0141075D02*
X0112200Y0141075D01*
X0112879Y0142673D02*
X0083368Y0142673D01*
X0084966Y0144272D02*
X0114478Y0144272D01*
X0116076Y0145870D02*
X0086565Y0145870D01*
X0088163Y0147469D02*
X0117675Y0147469D01*
X0118129Y0149068D02*
X0089762Y0149068D01*
X0091360Y0150666D02*
X0117244Y0150666D01*
X0117244Y0152265D02*
X0092959Y0152265D01*
X0094557Y0153863D02*
X0117244Y0153863D01*
X0117244Y0155462D02*
X0096156Y0155462D01*
X0097754Y0157060D02*
X0118010Y0157060D01*
X0112200Y0133082D02*
X0076412Y0133082D01*
X0078010Y0131484D02*
X0112200Y0131484D01*
X0112200Y0129885D02*
X0079609Y0129885D01*
X0081207Y0128287D02*
X0112200Y0128287D01*
X0112200Y0126688D02*
X0082806Y0126688D01*
X0084404Y0125090D02*
X0112200Y0125090D01*
X0112420Y0123491D02*
X0086003Y0123491D01*
X0087601Y0121893D02*
X0113813Y0121893D01*
X0117244Y0120294D02*
X0089200Y0120294D01*
X0092280Y0092974D02*
X0096553Y0092974D01*
X0096553Y0090658D01*
X0096430Y0090200D01*
X0096193Y0089789D01*
X0095858Y0089454D01*
X0095448Y0089217D01*
X0094990Y0089094D01*
X0092280Y0089094D01*
X0092280Y0092974D01*
X0092280Y0091521D02*
X0091320Y0091521D01*
X0091320Y0089923D02*
X0092280Y0089923D01*
X0096270Y0089923D02*
X0150701Y0089923D01*
X0150701Y0091521D02*
X0096553Y0091521D01*
X0080984Y0048361D02*
X0080833Y0048361D01*
X0077242Y0045164D02*
X0066277Y0045164D01*
X0066277Y0043566D02*
X0078840Y0043566D01*
X0075643Y0046763D02*
X0066277Y0046763D01*
X0066277Y0048361D02*
X0074045Y0048361D01*
X0072446Y0049960D02*
X0066211Y0049960D01*
X0057600Y0049960D02*
X0056000Y0049960D01*
X0056000Y0048361D02*
X0057600Y0048361D01*
X0057600Y0046763D02*
X0056000Y0046763D01*
X0056000Y0045164D02*
X0057600Y0045164D01*
X0057600Y0040369D02*
X0056000Y0040369D01*
X0056000Y0038770D02*
X0057600Y0038770D01*
X0057600Y0037172D02*
X0056000Y0037172D01*
X0056000Y0035573D02*
X0057600Y0035573D01*
X0057600Y0033975D02*
X0056000Y0033975D01*
X0056000Y0032376D02*
X0057600Y0032376D01*
X0012278Y0024384D02*
X0011600Y0024384D01*
D21*
X0024300Y0101800D03*
X0041800Y0154300D03*
X0026800Y0166800D03*
X0114300Y0059300D03*
X0114300Y0026800D03*
X0131800Y0101800D03*
M02*
