G75*
%MOIN*%
%OFA0B0*%
%FSLAX25Y25*%
%IPPOS*%
%LPD*%
%AMOC8*
5,1,8,0,0,1.08239X$1,22.5*
%
%ADD10C,0.00600*%
%ADD11C,0.00500*%
%ADD12C,0.00400*%
%ADD13C,0.00200*%
%ADD14R,0.00787X0.00787*%
%ADD15R,0.05512X0.02559*%
%ADD16R,0.02559X0.05512*%
D10*
X0015095Y0119600D02*
X0015095Y0122803D01*
X0016162Y0123870D01*
X0018297Y0123870D01*
X0019365Y0122803D01*
X0019365Y0119600D01*
X0019365Y0121735D02*
X0021500Y0123870D01*
X0021500Y0126045D02*
X0021500Y0130316D01*
X0019365Y0132491D02*
X0021500Y0134626D01*
X0019365Y0136761D01*
X0015095Y0136761D01*
X0017230Y0138936D02*
X0018297Y0138936D01*
X0018297Y0140004D01*
X0017230Y0140004D01*
X0017230Y0138936D01*
X0020432Y0138936D02*
X0021500Y0138936D01*
X0021500Y0140004D01*
X0020432Y0140004D01*
X0020432Y0138936D01*
X0019365Y0132491D02*
X0015095Y0132491D01*
X0015095Y0130316D02*
X0015095Y0126045D01*
X0021500Y0126045D01*
X0018297Y0126045D02*
X0018297Y0128181D01*
X0015095Y0119600D02*
X0021500Y0119600D01*
X0021500Y0148605D02*
X0017230Y0148605D01*
X0015095Y0150740D01*
X0017230Y0152875D01*
X0021500Y0152875D01*
X0018297Y0152875D02*
X0018297Y0148605D01*
X0044100Y0145300D02*
X0044100Y0128300D01*
X0044102Y0128224D01*
X0044108Y0128148D01*
X0044117Y0128073D01*
X0044131Y0127998D01*
X0044148Y0127924D01*
X0044169Y0127851D01*
X0044193Y0127779D01*
X0044222Y0127708D01*
X0044253Y0127639D01*
X0044288Y0127572D01*
X0044327Y0127507D01*
X0044369Y0127443D01*
X0044414Y0127382D01*
X0044462Y0127323D01*
X0044513Y0127267D01*
X0044567Y0127213D01*
X0044623Y0127162D01*
X0044682Y0127114D01*
X0044743Y0127069D01*
X0044807Y0127027D01*
X0044872Y0126988D01*
X0044939Y0126953D01*
X0045008Y0126922D01*
X0045079Y0126893D01*
X0045151Y0126869D01*
X0045224Y0126848D01*
X0045298Y0126831D01*
X0045373Y0126817D01*
X0045448Y0126808D01*
X0045524Y0126802D01*
X0045600Y0126800D01*
X0058000Y0126800D01*
X0058076Y0126802D01*
X0058152Y0126808D01*
X0058227Y0126817D01*
X0058302Y0126831D01*
X0058376Y0126848D01*
X0058449Y0126869D01*
X0058521Y0126893D01*
X0058592Y0126922D01*
X0058661Y0126953D01*
X0058728Y0126988D01*
X0058793Y0127027D01*
X0058857Y0127069D01*
X0058918Y0127114D01*
X0058977Y0127162D01*
X0059033Y0127213D01*
X0059087Y0127267D01*
X0059138Y0127323D01*
X0059186Y0127382D01*
X0059231Y0127443D01*
X0059273Y0127507D01*
X0059312Y0127572D01*
X0059347Y0127639D01*
X0059378Y0127708D01*
X0059407Y0127779D01*
X0059431Y0127851D01*
X0059452Y0127924D01*
X0059469Y0127998D01*
X0059483Y0128073D01*
X0059492Y0128148D01*
X0059498Y0128224D01*
X0059500Y0128300D01*
X0059500Y0145300D01*
X0059498Y0145376D01*
X0059492Y0145452D01*
X0059483Y0145527D01*
X0059469Y0145602D01*
X0059452Y0145676D01*
X0059431Y0145749D01*
X0059407Y0145821D01*
X0059378Y0145892D01*
X0059347Y0145961D01*
X0059312Y0146028D01*
X0059273Y0146093D01*
X0059231Y0146157D01*
X0059186Y0146218D01*
X0059138Y0146277D01*
X0059087Y0146333D01*
X0059033Y0146387D01*
X0058977Y0146438D01*
X0058918Y0146486D01*
X0058857Y0146531D01*
X0058793Y0146573D01*
X0058728Y0146612D01*
X0058661Y0146647D01*
X0058592Y0146678D01*
X0058521Y0146707D01*
X0058449Y0146731D01*
X0058376Y0146752D01*
X0058302Y0146769D01*
X0058227Y0146783D01*
X0058152Y0146792D01*
X0058076Y0146798D01*
X0058000Y0146800D01*
X0045600Y0146800D01*
X0045524Y0146798D01*
X0045448Y0146792D01*
X0045373Y0146783D01*
X0045298Y0146769D01*
X0045224Y0146752D01*
X0045151Y0146731D01*
X0045079Y0146707D01*
X0045008Y0146678D01*
X0044939Y0146647D01*
X0044872Y0146612D01*
X0044807Y0146573D01*
X0044743Y0146531D01*
X0044682Y0146486D01*
X0044623Y0146438D01*
X0044567Y0146387D01*
X0044513Y0146333D01*
X0044462Y0146277D01*
X0044414Y0146218D01*
X0044369Y0146157D01*
X0044327Y0146093D01*
X0044288Y0146028D01*
X0044253Y0145961D01*
X0044222Y0145892D01*
X0044193Y0145821D01*
X0044169Y0145749D01*
X0044148Y0145676D01*
X0044131Y0145602D01*
X0044117Y0145527D01*
X0044108Y0145452D01*
X0044102Y0145376D01*
X0044100Y0145300D01*
X0049800Y0146800D02*
X0049802Y0146712D01*
X0049808Y0146623D01*
X0049818Y0146535D01*
X0049831Y0146448D01*
X0049849Y0146361D01*
X0049870Y0146275D01*
X0049895Y0146190D01*
X0049924Y0146107D01*
X0049957Y0146024D01*
X0049993Y0145944D01*
X0050032Y0145865D01*
X0050075Y0145787D01*
X0050122Y0145712D01*
X0050172Y0145639D01*
X0050225Y0145568D01*
X0050281Y0145499D01*
X0050340Y0145433D01*
X0050402Y0145370D01*
X0050466Y0145310D01*
X0050533Y0145252D01*
X0050603Y0145198D01*
X0050675Y0145146D01*
X0050749Y0145098D01*
X0050826Y0145053D01*
X0050904Y0145012D01*
X0050984Y0144974D01*
X0051065Y0144940D01*
X0051148Y0144909D01*
X0051233Y0144882D01*
X0051318Y0144859D01*
X0051404Y0144840D01*
X0051492Y0144824D01*
X0051579Y0144812D01*
X0051667Y0144804D01*
X0051756Y0144800D01*
X0051844Y0144800D01*
X0051933Y0144804D01*
X0052021Y0144812D01*
X0052108Y0144824D01*
X0052196Y0144840D01*
X0052282Y0144859D01*
X0052367Y0144882D01*
X0052452Y0144909D01*
X0052535Y0144940D01*
X0052616Y0144974D01*
X0052696Y0145012D01*
X0052774Y0145053D01*
X0052851Y0145098D01*
X0052925Y0145146D01*
X0052997Y0145198D01*
X0053067Y0145252D01*
X0053134Y0145310D01*
X0053198Y0145370D01*
X0053260Y0145433D01*
X0053319Y0145499D01*
X0053375Y0145568D01*
X0053428Y0145639D01*
X0053478Y0145712D01*
X0053525Y0145787D01*
X0053568Y0145865D01*
X0053607Y0145944D01*
X0053643Y0146024D01*
X0053676Y0146107D01*
X0053705Y0146190D01*
X0053730Y0146275D01*
X0053751Y0146361D01*
X0053769Y0146448D01*
X0053782Y0146535D01*
X0053792Y0146623D01*
X0053798Y0146712D01*
X0053800Y0146800D01*
X0136527Y0045004D02*
X0138662Y0045004D01*
X0139730Y0043936D01*
X0139730Y0041761D02*
X0145068Y0041761D01*
X0146135Y0040694D01*
X0146135Y0039626D01*
X0144000Y0038559D02*
X0144000Y0041761D01*
X0144000Y0038559D02*
X0142932Y0037491D01*
X0139730Y0037491D01*
X0140797Y0035316D02*
X0139730Y0034248D01*
X0139730Y0032113D01*
X0141865Y0032113D02*
X0141865Y0035316D01*
X0140797Y0035316D02*
X0144000Y0035316D01*
X0144000Y0032113D01*
X0142932Y0031045D01*
X0141865Y0032113D01*
X0144000Y0028870D02*
X0140797Y0025668D01*
X0141865Y0024600D02*
X0137595Y0028870D01*
X0137595Y0024600D02*
X0144000Y0024600D01*
X0144000Y0047159D02*
X0144000Y0050362D01*
X0142932Y0051430D01*
X0141865Y0050362D01*
X0141865Y0048227D01*
X0140797Y0047159D01*
X0139730Y0048227D01*
X0139730Y0051430D01*
X0140797Y0060050D02*
X0140797Y0063253D01*
X0141865Y0064321D01*
X0142932Y0064321D01*
X0144000Y0063253D01*
X0144000Y0060050D01*
X0137595Y0060050D01*
X0137595Y0063253D01*
X0138662Y0064321D01*
X0139730Y0064321D01*
X0140797Y0063253D01*
X0140797Y0066496D02*
X0142932Y0066496D01*
X0144000Y0067563D01*
X0144000Y0069698D01*
X0142932Y0070766D01*
X0140797Y0070766D01*
X0139730Y0069698D01*
X0139730Y0067563D01*
X0140797Y0066496D01*
X0142932Y0072941D02*
X0141865Y0074009D01*
X0141865Y0077212D01*
X0140797Y0077212D02*
X0144000Y0077212D01*
X0144000Y0074009D01*
X0142932Y0072941D01*
X0139730Y0074009D02*
X0139730Y0076144D01*
X0140797Y0077212D01*
X0139730Y0079387D02*
X0144000Y0079387D01*
X0141865Y0079387D02*
X0139730Y0081522D01*
X0139730Y0082589D01*
X0140797Y0084758D02*
X0139730Y0085826D01*
X0139730Y0089028D01*
X0137595Y0089028D02*
X0144000Y0089028D01*
X0144000Y0085826D01*
X0142932Y0084758D01*
X0140797Y0084758D01*
D11*
X0030580Y0035343D02*
X0018060Y0035343D01*
X0018060Y0047863D01*
X0030580Y0047863D01*
X0030580Y0056863D01*
X0041131Y0068020D01*
X0071863Y0068020D01*
X0083020Y0056257D01*
X0083020Y0048257D01*
X0095540Y0048257D01*
X0095540Y0035343D01*
X0083020Y0035343D01*
X0083020Y0015611D01*
X0077800Y0015611D01*
X0068800Y0024461D01*
X0042225Y0024461D01*
X0033800Y0015611D01*
X0030580Y0015611D01*
X0030580Y0035343D01*
X0020123Y0041194D02*
X0020125Y0041314D01*
X0020131Y0041434D01*
X0020141Y0041553D01*
X0020155Y0041672D01*
X0020173Y0041791D01*
X0020194Y0041909D01*
X0020220Y0042026D01*
X0020250Y0042142D01*
X0020283Y0042257D01*
X0020320Y0042371D01*
X0020361Y0042483D01*
X0020406Y0042595D01*
X0020455Y0042704D01*
X0020507Y0042812D01*
X0020562Y0042919D01*
X0020621Y0043023D01*
X0020684Y0043125D01*
X0020750Y0043225D01*
X0020819Y0043323D01*
X0020891Y0043419D01*
X0020967Y0043512D01*
X0021045Y0043602D01*
X0021127Y0043690D01*
X0021211Y0043775D01*
X0021298Y0043858D01*
X0021388Y0043937D01*
X0021481Y0044013D01*
X0021576Y0044086D01*
X0021673Y0044156D01*
X0021773Y0044223D01*
X0021874Y0044286D01*
X0021978Y0044346D01*
X0022084Y0044403D01*
X0022191Y0044456D01*
X0022301Y0044505D01*
X0022412Y0044551D01*
X0022524Y0044593D01*
X0022638Y0044631D01*
X0022752Y0044665D01*
X0022868Y0044696D01*
X0022985Y0044722D01*
X0023103Y0044745D01*
X0023221Y0044764D01*
X0023340Y0044779D01*
X0023460Y0044790D01*
X0023579Y0044797D01*
X0023699Y0044800D01*
X0023819Y0044799D01*
X0023939Y0044794D01*
X0024058Y0044785D01*
X0024177Y0044772D01*
X0024296Y0044755D01*
X0024414Y0044734D01*
X0024531Y0044710D01*
X0024648Y0044681D01*
X0024763Y0044649D01*
X0024877Y0044612D01*
X0024990Y0044572D01*
X0025102Y0044528D01*
X0025212Y0044481D01*
X0025321Y0044430D01*
X0025427Y0044375D01*
X0025532Y0044317D01*
X0025635Y0044255D01*
X0025736Y0044190D01*
X0025834Y0044122D01*
X0025930Y0044050D01*
X0026024Y0043976D01*
X0026115Y0043898D01*
X0026204Y0043817D01*
X0026289Y0043733D01*
X0026372Y0043647D01*
X0026452Y0043557D01*
X0026530Y0043466D01*
X0026603Y0043371D01*
X0026674Y0043275D01*
X0026742Y0043176D01*
X0026806Y0043074D01*
X0026867Y0042971D01*
X0026924Y0042866D01*
X0026978Y0042759D01*
X0027028Y0042650D01*
X0027075Y0042539D01*
X0027118Y0042427D01*
X0027157Y0042314D01*
X0027192Y0042199D01*
X0027223Y0042084D01*
X0027251Y0041967D01*
X0027275Y0041850D01*
X0027295Y0041731D01*
X0027311Y0041613D01*
X0027323Y0041493D01*
X0027331Y0041374D01*
X0027335Y0041254D01*
X0027335Y0041134D01*
X0027331Y0041014D01*
X0027323Y0040895D01*
X0027311Y0040775D01*
X0027295Y0040657D01*
X0027275Y0040538D01*
X0027251Y0040421D01*
X0027223Y0040304D01*
X0027192Y0040189D01*
X0027157Y0040074D01*
X0027118Y0039961D01*
X0027075Y0039849D01*
X0027028Y0039738D01*
X0026978Y0039629D01*
X0026924Y0039522D01*
X0026867Y0039417D01*
X0026806Y0039314D01*
X0026742Y0039212D01*
X0026674Y0039113D01*
X0026603Y0039017D01*
X0026530Y0038922D01*
X0026452Y0038831D01*
X0026372Y0038741D01*
X0026289Y0038655D01*
X0026204Y0038571D01*
X0026115Y0038490D01*
X0026024Y0038412D01*
X0025930Y0038338D01*
X0025834Y0038266D01*
X0025736Y0038198D01*
X0025635Y0038133D01*
X0025532Y0038071D01*
X0025427Y0038013D01*
X0025321Y0037958D01*
X0025212Y0037907D01*
X0025102Y0037860D01*
X0024990Y0037816D01*
X0024877Y0037776D01*
X0024763Y0037739D01*
X0024648Y0037707D01*
X0024531Y0037678D01*
X0024414Y0037654D01*
X0024296Y0037633D01*
X0024177Y0037616D01*
X0024058Y0037603D01*
X0023939Y0037594D01*
X0023819Y0037589D01*
X0023699Y0037588D01*
X0023579Y0037591D01*
X0023460Y0037598D01*
X0023340Y0037609D01*
X0023221Y0037624D01*
X0023103Y0037643D01*
X0022985Y0037666D01*
X0022868Y0037692D01*
X0022752Y0037723D01*
X0022638Y0037757D01*
X0022524Y0037795D01*
X0022412Y0037837D01*
X0022301Y0037883D01*
X0022191Y0037932D01*
X0022084Y0037985D01*
X0021978Y0038042D01*
X0021874Y0038102D01*
X0021773Y0038165D01*
X0021673Y0038232D01*
X0021576Y0038302D01*
X0021481Y0038375D01*
X0021388Y0038451D01*
X0021298Y0038530D01*
X0021211Y0038613D01*
X0021127Y0038698D01*
X0021045Y0038786D01*
X0020967Y0038876D01*
X0020891Y0038969D01*
X0020819Y0039065D01*
X0020750Y0039163D01*
X0020684Y0039263D01*
X0020621Y0039365D01*
X0020562Y0039469D01*
X0020507Y0039576D01*
X0020455Y0039684D01*
X0020406Y0039793D01*
X0020361Y0039905D01*
X0020320Y0040017D01*
X0020283Y0040131D01*
X0020250Y0040246D01*
X0020220Y0040362D01*
X0020194Y0040479D01*
X0020173Y0040597D01*
X0020155Y0040716D01*
X0020141Y0040835D01*
X0020131Y0040954D01*
X0020125Y0041074D01*
X0020123Y0041194D01*
X0037587Y0054381D02*
X0038604Y0053363D01*
X0040639Y0053363D01*
X0041657Y0054381D01*
X0043664Y0055398D02*
X0046717Y0055398D01*
X0047734Y0056416D01*
X0047734Y0058451D01*
X0046717Y0059469D01*
X0043664Y0059469D01*
X0043664Y0053363D01*
X0045699Y0055398D02*
X0047734Y0053363D01*
X0049741Y0053363D02*
X0053811Y0053363D01*
X0051776Y0053363D02*
X0051776Y0059469D01*
X0049741Y0057434D01*
X0055818Y0058451D02*
X0056836Y0059469D01*
X0058871Y0059469D01*
X0059889Y0058451D01*
X0059889Y0057434D01*
X0055818Y0053363D01*
X0059889Y0053363D01*
X0061896Y0053363D02*
X0065966Y0057434D01*
X0065966Y0058451D01*
X0064948Y0059469D01*
X0062913Y0059469D01*
X0061896Y0058451D01*
X0061896Y0053363D02*
X0065966Y0053363D01*
X0067973Y0054381D02*
X0072043Y0058451D01*
X0072043Y0054381D01*
X0071025Y0053363D01*
X0068990Y0053363D01*
X0067973Y0054381D01*
X0067973Y0058451D01*
X0068990Y0059469D01*
X0071025Y0059469D01*
X0072043Y0058451D01*
X0085690Y0041800D02*
X0085692Y0041920D01*
X0085698Y0042040D01*
X0085708Y0042159D01*
X0085722Y0042278D01*
X0085740Y0042397D01*
X0085761Y0042515D01*
X0085787Y0042632D01*
X0085817Y0042748D01*
X0085850Y0042863D01*
X0085887Y0042977D01*
X0085928Y0043089D01*
X0085973Y0043201D01*
X0086022Y0043310D01*
X0086074Y0043418D01*
X0086129Y0043525D01*
X0086188Y0043629D01*
X0086251Y0043731D01*
X0086317Y0043831D01*
X0086386Y0043929D01*
X0086458Y0044025D01*
X0086534Y0044118D01*
X0086612Y0044208D01*
X0086694Y0044296D01*
X0086778Y0044381D01*
X0086865Y0044464D01*
X0086955Y0044543D01*
X0087048Y0044619D01*
X0087143Y0044692D01*
X0087240Y0044762D01*
X0087340Y0044829D01*
X0087441Y0044892D01*
X0087545Y0044952D01*
X0087651Y0045009D01*
X0087758Y0045062D01*
X0087868Y0045111D01*
X0087979Y0045157D01*
X0088091Y0045199D01*
X0088205Y0045237D01*
X0088319Y0045271D01*
X0088435Y0045302D01*
X0088552Y0045328D01*
X0088670Y0045351D01*
X0088788Y0045370D01*
X0088907Y0045385D01*
X0089027Y0045396D01*
X0089146Y0045403D01*
X0089266Y0045406D01*
X0089386Y0045405D01*
X0089506Y0045400D01*
X0089625Y0045391D01*
X0089744Y0045378D01*
X0089863Y0045361D01*
X0089981Y0045340D01*
X0090098Y0045316D01*
X0090215Y0045287D01*
X0090330Y0045255D01*
X0090444Y0045218D01*
X0090557Y0045178D01*
X0090669Y0045134D01*
X0090779Y0045087D01*
X0090888Y0045036D01*
X0090994Y0044981D01*
X0091099Y0044923D01*
X0091202Y0044861D01*
X0091303Y0044796D01*
X0091401Y0044728D01*
X0091497Y0044656D01*
X0091591Y0044582D01*
X0091682Y0044504D01*
X0091771Y0044423D01*
X0091856Y0044339D01*
X0091939Y0044253D01*
X0092019Y0044163D01*
X0092097Y0044072D01*
X0092170Y0043977D01*
X0092241Y0043881D01*
X0092309Y0043782D01*
X0092373Y0043680D01*
X0092434Y0043577D01*
X0092491Y0043472D01*
X0092545Y0043365D01*
X0092595Y0043256D01*
X0092642Y0043145D01*
X0092685Y0043033D01*
X0092724Y0042920D01*
X0092759Y0042805D01*
X0092790Y0042690D01*
X0092818Y0042573D01*
X0092842Y0042456D01*
X0092862Y0042337D01*
X0092878Y0042219D01*
X0092890Y0042099D01*
X0092898Y0041980D01*
X0092902Y0041860D01*
X0092902Y0041740D01*
X0092898Y0041620D01*
X0092890Y0041501D01*
X0092878Y0041381D01*
X0092862Y0041263D01*
X0092842Y0041144D01*
X0092818Y0041027D01*
X0092790Y0040910D01*
X0092759Y0040795D01*
X0092724Y0040680D01*
X0092685Y0040567D01*
X0092642Y0040455D01*
X0092595Y0040344D01*
X0092545Y0040235D01*
X0092491Y0040128D01*
X0092434Y0040023D01*
X0092373Y0039920D01*
X0092309Y0039818D01*
X0092241Y0039719D01*
X0092170Y0039623D01*
X0092097Y0039528D01*
X0092019Y0039437D01*
X0091939Y0039347D01*
X0091856Y0039261D01*
X0091771Y0039177D01*
X0091682Y0039096D01*
X0091591Y0039018D01*
X0091497Y0038944D01*
X0091401Y0038872D01*
X0091303Y0038804D01*
X0091202Y0038739D01*
X0091099Y0038677D01*
X0090994Y0038619D01*
X0090888Y0038564D01*
X0090779Y0038513D01*
X0090669Y0038466D01*
X0090557Y0038422D01*
X0090444Y0038382D01*
X0090330Y0038345D01*
X0090215Y0038313D01*
X0090098Y0038284D01*
X0089981Y0038260D01*
X0089863Y0038239D01*
X0089744Y0038222D01*
X0089625Y0038209D01*
X0089506Y0038200D01*
X0089386Y0038195D01*
X0089266Y0038194D01*
X0089146Y0038197D01*
X0089027Y0038204D01*
X0088907Y0038215D01*
X0088788Y0038230D01*
X0088670Y0038249D01*
X0088552Y0038272D01*
X0088435Y0038298D01*
X0088319Y0038329D01*
X0088205Y0038363D01*
X0088091Y0038401D01*
X0087979Y0038443D01*
X0087868Y0038489D01*
X0087758Y0038538D01*
X0087651Y0038591D01*
X0087545Y0038648D01*
X0087441Y0038708D01*
X0087340Y0038771D01*
X0087240Y0038838D01*
X0087143Y0038908D01*
X0087048Y0038981D01*
X0086955Y0039057D01*
X0086865Y0039136D01*
X0086778Y0039219D01*
X0086694Y0039304D01*
X0086612Y0039392D01*
X0086534Y0039482D01*
X0086458Y0039575D01*
X0086386Y0039671D01*
X0086317Y0039769D01*
X0086251Y0039869D01*
X0086188Y0039971D01*
X0086129Y0040075D01*
X0086074Y0040182D01*
X0086022Y0040290D01*
X0085973Y0040399D01*
X0085928Y0040511D01*
X0085887Y0040623D01*
X0085850Y0040737D01*
X0085817Y0040852D01*
X0085787Y0040968D01*
X0085761Y0041085D01*
X0085740Y0041203D01*
X0085722Y0041322D01*
X0085708Y0041441D01*
X0085698Y0041560D01*
X0085692Y0041680D01*
X0085690Y0041800D01*
X0069043Y0019500D02*
X0064973Y0019500D01*
X0062966Y0019500D02*
X0058896Y0019500D01*
X0060931Y0019500D02*
X0060931Y0013395D01*
X0056889Y0013395D02*
X0056889Y0017465D01*
X0054853Y0019500D01*
X0052818Y0017465D01*
X0052818Y0013395D01*
X0050811Y0014412D02*
X0049794Y0013395D01*
X0046741Y0013395D01*
X0046741Y0019500D01*
X0049794Y0019500D01*
X0050811Y0018483D01*
X0050811Y0017465D01*
X0049794Y0016447D01*
X0046741Y0016447D01*
X0049794Y0016447D02*
X0050811Y0015430D01*
X0050811Y0014412D01*
X0052818Y0016447D02*
X0056889Y0016447D01*
X0067008Y0013395D02*
X0067008Y0019500D01*
X0041657Y0058451D02*
X0040639Y0059469D01*
X0038604Y0059469D01*
X0037587Y0058451D01*
X0037587Y0054381D01*
X0044550Y0148550D02*
X0046051Y0148550D01*
X0045301Y0148550D02*
X0045301Y0153054D01*
X0046051Y0153054D02*
X0044550Y0153054D01*
X0047619Y0152303D02*
X0047619Y0149301D01*
X0048370Y0148550D01*
X0049871Y0148550D01*
X0050622Y0149301D01*
X0052223Y0148550D02*
X0055226Y0148550D01*
X0053724Y0148550D02*
X0053724Y0153054D01*
X0052223Y0151553D01*
X0050622Y0152303D02*
X0049871Y0153054D01*
X0048370Y0153054D01*
X0047619Y0152303D01*
D12*
X0030906Y0193500D02*
X0029371Y0193500D01*
X0028604Y0194267D01*
X0027069Y0193500D02*
X0025535Y0195035D01*
X0026302Y0195035D02*
X0027069Y0195802D01*
X0027069Y0197337D01*
X0026302Y0198104D01*
X0024000Y0198104D01*
X0024000Y0193500D01*
X0024000Y0195035D02*
X0026302Y0195035D01*
X0028604Y0197337D02*
X0029371Y0198104D01*
X0030906Y0198104D01*
X0031673Y0197337D01*
X0031673Y0196569D01*
X0030906Y0195802D01*
X0031673Y0195035D01*
X0031673Y0194267D01*
X0030906Y0193500D01*
X0030906Y0195802D02*
X0030139Y0195802D01*
X0059500Y0197000D02*
X0062569Y0197000D01*
X0064104Y0197000D02*
X0067173Y0197000D01*
X0068708Y0197000D02*
X0071010Y0197000D01*
X0071777Y0197767D01*
X0071777Y0200837D01*
X0071010Y0201604D01*
X0068708Y0201604D01*
X0068708Y0197000D01*
X0065639Y0199302D02*
X0064104Y0199302D01*
X0064104Y0201604D02*
X0064104Y0197000D01*
X0064104Y0201604D02*
X0067173Y0201604D01*
X0073312Y0200837D02*
X0074079Y0201604D01*
X0075614Y0201604D01*
X0076381Y0200837D01*
X0076381Y0200069D01*
X0073312Y0197000D01*
X0076381Y0197000D01*
X0059500Y0197000D02*
X0059500Y0201604D01*
X0101500Y0198104D02*
X0101500Y0193500D01*
X0101500Y0195035D02*
X0103802Y0195035D01*
X0104569Y0195802D01*
X0104569Y0197337D01*
X0103802Y0198104D01*
X0101500Y0198104D01*
X0103035Y0195035D02*
X0104569Y0193500D01*
X0106104Y0195802D02*
X0109173Y0195802D01*
X0108406Y0193500D02*
X0108406Y0198104D01*
X0106104Y0195802D01*
X0131084Y0194500D02*
X0134154Y0194500D01*
X0135688Y0194500D02*
X0138757Y0194500D01*
X0140292Y0194500D02*
X0142594Y0194500D01*
X0143361Y0195267D01*
X0143361Y0198337D01*
X0142594Y0199104D01*
X0140292Y0199104D01*
X0140292Y0194500D01*
X0137223Y0196802D02*
X0135688Y0196802D01*
X0135688Y0199104D02*
X0135688Y0194500D01*
X0131084Y0194500D02*
X0131084Y0199104D01*
X0135688Y0199104D02*
X0138757Y0199104D01*
X0144896Y0197569D02*
X0146431Y0199104D01*
X0146431Y0194500D01*
X0147965Y0194500D02*
X0144896Y0194500D01*
X0130600Y0158465D02*
X0130600Y0155396D01*
X0127531Y0158465D01*
X0126763Y0158465D01*
X0125996Y0157698D01*
X0125996Y0156163D01*
X0126763Y0155396D01*
X0126763Y0153861D02*
X0128298Y0153861D01*
X0129065Y0153094D01*
X0129065Y0150792D01*
X0129065Y0152327D02*
X0130600Y0153861D01*
X0130600Y0150792D02*
X0125996Y0150792D01*
X0125996Y0153094D01*
X0126763Y0153861D01*
X0117600Y0131673D02*
X0117600Y0128604D01*
X0117600Y0130139D02*
X0112996Y0130139D01*
X0114531Y0128604D01*
X0115298Y0127069D02*
X0116065Y0126302D01*
X0116065Y0124000D01*
X0116065Y0125535D02*
X0117600Y0127069D01*
X0115298Y0127069D02*
X0113763Y0127069D01*
X0112996Y0126302D01*
X0112996Y0124000D01*
X0117600Y0124000D01*
X0088100Y0096465D02*
X0088100Y0093396D01*
X0088100Y0094931D02*
X0083496Y0094931D01*
X0085031Y0093396D01*
X0084263Y0091861D02*
X0083496Y0091094D01*
X0083496Y0089559D01*
X0084263Y0088792D01*
X0087333Y0088792D01*
X0088100Y0089559D01*
X0088100Y0091094D01*
X0087333Y0091861D01*
X0063100Y0091094D02*
X0063100Y0089559D01*
X0062333Y0088792D01*
X0059263Y0088792D01*
X0058496Y0089559D01*
X0058496Y0091094D01*
X0059263Y0091861D01*
X0059263Y0093396D02*
X0058496Y0094163D01*
X0058496Y0095698D01*
X0059263Y0096465D01*
X0060031Y0096465D01*
X0063100Y0093396D01*
X0063100Y0096465D01*
X0062333Y0091861D02*
X0063100Y0091094D01*
D13*
X0045500Y0126800D02*
X0045500Y0146800D01*
D14*
X0067194Y0186800D03*
X0141406Y0186800D03*
D15*
X0121806Y0159720D03*
X0121806Y0153920D03*
X0121794Y0129680D03*
X0121794Y0123880D03*
D16*
X0109680Y0186806D03*
X0103880Y0186806D03*
X0029680Y0186806D03*
X0023880Y0186806D03*
M02*
