G75*
%MOIN*%
%OFA0B0*%
%FSLAX25Y25*%
%IPPOS*%
%LPD*%
%AMOC8*
5,1,8,0,0,1.08239X$1,22.5*
%
%ADD10R,0.16154X0.16154*%
%ADD11R,0.13398X0.13398*%
%ADD12R,0.05918X0.06706*%
%ADD13C,0.06737*%
%ADD14R,0.09461X0.03162*%
%ADD15R,0.05131X0.06312*%
%ADD16R,0.06312X0.05131*%
%ADD17C,0.04800*%
D10*
X0068000Y0041800D03*
X0158000Y0041800D03*
D11*
X0035717Y0041800D03*
X0100283Y0041800D03*
X0125717Y0041800D03*
X0190283Y0041800D03*
D12*
X0224654Y0066800D03*
X0231346Y0066800D03*
X0231346Y0086800D03*
X0224654Y0086800D03*
X0171346Y0086800D03*
X0164654Y0086800D03*
X0164654Y0106800D03*
X0171346Y0106800D03*
X0146346Y0106800D03*
X0139654Y0106800D03*
X0164654Y0131800D03*
X0171346Y0131800D03*
X0224654Y0131800D03*
X0231346Y0131800D03*
X0231346Y0146800D03*
X0224654Y0146800D03*
X0121346Y0156800D03*
X0114654Y0156800D03*
D13*
X0025969Y0111800D02*
X0020031Y0111800D01*
X0020031Y0101800D02*
X0025969Y0101800D01*
X0253000Y0029769D02*
X0253000Y0023831D01*
X0263000Y0023831D02*
X0263000Y0029769D01*
D14*
X0083236Y0099300D03*
X0083236Y0104300D03*
X0083236Y0109300D03*
X0083236Y0114300D03*
X0062764Y0114300D03*
X0062764Y0109300D03*
X0062764Y0104300D03*
X0062764Y0099300D03*
X0152764Y0159300D03*
X0152764Y0164300D03*
X0152764Y0169300D03*
X0152764Y0174300D03*
X0173236Y0174300D03*
X0173236Y0169300D03*
X0173236Y0164300D03*
X0173236Y0159300D03*
D15*
X0194063Y0131800D03*
X0201937Y0131800D03*
X0201937Y0106800D03*
X0194063Y0106800D03*
X0194063Y0086800D03*
X0201937Y0086800D03*
X0201937Y0066800D03*
X0194063Y0066800D03*
X0224063Y0106800D03*
X0231937Y0106800D03*
X0141937Y0131800D03*
X0134063Y0131800D03*
X0116937Y0131800D03*
X0109063Y0131800D03*
X0076937Y0131800D03*
X0069063Y0131800D03*
X0109063Y0106800D03*
X0116937Y0106800D03*
D16*
X0203000Y0147863D03*
X0203000Y0155737D03*
X0253000Y0085737D03*
X0253000Y0077863D03*
D17*
X0217000Y0066800D03*
X0166000Y0053800D03*
X0217000Y0139800D03*
X0166000Y0174800D03*
M02*
