G75*
%MOIN*%
%OFA0B0*%
%FSLAX25Y25*%
%IPPOS*%
%LPD*%
%AMOC8*
5,1,8,0,0,1.08239X$1,22.5*
%
%ADD10C,0.00000*%
%ADD11R,0.15354X0.15354*%
%ADD12R,0.12598X0.12598*%
%ADD13R,0.05118X0.05906*%
%ADD14C,0.05937*%
%ADD15R,0.08661X0.02362*%
%ADD16R,0.04331X0.05512*%
%ADD17R,0.05512X0.04331*%
%ADD18C,0.01000*%
%ADD19C,0.04000*%
%ADD20C,0.01600*%
D10*
X0008000Y0006800D02*
X0008000Y0201761D01*
X0286701Y0201761D01*
X0286701Y0006800D01*
X0008000Y0006800D01*
D11*
X0068000Y0041800D03*
X0158000Y0041800D03*
D12*
X0125717Y0041800D03*
X0100283Y0041800D03*
X0035717Y0041800D03*
X0190283Y0041800D03*
D13*
X0224654Y0066800D03*
X0231346Y0066800D03*
X0231346Y0086800D03*
X0224654Y0086800D03*
X0171346Y0086800D03*
X0164654Y0086800D03*
X0164654Y0106800D03*
X0171346Y0106800D03*
X0146346Y0106800D03*
X0139654Y0106800D03*
X0164654Y0131800D03*
X0171346Y0131800D03*
X0224654Y0131800D03*
X0231346Y0131800D03*
X0231346Y0146800D03*
X0224654Y0146800D03*
X0121346Y0156800D03*
X0114654Y0156800D03*
D14*
X0025969Y0111800D02*
X0020031Y0111800D01*
X0020031Y0101800D02*
X0025969Y0101800D01*
X0253000Y0029769D02*
X0253000Y0023831D01*
X0263000Y0023831D02*
X0263000Y0029769D01*
D15*
X0083236Y0099300D03*
X0083236Y0104300D03*
X0083236Y0109300D03*
X0083236Y0114300D03*
X0062764Y0114300D03*
X0062764Y0109300D03*
X0062764Y0104300D03*
X0062764Y0099300D03*
X0152764Y0159300D03*
X0152764Y0164300D03*
X0152764Y0169300D03*
X0152764Y0174300D03*
X0173236Y0174300D03*
X0173236Y0169300D03*
X0173236Y0164300D03*
X0173236Y0159300D03*
D16*
X0194063Y0131800D03*
X0201937Y0131800D03*
X0201937Y0106800D03*
X0194063Y0106800D03*
X0194063Y0086800D03*
X0201937Y0086800D03*
X0201937Y0066800D03*
X0194063Y0066800D03*
X0224063Y0106800D03*
X0231937Y0106800D03*
X0141937Y0131800D03*
X0134063Y0131800D03*
X0116937Y0131800D03*
X0109063Y0131800D03*
X0076937Y0131800D03*
X0069063Y0131800D03*
X0109063Y0106800D03*
X0116937Y0106800D03*
D17*
X0203000Y0147863D03*
X0203000Y0155737D03*
X0253000Y0085737D03*
X0253000Y0077863D03*
D18*
X0253000Y0026800D01*
X0231346Y0066800D02*
X0231000Y0066800D01*
X0231000Y0086800D01*
X0231346Y0086800D01*
X0232000Y0086800D01*
X0232000Y0106800D01*
X0231937Y0106800D01*
X0236000Y0113800D02*
X0220000Y0113800D01*
X0217000Y0110800D01*
X0217000Y0086800D01*
X0201937Y0086800D01*
X0194063Y0086800D02*
X0194000Y0086800D01*
X0194000Y0079800D01*
X0167000Y0079800D01*
X0165000Y0081800D01*
X0165000Y0086800D01*
X0164654Y0086800D01*
X0182000Y0099800D02*
X0174000Y0107800D01*
X0173000Y0107800D01*
X0172000Y0106800D01*
X0171346Y0106800D01*
X0172000Y0106800D02*
X0172000Y0111800D01*
X0178000Y0117800D01*
X0178000Y0136800D01*
X0173000Y0141800D01*
X0173000Y0158800D01*
X0173236Y0159300D01*
X0174000Y0163800D02*
X0173236Y0164300D01*
X0173000Y0164800D01*
X0173000Y0168800D01*
X0173236Y0169300D01*
X0173236Y0174300D02*
X0173000Y0174800D01*
X0166000Y0174800D01*
X0157000Y0179800D02*
X0155000Y0177800D01*
X0155000Y0174800D01*
X0154000Y0173800D01*
X0153000Y0173800D01*
X0152764Y0174300D01*
X0152000Y0174800D01*
X0146000Y0174800D01*
X0128000Y0156800D01*
X0121346Y0156800D01*
X0115000Y0156800D02*
X0114654Y0156800D01*
X0115000Y0156800D02*
X0115000Y0138800D01*
X0117000Y0136800D01*
X0117000Y0131800D01*
X0116937Y0131800D01*
X0117000Y0131800D02*
X0134063Y0131800D01*
X0141937Y0131800D02*
X0142000Y0131800D01*
X0142000Y0160800D01*
X0146000Y0164800D01*
X0152000Y0164800D01*
X0152764Y0164300D01*
X0152764Y0169300D02*
X0153000Y0169800D01*
X0153000Y0173800D01*
X0157000Y0179800D02*
X0183000Y0179800D01*
X0203000Y0159800D01*
X0203000Y0155737D01*
X0203000Y0147863D02*
X0203000Y0147800D01*
X0214000Y0147800D01*
X0220000Y0153800D01*
X0236000Y0153800D01*
X0238000Y0151800D01*
X0238000Y0126800D01*
X0236000Y0124800D01*
X0227000Y0124800D01*
X0225000Y0126800D01*
X0225000Y0131800D01*
X0224654Y0131800D01*
X0224000Y0131800D01*
X0223000Y0132800D01*
X0222000Y0132800D01*
X0214000Y0124800D01*
X0196000Y0124800D01*
X0194000Y0126800D01*
X0194000Y0131800D01*
X0194063Y0131800D01*
X0188000Y0136800D02*
X0190000Y0138800D01*
X0198000Y0138800D01*
X0202000Y0134800D01*
X0202000Y0132800D01*
X0201937Y0131800D01*
X0202000Y0131800D01*
X0202000Y0132800D01*
X0218000Y0132800D01*
X0223000Y0137800D01*
X0230000Y0137800D01*
X0231000Y0138800D01*
X0234000Y0138800D01*
X0236000Y0140800D01*
X0236000Y0149800D01*
X0234000Y0151800D01*
X0228000Y0151800D01*
X0225000Y0148800D01*
X0225000Y0146800D01*
X0224654Y0146800D01*
X0231000Y0146800D02*
X0231346Y0146800D01*
X0231000Y0146800D02*
X0231000Y0141800D01*
X0229000Y0139800D01*
X0217000Y0139800D01*
X0200000Y0139800D01*
X0182000Y0157800D01*
X0182000Y0161800D01*
X0180000Y0163800D01*
X0174000Y0163800D01*
X0188000Y0136800D02*
X0188000Y0126800D01*
X0194000Y0120800D01*
X0194000Y0106800D01*
X0194063Y0106800D01*
X0201937Y0106800D02*
X0202000Y0106800D01*
X0202000Y0101800D01*
X0200000Y0099800D01*
X0182000Y0099800D01*
X0194000Y0079800D02*
X0194000Y0066800D01*
X0194063Y0066800D01*
X0201937Y0066800D02*
X0217000Y0066800D01*
X0224654Y0066800D01*
X0224654Y0086800D02*
X0217000Y0086800D01*
X0236000Y0113800D02*
X0253000Y0096800D01*
X0253000Y0085737D01*
X0190283Y0041800D02*
X0186000Y0041800D01*
X0181000Y0046800D01*
X0180000Y0045800D01*
X0180000Y0042800D01*
X0167000Y0029800D01*
X0149000Y0029800D01*
X0137000Y0041800D01*
X0125717Y0041800D01*
X0134000Y0051800D02*
X0115000Y0051800D01*
X0105000Y0041800D01*
X0100283Y0041800D01*
X0095000Y0041800D01*
X0063000Y0073800D01*
X0036000Y0046800D01*
X0036000Y0041800D01*
X0035717Y0041800D01*
X0063000Y0073800D02*
X0063000Y0098800D01*
X0062764Y0099300D01*
X0062764Y0104300D02*
X0062000Y0104800D01*
X0031000Y0104800D01*
X0028000Y0101800D01*
X0023000Y0101800D01*
X0030000Y0109800D02*
X0028000Y0111800D01*
X0023000Y0111800D01*
X0030000Y0109800D02*
X0062000Y0109800D01*
X0062764Y0109300D01*
X0063000Y0113800D02*
X0062764Y0114300D01*
X0063000Y0113800D02*
X0064000Y0113800D01*
X0065000Y0114800D01*
X0065000Y0117800D01*
X0069000Y0121800D01*
X0069000Y0131800D01*
X0069063Y0131800D01*
X0076937Y0131800D02*
X0077000Y0131800D01*
X0077000Y0121800D01*
X0081000Y0117800D01*
X0081000Y0114800D01*
X0082000Y0113800D01*
X0083000Y0113800D01*
X0083236Y0114300D01*
X0083000Y0109800D02*
X0083236Y0109300D01*
X0083000Y0109800D02*
X0076000Y0109800D01*
X0074000Y0107800D01*
X0074000Y0096800D01*
X0117000Y0053800D01*
X0166000Y0053800D01*
X0174000Y0053800D01*
X0181000Y0046800D01*
X0158000Y0041800D02*
X0144000Y0041800D01*
X0134000Y0051800D01*
X0091000Y0104800D02*
X0084000Y0104800D01*
X0083236Y0104300D01*
X0091000Y0104800D02*
X0093000Y0106800D01*
X0109063Y0106800D01*
X0116937Y0106800D02*
X0117000Y0106800D01*
X0117000Y0111800D01*
X0109000Y0119800D01*
X0109000Y0131800D01*
X0109063Y0131800D01*
X0142000Y0131800D02*
X0164654Y0131800D01*
X0139654Y0106800D02*
X0117000Y0106800D01*
D19*
X0166000Y0053800D03*
X0217000Y0066800D03*
X0217000Y0139800D03*
X0166000Y0174800D03*
D20*
X0162701Y0176242D02*
X0158596Y0176242D01*
X0158694Y0176144D02*
X0157757Y0177081D01*
X0157251Y0177081D01*
X0157870Y0177700D01*
X0163809Y0177700D01*
X0162948Y0176839D01*
X0162400Y0175516D01*
X0162400Y0174084D01*
X0162948Y0172761D01*
X0163961Y0171748D01*
X0165284Y0171200D01*
X0166716Y0171200D01*
X0167818Y0171657D01*
X0167306Y0171144D01*
X0167306Y0167456D01*
X0167962Y0166800D01*
X0167306Y0166144D01*
X0167306Y0162456D01*
X0167962Y0161800D01*
X0167306Y0161144D01*
X0167306Y0157456D01*
X0168243Y0156519D01*
X0170900Y0156519D01*
X0170900Y0140930D01*
X0175900Y0135930D01*
X0175900Y0118670D01*
X0171130Y0113900D01*
X0169900Y0112670D01*
X0169900Y0111353D01*
X0168125Y0111353D01*
X0168094Y0111322D01*
X0167907Y0111430D01*
X0167450Y0111553D01*
X0165133Y0111553D01*
X0165133Y0107280D01*
X0164174Y0107280D01*
X0164174Y0111553D01*
X0161858Y0111553D01*
X0161400Y0111430D01*
X0160989Y0111193D01*
X0160654Y0110858D01*
X0160417Y0110448D01*
X0160294Y0109990D01*
X0160294Y0107280D01*
X0164174Y0107280D01*
X0164174Y0106320D01*
X0165133Y0106320D01*
X0165133Y0102047D01*
X0167450Y0102047D01*
X0167907Y0102170D01*
X0168094Y0102278D01*
X0168125Y0102247D01*
X0174568Y0102247D01*
X0175505Y0103184D01*
X0175505Y0103325D01*
X0181130Y0097700D01*
X0200870Y0097700D01*
X0202100Y0098930D01*
X0204100Y0100930D01*
X0204100Y0102444D01*
X0204765Y0102444D01*
X0205702Y0103381D01*
X0205702Y0110219D01*
X0204765Y0111156D01*
X0199109Y0111156D01*
X0198172Y0110219D01*
X0198172Y0103381D01*
X0199109Y0102444D01*
X0199674Y0102444D01*
X0199130Y0101900D01*
X0182870Y0101900D01*
X0176100Y0108670D01*
X0175505Y0109264D01*
X0175505Y0110415D01*
X0174568Y0111353D01*
X0174523Y0111353D01*
X0180100Y0116930D01*
X0180100Y0137670D01*
X0178870Y0138900D01*
X0175100Y0142670D01*
X0175100Y0156519D01*
X0178230Y0156519D01*
X0179167Y0157456D01*
X0179167Y0161144D01*
X0178611Y0161700D01*
X0179130Y0161700D01*
X0179900Y0160930D01*
X0179900Y0156930D01*
X0181130Y0155700D01*
X0195930Y0140900D01*
X0189130Y0140900D01*
X0187900Y0139670D01*
X0185900Y0137670D01*
X0185900Y0125930D01*
X0187130Y0124700D01*
X0191900Y0119930D01*
X0191900Y0111156D01*
X0191235Y0111156D01*
X0190298Y0110219D01*
X0190298Y0103381D01*
X0191235Y0102444D01*
X0196891Y0102444D01*
X0197828Y0103381D01*
X0197828Y0110219D01*
X0196891Y0111156D01*
X0196100Y0111156D01*
X0196100Y0121670D01*
X0190100Y0127670D01*
X0190100Y0135930D01*
X0190870Y0136700D01*
X0197130Y0136700D01*
X0198392Y0135439D01*
X0198172Y0135219D01*
X0198172Y0128381D01*
X0199109Y0127444D01*
X0204765Y0127444D01*
X0205702Y0128381D01*
X0205702Y0130700D01*
X0216930Y0130700D01*
X0213130Y0126900D01*
X0196870Y0126900D01*
X0196326Y0127444D01*
X0196891Y0127444D01*
X0197828Y0128381D01*
X0197828Y0135219D01*
X0196891Y0136156D01*
X0191235Y0136156D01*
X0190298Y0135219D01*
X0190298Y0128381D01*
X0191235Y0127444D01*
X0191900Y0127444D01*
X0191900Y0125930D01*
X0193900Y0123930D01*
X0195130Y0122700D01*
X0214870Y0122700D01*
X0216100Y0123930D01*
X0216100Y0123930D01*
X0220494Y0128325D01*
X0220494Y0128184D01*
X0221432Y0127247D01*
X0222900Y0127247D01*
X0222900Y0125930D01*
X0224130Y0124700D01*
X0226130Y0122700D01*
X0236870Y0122700D01*
X0238100Y0123930D01*
X0240100Y0125930D01*
X0240100Y0152670D01*
X0238870Y0153900D01*
X0236870Y0155900D01*
X0219130Y0155900D01*
X0217900Y0154670D01*
X0213130Y0149900D01*
X0207356Y0149900D01*
X0207356Y0150691D01*
X0206419Y0151628D01*
X0199581Y0151628D01*
X0198644Y0150691D01*
X0198644Y0145035D01*
X0199581Y0144098D01*
X0206419Y0144098D01*
X0207356Y0145035D01*
X0207356Y0145700D01*
X0214870Y0145700D01*
X0220870Y0151700D01*
X0224930Y0151700D01*
X0224583Y0151353D01*
X0221432Y0151353D01*
X0220494Y0150415D01*
X0220494Y0143184D01*
X0221432Y0142247D01*
X0227875Y0142247D01*
X0228000Y0142372D01*
X0228125Y0142247D01*
X0228477Y0142247D01*
X0228130Y0141900D01*
X0219991Y0141900D01*
X0219039Y0142852D01*
X0217716Y0143400D01*
X0216284Y0143400D01*
X0214961Y0142852D01*
X0214009Y0141900D01*
X0200870Y0141900D01*
X0184100Y0158670D01*
X0184100Y0162670D01*
X0182100Y0164670D01*
X0180870Y0165900D01*
X0179167Y0165900D01*
X0179167Y0166144D01*
X0178511Y0166800D01*
X0179167Y0167456D01*
X0179167Y0171144D01*
X0178511Y0171800D01*
X0179167Y0172456D01*
X0179167Y0176144D01*
X0178230Y0177081D01*
X0168810Y0177081D01*
X0168191Y0177700D01*
X0182130Y0177700D01*
X0200328Y0159502D01*
X0199581Y0159502D01*
X0198644Y0158565D01*
X0198644Y0152909D01*
X0199581Y0151972D01*
X0206419Y0151972D01*
X0207356Y0152909D01*
X0207356Y0158565D01*
X0206419Y0159502D01*
X0205100Y0159502D01*
X0205100Y0160670D01*
X0185100Y0180670D01*
X0183870Y0181900D01*
X0156130Y0181900D01*
X0154130Y0179900D01*
X0152900Y0178670D01*
X0152900Y0177081D01*
X0147770Y0177081D01*
X0147589Y0176900D01*
X0145130Y0176900D01*
X0143900Y0175670D01*
X0127130Y0158900D01*
X0125505Y0158900D01*
X0125505Y0160415D01*
X0124568Y0161353D01*
X0118125Y0161353D01*
X0118000Y0161228D01*
X0117875Y0161353D01*
X0111432Y0161353D01*
X0110494Y0160415D01*
X0110494Y0153184D01*
X0111432Y0152247D01*
X0112900Y0152247D01*
X0112900Y0137930D01*
X0114674Y0136156D01*
X0114109Y0136156D01*
X0113172Y0135219D01*
X0113172Y0128381D01*
X0114109Y0127444D01*
X0119765Y0127444D01*
X0120702Y0128381D01*
X0120702Y0129700D01*
X0130298Y0129700D01*
X0130298Y0128381D01*
X0131235Y0127444D01*
X0136891Y0127444D01*
X0137828Y0128381D01*
X0137828Y0135219D01*
X0136891Y0136156D01*
X0131235Y0136156D01*
X0130298Y0135219D01*
X0130298Y0133900D01*
X0120702Y0133900D01*
X0120702Y0135219D01*
X0119765Y0136156D01*
X0119100Y0136156D01*
X0119100Y0137670D01*
X0117870Y0138900D01*
X0117100Y0139670D01*
X0117100Y0152247D01*
X0117875Y0152247D01*
X0118000Y0152372D01*
X0118125Y0152247D01*
X0124568Y0152247D01*
X0125505Y0153184D01*
X0125505Y0154700D01*
X0128870Y0154700D01*
X0146833Y0172663D01*
X0146833Y0172456D01*
X0147489Y0171800D01*
X0146833Y0171144D01*
X0146833Y0167456D01*
X0147389Y0166900D01*
X0145130Y0166900D01*
X0141130Y0162900D01*
X0139900Y0161670D01*
X0139900Y0136156D01*
X0139109Y0136156D01*
X0138172Y0135219D01*
X0138172Y0128381D01*
X0139109Y0127444D01*
X0144765Y0127444D01*
X0145702Y0128381D01*
X0145702Y0129700D01*
X0160494Y0129700D01*
X0160494Y0128184D01*
X0161432Y0127247D01*
X0167875Y0127247D01*
X0167906Y0127278D01*
X0168093Y0127170D01*
X0168550Y0127047D01*
X0170867Y0127047D01*
X0170867Y0131320D01*
X0171826Y0131320D01*
X0171826Y0127047D01*
X0174142Y0127047D01*
X0174600Y0127170D01*
X0175011Y0127407D01*
X0175346Y0127742D01*
X0175583Y0128152D01*
X0175705Y0128610D01*
X0175705Y0131320D01*
X0171826Y0131320D01*
X0171826Y0132280D01*
X0170867Y0132280D01*
X0170867Y0136553D01*
X0168550Y0136553D01*
X0168093Y0136430D01*
X0167906Y0136322D01*
X0167875Y0136353D01*
X0161432Y0136353D01*
X0160494Y0135415D01*
X0160494Y0133900D01*
X0145702Y0133900D01*
X0145702Y0135219D01*
X0144765Y0136156D01*
X0144100Y0136156D01*
X0144100Y0159930D01*
X0146833Y0162663D01*
X0146833Y0162456D01*
X0147353Y0161936D01*
X0147328Y0161921D01*
X0146993Y0161586D01*
X0146756Y0161176D01*
X0146633Y0160718D01*
X0146633Y0159300D01*
X0152764Y0159300D01*
X0158894Y0159300D01*
X0158894Y0160718D01*
X0158772Y0161176D01*
X0158535Y0161586D01*
X0158200Y0161921D01*
X0158174Y0161936D01*
X0158694Y0162456D01*
X0158694Y0166144D01*
X0158038Y0166800D01*
X0158694Y0167456D01*
X0158694Y0171144D01*
X0158038Y0171800D01*
X0158694Y0172456D01*
X0158694Y0176144D01*
X0158694Y0174644D02*
X0162400Y0174644D01*
X0162830Y0173045D02*
X0158694Y0173045D01*
X0158392Y0171447D02*
X0164688Y0171447D01*
X0167312Y0171447D02*
X0167608Y0171447D01*
X0167306Y0169848D02*
X0158694Y0169848D01*
X0158694Y0168250D02*
X0167306Y0168250D01*
X0167813Y0166651D02*
X0158187Y0166651D01*
X0158694Y0165053D02*
X0167306Y0165053D01*
X0167306Y0163454D02*
X0158694Y0163454D01*
X0158266Y0161856D02*
X0167906Y0161856D01*
X0167306Y0160257D02*
X0158894Y0160257D01*
X0158894Y0159300D02*
X0152764Y0159300D01*
X0152764Y0159300D01*
X0152764Y0156319D01*
X0157331Y0156319D01*
X0157789Y0156442D01*
X0158200Y0156679D01*
X0158535Y0157014D01*
X0158772Y0157424D01*
X0158894Y0157882D01*
X0158894Y0159300D01*
X0158894Y0158659D02*
X0167306Y0158659D01*
X0167702Y0157060D02*
X0158562Y0157060D01*
X0152764Y0157060D02*
X0152764Y0157060D01*
X0152764Y0156319D02*
X0152764Y0159300D01*
X0152764Y0159300D01*
X0146633Y0159300D01*
X0146633Y0157882D01*
X0146756Y0157424D01*
X0146993Y0157014D01*
X0147328Y0156679D01*
X0147738Y0156442D01*
X0148196Y0156319D01*
X0152764Y0156319D01*
X0152764Y0158659D02*
X0152764Y0158659D01*
X0152764Y0159300D02*
X0152764Y0159300D01*
X0147262Y0161856D02*
X0146025Y0161856D01*
X0146633Y0160257D02*
X0144427Y0160257D01*
X0144100Y0158659D02*
X0146633Y0158659D01*
X0146966Y0157060D02*
X0144100Y0157060D01*
X0144100Y0155462D02*
X0170900Y0155462D01*
X0170900Y0153863D02*
X0144100Y0153863D01*
X0144100Y0152265D02*
X0170900Y0152265D01*
X0170900Y0150666D02*
X0144100Y0150666D01*
X0144100Y0149068D02*
X0170900Y0149068D01*
X0170900Y0147469D02*
X0144100Y0147469D01*
X0144100Y0145870D02*
X0170900Y0145870D01*
X0170900Y0144272D02*
X0144100Y0144272D01*
X0144100Y0142673D02*
X0170900Y0142673D01*
X0170900Y0141075D02*
X0144100Y0141075D01*
X0144100Y0139476D02*
X0172354Y0139476D01*
X0173952Y0137878D02*
X0144100Y0137878D01*
X0144100Y0136279D02*
X0161358Y0136279D01*
X0160494Y0134681D02*
X0145702Y0134681D01*
X0139900Y0136279D02*
X0119100Y0136279D01*
X0118892Y0137878D02*
X0139900Y0137878D01*
X0139900Y0139476D02*
X0117293Y0139476D01*
X0117100Y0141075D02*
X0139900Y0141075D01*
X0139900Y0142673D02*
X0117100Y0142673D01*
X0117100Y0144272D02*
X0139900Y0144272D01*
X0139900Y0145870D02*
X0117100Y0145870D01*
X0117100Y0147469D02*
X0139900Y0147469D01*
X0139900Y0149068D02*
X0117100Y0149068D01*
X0117100Y0150666D02*
X0139900Y0150666D01*
X0139900Y0152265D02*
X0124586Y0152265D01*
X0125505Y0153863D02*
X0139900Y0153863D01*
X0139900Y0155462D02*
X0129631Y0155462D01*
X0131230Y0157060D02*
X0139900Y0157060D01*
X0139900Y0158659D02*
X0132828Y0158659D01*
X0134427Y0160257D02*
X0139900Y0160257D01*
X0140086Y0161856D02*
X0136025Y0161856D01*
X0137624Y0163454D02*
X0141684Y0163454D01*
X0143283Y0165053D02*
X0139222Y0165053D01*
X0140821Y0166651D02*
X0144881Y0166651D01*
X0146833Y0168250D02*
X0142419Y0168250D01*
X0144018Y0169848D02*
X0146833Y0169848D01*
X0147136Y0171447D02*
X0145616Y0171447D01*
X0142874Y0174644D02*
X0012800Y0174644D01*
X0012800Y0176242D02*
X0144472Y0176242D01*
X0141275Y0173045D02*
X0012800Y0173045D01*
X0012800Y0171447D02*
X0139677Y0171447D01*
X0138078Y0169848D02*
X0012800Y0169848D01*
X0012800Y0168250D02*
X0136480Y0168250D01*
X0134881Y0166651D02*
X0012800Y0166651D01*
X0012800Y0165053D02*
X0133283Y0165053D01*
X0131684Y0163454D02*
X0012800Y0163454D01*
X0012800Y0161856D02*
X0130086Y0161856D01*
X0128487Y0160257D02*
X0125505Y0160257D01*
X0118107Y0152265D02*
X0117893Y0152265D01*
X0112900Y0150666D02*
X0012800Y0150666D01*
X0012800Y0149068D02*
X0112900Y0149068D01*
X0112900Y0147469D02*
X0012800Y0147469D01*
X0012800Y0145870D02*
X0112900Y0145870D01*
X0112900Y0144272D02*
X0012800Y0144272D01*
X0012800Y0142673D02*
X0112900Y0142673D01*
X0112900Y0141075D02*
X0012800Y0141075D01*
X0012800Y0139476D02*
X0112900Y0139476D01*
X0112952Y0137878D02*
X0012800Y0137878D01*
X0012800Y0136279D02*
X0114551Y0136279D01*
X0112828Y0135219D02*
X0111891Y0136156D01*
X0106235Y0136156D01*
X0105298Y0135219D01*
X0105298Y0128381D01*
X0106235Y0127444D01*
X0106900Y0127444D01*
X0106900Y0118930D01*
X0114674Y0111156D01*
X0114109Y0111156D01*
X0113172Y0110219D01*
X0113172Y0103381D01*
X0114109Y0102444D01*
X0119765Y0102444D01*
X0120702Y0103381D01*
X0120702Y0104700D01*
X0135494Y0104700D01*
X0135494Y0103184D01*
X0136432Y0102247D01*
X0142875Y0102247D01*
X0142906Y0102278D01*
X0143093Y0102170D01*
X0143550Y0102047D01*
X0145867Y0102047D01*
X0145867Y0106320D01*
X0146826Y0106320D01*
X0146826Y0102047D01*
X0149142Y0102047D01*
X0149600Y0102170D01*
X0150011Y0102407D01*
X0150346Y0102742D01*
X0150583Y0103152D01*
X0150705Y0103610D01*
X0150705Y0106320D01*
X0146826Y0106320D01*
X0146826Y0107280D01*
X0145867Y0107280D01*
X0145867Y0111553D01*
X0143550Y0111553D01*
X0143093Y0111430D01*
X0142906Y0111322D01*
X0142875Y0111353D01*
X0136432Y0111353D01*
X0135494Y0110415D01*
X0135494Y0108900D01*
X0120702Y0108900D01*
X0120702Y0110219D01*
X0119765Y0111156D01*
X0119100Y0111156D01*
X0119100Y0112670D01*
X0117870Y0113900D01*
X0111100Y0120670D01*
X0111100Y0127444D01*
X0111891Y0127444D01*
X0112828Y0128381D01*
X0112828Y0135219D01*
X0112828Y0134681D02*
X0113172Y0134681D01*
X0113172Y0133082D02*
X0112828Y0133082D01*
X0112828Y0131484D02*
X0113172Y0131484D01*
X0113172Y0129885D02*
X0112828Y0129885D01*
X0112734Y0128287D02*
X0113266Y0128287D01*
X0111100Y0126688D02*
X0175900Y0126688D01*
X0175900Y0125090D02*
X0111100Y0125090D01*
X0111100Y0123491D02*
X0175900Y0123491D01*
X0175900Y0121893D02*
X0111100Y0121893D01*
X0111476Y0120294D02*
X0175900Y0120294D01*
X0175900Y0118696D02*
X0113074Y0118696D01*
X0114673Y0117097D02*
X0174327Y0117097D01*
X0172729Y0115499D02*
X0116271Y0115499D01*
X0117870Y0113900D02*
X0171130Y0113900D01*
X0169900Y0112302D02*
X0119100Y0112302D01*
X0120218Y0110703D02*
X0135782Y0110703D01*
X0135494Y0109105D02*
X0120702Y0109105D01*
X0120702Y0104309D02*
X0135494Y0104309D01*
X0135968Y0102711D02*
X0120032Y0102711D01*
X0113842Y0102711D02*
X0112158Y0102711D01*
X0111891Y0102444D02*
X0112828Y0103381D01*
X0112828Y0110219D01*
X0111891Y0111156D01*
X0106235Y0111156D01*
X0105298Y0110219D01*
X0105298Y0108900D01*
X0092130Y0108900D01*
X0090130Y0106900D01*
X0088611Y0106900D01*
X0089167Y0107456D01*
X0089167Y0111144D01*
X0088511Y0111800D01*
X0089167Y0112456D01*
X0089167Y0116144D01*
X0088230Y0117081D01*
X0083100Y0117081D01*
X0083100Y0118670D01*
X0081870Y0119900D01*
X0079100Y0122670D01*
X0079100Y0127444D01*
X0079765Y0127444D01*
X0080702Y0128381D01*
X0080702Y0135219D01*
X0079765Y0136156D01*
X0074109Y0136156D01*
X0073172Y0135219D01*
X0073172Y0128381D01*
X0074109Y0127444D01*
X0074900Y0127444D01*
X0074900Y0120930D01*
X0078749Y0117081D01*
X0078243Y0117081D01*
X0077306Y0116144D01*
X0077306Y0112456D01*
X0077862Y0111900D01*
X0075130Y0111900D01*
X0073130Y0109900D01*
X0071900Y0108670D01*
X0071900Y0095930D01*
X0114030Y0053800D01*
X0108183Y0047952D01*
X0108183Y0048762D01*
X0107245Y0049699D01*
X0093322Y0049699D01*
X0092384Y0048762D01*
X0092384Y0047386D01*
X0065100Y0074670D01*
X0065100Y0096519D01*
X0067757Y0096519D01*
X0068694Y0097456D01*
X0068694Y0101144D01*
X0068038Y0101800D01*
X0068694Y0102456D01*
X0068694Y0106144D01*
X0068038Y0106800D01*
X0068694Y0107456D01*
X0068694Y0111144D01*
X0068038Y0111800D01*
X0068694Y0112456D01*
X0068694Y0116144D01*
X0067757Y0117081D01*
X0067251Y0117081D01*
X0071100Y0120930D01*
X0071100Y0127444D01*
X0071891Y0127444D01*
X0072828Y0128381D01*
X0072828Y0135219D01*
X0071891Y0136156D01*
X0066235Y0136156D01*
X0065298Y0135219D01*
X0065298Y0128381D01*
X0066235Y0127444D01*
X0066900Y0127444D01*
X0066900Y0122670D01*
X0064130Y0119900D01*
X0062900Y0118670D01*
X0062900Y0117081D01*
X0057770Y0117081D01*
X0056833Y0116144D01*
X0056833Y0112456D01*
X0057389Y0111900D01*
X0030870Y0111900D01*
X0030537Y0112233D01*
X0030537Y0112709D01*
X0029841Y0114388D01*
X0028556Y0115673D01*
X0026877Y0116368D01*
X0019123Y0116368D01*
X0017444Y0115673D01*
X0016159Y0114388D01*
X0015463Y0112709D01*
X0015463Y0110891D01*
X0016159Y0109212D01*
X0017444Y0107927D01*
X0019123Y0107231D01*
X0026877Y0107231D01*
X0028556Y0107927D01*
X0028730Y0108100D01*
X0029130Y0107700D01*
X0056833Y0107700D01*
X0056833Y0107456D01*
X0057389Y0106900D01*
X0030130Y0106900D01*
X0028730Y0105500D01*
X0028556Y0105673D01*
X0026877Y0106368D01*
X0019123Y0106368D01*
X0017444Y0105673D01*
X0016159Y0104388D01*
X0015463Y0102709D01*
X0015463Y0100891D01*
X0016159Y0099212D01*
X0017444Y0097927D01*
X0019123Y0097231D01*
X0026877Y0097231D01*
X0028556Y0097927D01*
X0029841Y0099212D01*
X0030537Y0100891D01*
X0030537Y0101367D01*
X0031870Y0102700D01*
X0056833Y0102700D01*
X0056833Y0102456D01*
X0057489Y0101800D01*
X0056833Y0101144D01*
X0056833Y0097456D01*
X0057770Y0096519D01*
X0060900Y0096519D01*
X0060900Y0074670D01*
X0035929Y0049699D01*
X0028755Y0049699D01*
X0027817Y0048762D01*
X0027817Y0034838D01*
X0028755Y0033901D01*
X0042678Y0033901D01*
X0043616Y0034838D01*
X0043616Y0048762D01*
X0042678Y0049699D01*
X0041869Y0049699D01*
X0063000Y0070830D01*
X0092384Y0041446D01*
X0092384Y0034838D01*
X0093322Y0033901D01*
X0107245Y0033901D01*
X0108183Y0034838D01*
X0108183Y0042013D01*
X0115870Y0049700D01*
X0133130Y0049700D01*
X0143130Y0039700D01*
X0148723Y0039700D01*
X0148723Y0033460D01*
X0149660Y0032523D01*
X0166340Y0032523D01*
X0167277Y0033460D01*
X0167277Y0050140D01*
X0167070Y0050347D01*
X0168039Y0050748D01*
X0168991Y0051700D01*
X0173130Y0051700D01*
X0178030Y0046800D01*
X0177900Y0046670D01*
X0177900Y0043670D01*
X0166130Y0031900D01*
X0149870Y0031900D01*
X0137870Y0043900D01*
X0133616Y0043900D01*
X0133616Y0048762D01*
X0132678Y0049699D01*
X0118755Y0049699D01*
X0117817Y0048762D01*
X0117817Y0034838D01*
X0118755Y0033901D01*
X0132678Y0033901D01*
X0133616Y0034838D01*
X0133616Y0039700D01*
X0136130Y0039700D01*
X0146900Y0028930D01*
X0148130Y0027700D01*
X0167870Y0027700D01*
X0180870Y0040700D01*
X0182100Y0041930D01*
X0182100Y0042730D01*
X0182384Y0042446D01*
X0182384Y0034838D01*
X0183322Y0033901D01*
X0197245Y0033901D01*
X0198183Y0034838D01*
X0198183Y0048762D01*
X0197245Y0049699D01*
X0183322Y0049699D01*
X0182384Y0048762D01*
X0182384Y0048386D01*
X0181870Y0048900D01*
X0181870Y0048900D01*
X0174870Y0055900D01*
X0168991Y0055900D01*
X0168039Y0056852D01*
X0166716Y0057400D01*
X0165284Y0057400D01*
X0163961Y0056852D01*
X0163009Y0055900D01*
X0117870Y0055900D01*
X0076100Y0097670D01*
X0076100Y0106930D01*
X0076870Y0107700D01*
X0077306Y0107700D01*
X0077306Y0107456D01*
X0077962Y0106800D01*
X0077306Y0106144D01*
X0077306Y0102456D01*
X0077826Y0101936D01*
X0077800Y0101921D01*
X0077465Y0101586D01*
X0077228Y0101176D01*
X0077106Y0100718D01*
X0077105Y0099300D01*
X0083236Y0099300D01*
X0083236Y0099300D01*
X0077106Y0099300D01*
X0077106Y0097882D01*
X0077228Y0097424D01*
X0077465Y0097014D01*
X0077800Y0096679D01*
X0078211Y0096442D01*
X0078669Y0096319D01*
X0083236Y0096319D01*
X0083236Y0099300D01*
X0083236Y0099300D01*
X0083236Y0096319D01*
X0087804Y0096319D01*
X0088262Y0096442D01*
X0088672Y0096679D01*
X0089007Y0097014D01*
X0089244Y0097424D01*
X0089367Y0097882D01*
X0089367Y0099300D01*
X0089367Y0100718D01*
X0089244Y0101176D01*
X0089007Y0101586D01*
X0088672Y0101921D01*
X0088647Y0101936D01*
X0089167Y0102456D01*
X0089167Y0102700D01*
X0091870Y0102700D01*
X0093100Y0103930D01*
X0093870Y0104700D01*
X0105298Y0104700D01*
X0105298Y0103381D01*
X0106235Y0102444D01*
X0111891Y0102444D01*
X0112828Y0104309D02*
X0113172Y0104309D01*
X0113172Y0105908D02*
X0112828Y0105908D01*
X0112828Y0107506D02*
X0113172Y0107506D01*
X0113172Y0109105D02*
X0112828Y0109105D01*
X0112344Y0110703D02*
X0113656Y0110703D01*
X0113528Y0112302D02*
X0089013Y0112302D01*
X0089167Y0113900D02*
X0111930Y0113900D01*
X0110331Y0115499D02*
X0089167Y0115499D01*
X0089167Y0110703D02*
X0105782Y0110703D01*
X0105298Y0109105D02*
X0089167Y0109105D01*
X0089167Y0107506D02*
X0090736Y0107506D01*
X0093479Y0104309D02*
X0105298Y0104309D01*
X0105968Y0102711D02*
X0091881Y0102711D01*
X0089261Y0101112D02*
X0177718Y0101112D01*
X0179316Y0099514D02*
X0089367Y0099514D01*
X0089367Y0099300D02*
X0083236Y0099300D01*
X0083236Y0099300D01*
X0089367Y0099300D01*
X0089367Y0097915D02*
X0180915Y0097915D01*
X0182059Y0102711D02*
X0190968Y0102711D01*
X0190298Y0104309D02*
X0180461Y0104309D01*
X0178862Y0105908D02*
X0190298Y0105908D01*
X0190298Y0107506D02*
X0177264Y0107506D01*
X0175665Y0109105D02*
X0190298Y0109105D01*
X0190782Y0110703D02*
X0175218Y0110703D01*
X0175472Y0112302D02*
X0191900Y0112302D01*
X0191900Y0113900D02*
X0177070Y0113900D01*
X0178669Y0115499D02*
X0191900Y0115499D01*
X0191900Y0117097D02*
X0180100Y0117097D01*
X0180100Y0118696D02*
X0191900Y0118696D01*
X0191536Y0120294D02*
X0180100Y0120294D01*
X0180100Y0121893D02*
X0189937Y0121893D01*
X0188339Y0123491D02*
X0180100Y0123491D01*
X0180100Y0125090D02*
X0186740Y0125090D01*
X0185900Y0126688D02*
X0180100Y0126688D01*
X0180100Y0128287D02*
X0185900Y0128287D01*
X0185900Y0129885D02*
X0180100Y0129885D01*
X0180100Y0131484D02*
X0185900Y0131484D01*
X0185900Y0133082D02*
X0180100Y0133082D01*
X0180100Y0134681D02*
X0185900Y0134681D01*
X0185900Y0136279D02*
X0180100Y0136279D01*
X0179892Y0137878D02*
X0186108Y0137878D01*
X0187707Y0139476D02*
X0178293Y0139476D01*
X0176695Y0141075D02*
X0195755Y0141075D01*
X0194157Y0142673D02*
X0175100Y0142673D01*
X0175100Y0144272D02*
X0192558Y0144272D01*
X0190960Y0145870D02*
X0175100Y0145870D01*
X0175100Y0147469D02*
X0189361Y0147469D01*
X0187763Y0149068D02*
X0175100Y0149068D01*
X0175100Y0150666D02*
X0186164Y0150666D01*
X0184566Y0152265D02*
X0175100Y0152265D01*
X0175100Y0153863D02*
X0182967Y0153863D01*
X0181369Y0155462D02*
X0175100Y0155462D01*
X0178771Y0157060D02*
X0179900Y0157060D01*
X0179900Y0158659D02*
X0179167Y0158659D01*
X0179167Y0160257D02*
X0179900Y0160257D01*
X0184100Y0160257D02*
X0199573Y0160257D01*
X0198738Y0158659D02*
X0184111Y0158659D01*
X0185710Y0157060D02*
X0198644Y0157060D01*
X0198644Y0155462D02*
X0187308Y0155462D01*
X0188907Y0153863D02*
X0198644Y0153863D01*
X0199288Y0152265D02*
X0190505Y0152265D01*
X0192104Y0150666D02*
X0198644Y0150666D01*
X0198644Y0149068D02*
X0193702Y0149068D01*
X0195301Y0147469D02*
X0198644Y0147469D01*
X0198644Y0145870D02*
X0196899Y0145870D01*
X0198498Y0144272D02*
X0199407Y0144272D01*
X0200096Y0142673D02*
X0214782Y0142673D01*
X0215040Y0145870D02*
X0220494Y0145870D01*
X0220494Y0144272D02*
X0206593Y0144272D01*
X0207356Y0150666D02*
X0213896Y0150666D01*
X0215495Y0152265D02*
X0206712Y0152265D01*
X0207356Y0153863D02*
X0217093Y0153863D01*
X0218692Y0155462D02*
X0207356Y0155462D01*
X0207356Y0157060D02*
X0281901Y0157060D01*
X0281901Y0155462D02*
X0237308Y0155462D01*
X0238907Y0153863D02*
X0281901Y0153863D01*
X0281901Y0152265D02*
X0240100Y0152265D01*
X0240100Y0150666D02*
X0281901Y0150666D01*
X0281901Y0149068D02*
X0240100Y0149068D01*
X0240100Y0147469D02*
X0281901Y0147469D01*
X0281901Y0145870D02*
X0240100Y0145870D01*
X0240100Y0144272D02*
X0281901Y0144272D01*
X0281901Y0142673D02*
X0240100Y0142673D01*
X0240100Y0141075D02*
X0281901Y0141075D01*
X0281901Y0139476D02*
X0240100Y0139476D01*
X0240100Y0137878D02*
X0281901Y0137878D01*
X0281901Y0136279D02*
X0240100Y0136279D01*
X0240100Y0134681D02*
X0281901Y0134681D01*
X0281901Y0133082D02*
X0240100Y0133082D01*
X0240100Y0131484D02*
X0281901Y0131484D01*
X0281901Y0129885D02*
X0240100Y0129885D01*
X0240100Y0128287D02*
X0281901Y0128287D01*
X0281901Y0126688D02*
X0240100Y0126688D01*
X0239260Y0125090D02*
X0281901Y0125090D01*
X0281901Y0123491D02*
X0237661Y0123491D01*
X0235130Y0126900D02*
X0227870Y0126900D01*
X0227523Y0127247D01*
X0227875Y0127247D01*
X0227906Y0127278D01*
X0228093Y0127170D01*
X0228550Y0127047D01*
X0230867Y0127047D01*
X0230867Y0131320D01*
X0231826Y0131320D01*
X0231826Y0127047D01*
X0234142Y0127047D01*
X0234600Y0127170D01*
X0235011Y0127407D01*
X0235346Y0127742D01*
X0235583Y0128152D01*
X0235705Y0128610D01*
X0235705Y0131320D01*
X0231826Y0131320D01*
X0231826Y0132280D01*
X0230867Y0132280D01*
X0230867Y0135700D01*
X0230870Y0135700D01*
X0231870Y0136700D01*
X0234870Y0136700D01*
X0235900Y0137730D01*
X0235900Y0127670D01*
X0235130Y0126900D01*
X0235619Y0128287D02*
X0235900Y0128287D01*
X0235900Y0129885D02*
X0235705Y0129885D01*
X0235900Y0131484D02*
X0231826Y0131484D01*
X0231826Y0132280D02*
X0235705Y0132280D01*
X0235705Y0134990D01*
X0235583Y0135448D01*
X0235346Y0135858D01*
X0235011Y0136193D01*
X0234600Y0136430D01*
X0234142Y0136553D01*
X0231826Y0136553D01*
X0231826Y0132280D01*
X0231826Y0133082D02*
X0230867Y0133082D01*
X0230867Y0134681D02*
X0231826Y0134681D01*
X0231826Y0136279D02*
X0231449Y0136279D01*
X0234861Y0136279D02*
X0235900Y0136279D01*
X0235900Y0134681D02*
X0235705Y0134681D01*
X0235705Y0133082D02*
X0235900Y0133082D01*
X0231826Y0129885D02*
X0230867Y0129885D01*
X0230867Y0128287D02*
X0231826Y0128287D01*
X0225339Y0123491D02*
X0215661Y0123491D01*
X0217260Y0125090D02*
X0223740Y0125090D01*
X0222900Y0126688D02*
X0218858Y0126688D01*
X0220457Y0128287D02*
X0220494Y0128287D01*
X0216116Y0129885D02*
X0205702Y0129885D01*
X0205608Y0128287D02*
X0214517Y0128287D01*
X0198266Y0128287D02*
X0197734Y0128287D01*
X0197828Y0129885D02*
X0198172Y0129885D01*
X0198172Y0131484D02*
X0197828Y0131484D01*
X0197828Y0133082D02*
X0198172Y0133082D01*
X0198172Y0134681D02*
X0197828Y0134681D01*
X0197551Y0136279D02*
X0190449Y0136279D01*
X0190298Y0134681D02*
X0190100Y0134681D01*
X0190100Y0133082D02*
X0190298Y0133082D01*
X0190298Y0131484D02*
X0190100Y0131484D01*
X0190100Y0129885D02*
X0190298Y0129885D01*
X0190392Y0128287D02*
X0190100Y0128287D01*
X0191081Y0126688D02*
X0191900Y0126688D01*
X0192680Y0125090D02*
X0192740Y0125090D01*
X0194279Y0123491D02*
X0194339Y0123491D01*
X0195877Y0121893D02*
X0281901Y0121893D01*
X0281901Y0120294D02*
X0196100Y0120294D01*
X0196100Y0118696D02*
X0281901Y0118696D01*
X0281901Y0117097D02*
X0196100Y0117097D01*
X0196100Y0115499D02*
X0218729Y0115499D01*
X0219130Y0115900D02*
X0216130Y0112900D01*
X0214900Y0111670D01*
X0214900Y0088900D01*
X0205702Y0088900D01*
X0205702Y0090219D01*
X0204765Y0091156D01*
X0199109Y0091156D01*
X0198172Y0090219D01*
X0198172Y0083381D01*
X0199109Y0082444D01*
X0204765Y0082444D01*
X0205702Y0083381D01*
X0205702Y0084700D01*
X0220494Y0084700D01*
X0220494Y0083184D01*
X0221432Y0082247D01*
X0227875Y0082247D01*
X0228000Y0082372D01*
X0228125Y0082247D01*
X0228900Y0082247D01*
X0228900Y0071353D01*
X0228125Y0071353D01*
X0228000Y0071228D01*
X0227875Y0071353D01*
X0221432Y0071353D01*
X0220494Y0070415D01*
X0220494Y0068900D01*
X0219991Y0068900D01*
X0219039Y0069852D01*
X0217716Y0070400D01*
X0216284Y0070400D01*
X0214961Y0069852D01*
X0214009Y0068900D01*
X0205702Y0068900D01*
X0205702Y0070219D01*
X0204765Y0071156D01*
X0199109Y0071156D01*
X0198172Y0070219D01*
X0198172Y0063381D01*
X0199109Y0062444D01*
X0204765Y0062444D01*
X0205702Y0063381D01*
X0205702Y0064700D01*
X0214009Y0064700D01*
X0214961Y0063748D01*
X0216284Y0063200D01*
X0217716Y0063200D01*
X0219039Y0063748D01*
X0219991Y0064700D01*
X0220494Y0064700D01*
X0220494Y0063184D01*
X0221432Y0062247D01*
X0227875Y0062247D01*
X0228000Y0062372D01*
X0228125Y0062247D01*
X0234568Y0062247D01*
X0235505Y0063184D01*
X0235505Y0070415D01*
X0234568Y0071353D01*
X0233100Y0071353D01*
X0233100Y0082247D01*
X0234568Y0082247D01*
X0235505Y0083184D01*
X0235505Y0090415D01*
X0234568Y0091353D01*
X0234100Y0091353D01*
X0234100Y0102444D01*
X0234765Y0102444D01*
X0235702Y0103381D01*
X0235702Y0110219D01*
X0234765Y0111156D01*
X0229109Y0111156D01*
X0228172Y0110219D01*
X0228172Y0103381D01*
X0229109Y0102444D01*
X0229900Y0102444D01*
X0229900Y0091353D01*
X0228125Y0091353D01*
X0228000Y0091228D01*
X0227875Y0091353D01*
X0221432Y0091353D01*
X0220494Y0090415D01*
X0220494Y0088900D01*
X0219100Y0088900D01*
X0219100Y0109930D01*
X0220870Y0111700D01*
X0235130Y0111700D01*
X0250900Y0095930D01*
X0250900Y0089502D01*
X0249581Y0089502D01*
X0248644Y0088565D01*
X0248644Y0082909D01*
X0249581Y0081972D01*
X0256419Y0081972D01*
X0257356Y0082909D01*
X0257356Y0088565D01*
X0256419Y0089502D01*
X0255100Y0089502D01*
X0255100Y0097670D01*
X0238100Y0114670D01*
X0236870Y0115900D01*
X0219130Y0115900D01*
X0217130Y0113900D02*
X0196100Y0113900D01*
X0196100Y0112302D02*
X0215532Y0112302D01*
X0214900Y0110703D02*
X0205218Y0110703D01*
X0205702Y0109105D02*
X0214900Y0109105D01*
X0214900Y0107506D02*
X0205702Y0107506D01*
X0205702Y0105908D02*
X0214900Y0105908D01*
X0214900Y0104309D02*
X0205702Y0104309D01*
X0205032Y0102711D02*
X0214900Y0102711D01*
X0214900Y0101112D02*
X0204100Y0101112D01*
X0202684Y0099514D02*
X0214900Y0099514D01*
X0214900Y0097915D02*
X0201085Y0097915D01*
X0198842Y0102711D02*
X0197158Y0102711D01*
X0197828Y0104309D02*
X0198172Y0104309D01*
X0198172Y0105908D02*
X0197828Y0105908D01*
X0197828Y0107506D02*
X0198172Y0107506D01*
X0198172Y0109105D02*
X0197828Y0109105D01*
X0197344Y0110703D02*
X0198656Y0110703D01*
X0219100Y0109105D02*
X0220098Y0109105D01*
X0220098Y0109793D02*
X0220098Y0107083D01*
X0223780Y0107083D01*
X0223780Y0111356D01*
X0221661Y0111356D01*
X0221203Y0111233D01*
X0220792Y0110996D01*
X0220457Y0110661D01*
X0220220Y0110251D01*
X0220098Y0109793D01*
X0219873Y0110703D02*
X0220499Y0110703D01*
X0223780Y0110703D02*
X0224346Y0110703D01*
X0224346Y0111356D02*
X0226465Y0111356D01*
X0226923Y0111233D01*
X0227334Y0110996D01*
X0227669Y0110661D01*
X0227906Y0110251D01*
X0228028Y0109793D01*
X0228028Y0107083D01*
X0224346Y0107083D01*
X0224346Y0106517D01*
X0228028Y0106517D01*
X0228028Y0103807D01*
X0227906Y0103349D01*
X0227669Y0102939D01*
X0227334Y0102604D01*
X0226923Y0102367D01*
X0226465Y0102244D01*
X0224346Y0102244D01*
X0224346Y0106517D01*
X0223780Y0106517D01*
X0223780Y0102244D01*
X0221661Y0102244D01*
X0221203Y0102367D01*
X0220792Y0102604D01*
X0220457Y0102939D01*
X0220220Y0103349D01*
X0220098Y0103807D01*
X0220098Y0106517D01*
X0223780Y0106517D01*
X0223780Y0107083D01*
X0224346Y0107083D01*
X0224346Y0111356D01*
X0224346Y0109105D02*
X0223780Y0109105D01*
X0223780Y0107506D02*
X0224346Y0107506D01*
X0224346Y0105908D02*
X0223780Y0105908D01*
X0223780Y0104309D02*
X0224346Y0104309D01*
X0224346Y0102711D02*
X0223780Y0102711D01*
X0220685Y0102711D02*
X0219100Y0102711D01*
X0219100Y0104309D02*
X0220098Y0104309D01*
X0220098Y0105908D02*
X0219100Y0105908D01*
X0219100Y0107506D02*
X0220098Y0107506D01*
X0228028Y0107506D02*
X0228172Y0107506D01*
X0228172Y0105908D02*
X0228028Y0105908D01*
X0228028Y0104309D02*
X0228172Y0104309D01*
X0228842Y0102711D02*
X0227441Y0102711D01*
X0229900Y0101112D02*
X0219100Y0101112D01*
X0219100Y0099514D02*
X0229900Y0099514D01*
X0229900Y0097915D02*
X0219100Y0097915D01*
X0219100Y0096317D02*
X0229900Y0096317D01*
X0229900Y0094718D02*
X0219100Y0094718D01*
X0219100Y0093120D02*
X0229900Y0093120D01*
X0229900Y0091521D02*
X0219100Y0091521D01*
X0219100Y0089923D02*
X0220494Y0089923D01*
X0214900Y0089923D02*
X0205702Y0089923D01*
X0198172Y0089923D02*
X0197828Y0089923D01*
X0197828Y0090219D02*
X0196891Y0091156D01*
X0191235Y0091156D01*
X0190298Y0090219D01*
X0190298Y0083381D01*
X0191235Y0082444D01*
X0191900Y0082444D01*
X0191900Y0081900D01*
X0167870Y0081900D01*
X0167523Y0082247D01*
X0167875Y0082247D01*
X0167906Y0082278D01*
X0168093Y0082170D01*
X0168550Y0082047D01*
X0170867Y0082047D01*
X0170867Y0086320D01*
X0171826Y0086320D01*
X0171826Y0082047D01*
X0174142Y0082047D01*
X0174600Y0082170D01*
X0175011Y0082407D01*
X0175346Y0082742D01*
X0175583Y0083152D01*
X0175705Y0083610D01*
X0175705Y0086320D01*
X0171826Y0086320D01*
X0171826Y0087280D01*
X0170867Y0087280D01*
X0170867Y0091553D01*
X0168550Y0091553D01*
X0168093Y0091430D01*
X0167906Y0091322D01*
X0167875Y0091353D01*
X0161432Y0091353D01*
X0160494Y0090415D01*
X0160494Y0083184D01*
X0161432Y0082247D01*
X0162900Y0082247D01*
X0162900Y0080930D01*
X0164900Y0078930D01*
X0166130Y0077700D01*
X0191900Y0077700D01*
X0191900Y0071156D01*
X0191235Y0071156D01*
X0190298Y0070219D01*
X0190298Y0063381D01*
X0191235Y0062444D01*
X0196891Y0062444D01*
X0197828Y0063381D01*
X0197828Y0070219D01*
X0196891Y0071156D01*
X0196100Y0071156D01*
X0196100Y0082444D01*
X0196891Y0082444D01*
X0197828Y0083381D01*
X0197828Y0090219D01*
X0197828Y0088324D02*
X0198172Y0088324D01*
X0198172Y0086726D02*
X0197828Y0086726D01*
X0197828Y0085127D02*
X0198172Y0085127D01*
X0198172Y0083529D02*
X0197828Y0083529D01*
X0196100Y0081930D02*
X0228900Y0081930D01*
X0228900Y0080332D02*
X0196100Y0080332D01*
X0196100Y0078733D02*
X0228900Y0078733D01*
X0228900Y0077134D02*
X0196100Y0077134D01*
X0196100Y0075536D02*
X0228900Y0075536D01*
X0228900Y0073937D02*
X0196100Y0073937D01*
X0196100Y0072339D02*
X0228900Y0072339D01*
X0233100Y0072339D02*
X0250900Y0072339D01*
X0250900Y0073937D02*
X0233100Y0073937D01*
X0233100Y0075536D02*
X0248644Y0075536D01*
X0248644Y0075035D02*
X0249581Y0074098D01*
X0250900Y0074098D01*
X0250900Y0033844D01*
X0250412Y0033641D01*
X0249127Y0032356D01*
X0248431Y0030677D01*
X0248431Y0022923D01*
X0249127Y0021244D01*
X0250412Y0019959D01*
X0252091Y0019263D01*
X0253909Y0019263D01*
X0255588Y0019959D01*
X0256873Y0021244D01*
X0257568Y0022923D01*
X0257568Y0030677D01*
X0256873Y0032356D01*
X0255588Y0033641D01*
X0255100Y0033844D01*
X0255100Y0074098D01*
X0256419Y0074098D01*
X0257356Y0075035D01*
X0257356Y0080691D01*
X0256419Y0081628D01*
X0249581Y0081628D01*
X0248644Y0080691D01*
X0248644Y0075035D01*
X0248644Y0077134D02*
X0233100Y0077134D01*
X0233100Y0078733D02*
X0248644Y0078733D01*
X0248644Y0080332D02*
X0233100Y0080332D01*
X0233100Y0081930D02*
X0281901Y0081930D01*
X0281901Y0080332D02*
X0257356Y0080332D01*
X0257356Y0078733D02*
X0281901Y0078733D01*
X0281901Y0077134D02*
X0257356Y0077134D01*
X0257356Y0075536D02*
X0281901Y0075536D01*
X0281901Y0073937D02*
X0255100Y0073937D01*
X0255100Y0072339D02*
X0281901Y0072339D01*
X0281901Y0070740D02*
X0255100Y0070740D01*
X0255100Y0069142D02*
X0281901Y0069142D01*
X0281901Y0067543D02*
X0255100Y0067543D01*
X0255100Y0065945D02*
X0281901Y0065945D01*
X0281901Y0064346D02*
X0255100Y0064346D01*
X0255100Y0062748D02*
X0281901Y0062748D01*
X0281901Y0061149D02*
X0255100Y0061149D01*
X0255100Y0059551D02*
X0281901Y0059551D01*
X0281901Y0057952D02*
X0255100Y0057952D01*
X0255100Y0056354D02*
X0281901Y0056354D01*
X0281901Y0054755D02*
X0255100Y0054755D01*
X0255100Y0053157D02*
X0281901Y0053157D01*
X0281901Y0051558D02*
X0255100Y0051558D01*
X0255100Y0049960D02*
X0281901Y0049960D01*
X0281901Y0048361D02*
X0255100Y0048361D01*
X0255100Y0046763D02*
X0281901Y0046763D01*
X0281901Y0045164D02*
X0255100Y0045164D01*
X0255100Y0043566D02*
X0281901Y0043566D01*
X0281901Y0041967D02*
X0255100Y0041967D01*
X0255100Y0040369D02*
X0281901Y0040369D01*
X0281901Y0038770D02*
X0255100Y0038770D01*
X0255100Y0037172D02*
X0281901Y0037172D01*
X0281901Y0035573D02*
X0255100Y0035573D01*
X0255100Y0033975D02*
X0261217Y0033975D01*
X0260412Y0033641D02*
X0259127Y0032356D01*
X0258431Y0030677D01*
X0258431Y0022923D01*
X0259127Y0021244D01*
X0260412Y0019959D01*
X0262091Y0019263D01*
X0263909Y0019263D01*
X0265588Y0019959D01*
X0266873Y0021244D01*
X0267568Y0022923D01*
X0267568Y0030677D01*
X0266873Y0032356D01*
X0265588Y0033641D01*
X0263909Y0034337D01*
X0262091Y0034337D01*
X0260412Y0033641D01*
X0259147Y0032376D02*
X0256853Y0032376D01*
X0257527Y0030778D02*
X0258473Y0030778D01*
X0258431Y0029179D02*
X0257568Y0029179D01*
X0257568Y0027581D02*
X0258431Y0027581D01*
X0258431Y0025982D02*
X0257568Y0025982D01*
X0257568Y0024384D02*
X0258431Y0024384D01*
X0258488Y0022785D02*
X0257511Y0022785D01*
X0256816Y0021187D02*
X0259184Y0021187D01*
X0261306Y0019588D02*
X0254694Y0019588D01*
X0251306Y0019588D02*
X0012800Y0019588D01*
X0012800Y0017990D02*
X0281901Y0017990D01*
X0281901Y0019588D02*
X0264694Y0019588D01*
X0266816Y0021187D02*
X0281901Y0021187D01*
X0281901Y0022785D02*
X0267511Y0022785D01*
X0267568Y0024384D02*
X0281901Y0024384D01*
X0281901Y0025982D02*
X0267568Y0025982D01*
X0267568Y0027581D02*
X0281901Y0027581D01*
X0281901Y0029179D02*
X0267568Y0029179D01*
X0267527Y0030778D02*
X0281901Y0030778D01*
X0281901Y0032376D02*
X0266853Y0032376D01*
X0264783Y0033975D02*
X0281901Y0033975D01*
X0281901Y0016391D02*
X0012800Y0016391D01*
X0012800Y0014793D02*
X0281901Y0014793D01*
X0281901Y0013194D02*
X0012800Y0013194D01*
X0012800Y0011600D02*
X0012800Y0196961D01*
X0281901Y0196961D01*
X0281901Y0011600D01*
X0012800Y0011600D01*
X0012800Y0021187D02*
X0249184Y0021187D01*
X0248488Y0022785D02*
X0012800Y0022785D01*
X0012800Y0024384D02*
X0248431Y0024384D01*
X0248431Y0025982D02*
X0012800Y0025982D01*
X0012800Y0027581D02*
X0248431Y0027581D01*
X0248431Y0029179D02*
X0169349Y0029179D01*
X0170948Y0030778D02*
X0248473Y0030778D01*
X0249147Y0032376D02*
X0172546Y0032376D01*
X0174145Y0033975D02*
X0183248Y0033975D01*
X0182384Y0035573D02*
X0175743Y0035573D01*
X0177342Y0037172D02*
X0182384Y0037172D01*
X0182384Y0038770D02*
X0178940Y0038770D01*
X0180539Y0040369D02*
X0182384Y0040369D01*
X0182384Y0041967D02*
X0182100Y0041967D01*
X0177796Y0043566D02*
X0167277Y0043566D01*
X0167277Y0045164D02*
X0177900Y0045164D01*
X0177993Y0046763D02*
X0167277Y0046763D01*
X0167277Y0048361D02*
X0176469Y0048361D01*
X0174870Y0049960D02*
X0167277Y0049960D01*
X0168849Y0051558D02*
X0173272Y0051558D01*
X0176014Y0054755D02*
X0250900Y0054755D01*
X0250900Y0053157D02*
X0177613Y0053157D01*
X0179212Y0051558D02*
X0250900Y0051558D01*
X0250900Y0049960D02*
X0180810Y0049960D01*
X0176197Y0041967D02*
X0167277Y0041967D01*
X0167277Y0040369D02*
X0174599Y0040369D01*
X0173000Y0038770D02*
X0167277Y0038770D01*
X0167277Y0037172D02*
X0171402Y0037172D01*
X0169803Y0035573D02*
X0167277Y0035573D01*
X0167277Y0033975D02*
X0168205Y0033975D01*
X0166606Y0032376D02*
X0149394Y0032376D01*
X0148723Y0033975D02*
X0147795Y0033975D01*
X0148723Y0035573D02*
X0146197Y0035573D01*
X0144598Y0037172D02*
X0148723Y0037172D01*
X0148723Y0038770D02*
X0143000Y0038770D01*
X0142461Y0040369D02*
X0141401Y0040369D01*
X0140863Y0041967D02*
X0139803Y0041967D01*
X0139264Y0043566D02*
X0138204Y0043566D01*
X0137666Y0045164D02*
X0133616Y0045164D01*
X0133616Y0046763D02*
X0136067Y0046763D01*
X0134469Y0048361D02*
X0133616Y0048361D01*
X0133616Y0038770D02*
X0137060Y0038770D01*
X0138658Y0037172D02*
X0133616Y0037172D01*
X0133616Y0035573D02*
X0140257Y0035573D01*
X0141855Y0033975D02*
X0132752Y0033975D01*
X0143454Y0032376D02*
X0076113Y0032376D01*
X0075914Y0032323D02*
X0076372Y0032445D01*
X0076782Y0032682D01*
X0077118Y0033018D01*
X0077354Y0033428D01*
X0077477Y0033886D01*
X0077477Y0041000D01*
X0068800Y0041000D01*
X0068800Y0042600D01*
X0067200Y0042600D01*
X0067200Y0051277D01*
X0060086Y0051277D01*
X0059628Y0051154D01*
X0059218Y0050918D01*
X0058882Y0050582D01*
X0058645Y0050172D01*
X0058523Y0049714D01*
X0058523Y0042600D01*
X0067200Y0042600D01*
X0067200Y0041000D01*
X0058523Y0041000D01*
X0058523Y0033886D01*
X0058645Y0033428D01*
X0058882Y0033018D01*
X0059218Y0032682D01*
X0059628Y0032445D01*
X0060086Y0032323D01*
X0067200Y0032323D01*
X0067200Y0041000D01*
X0068800Y0041000D01*
X0068800Y0032323D01*
X0075914Y0032323D01*
X0077477Y0033975D02*
X0093248Y0033975D01*
X0092384Y0035573D02*
X0077477Y0035573D01*
X0077477Y0037172D02*
X0092384Y0037172D01*
X0092384Y0038770D02*
X0077477Y0038770D01*
X0077477Y0040369D02*
X0092384Y0040369D01*
X0091863Y0041967D02*
X0068800Y0041967D01*
X0068800Y0042600D02*
X0077477Y0042600D01*
X0077477Y0049714D01*
X0077354Y0050172D01*
X0077118Y0050582D01*
X0076782Y0050918D01*
X0076372Y0051154D01*
X0075914Y0051277D01*
X0068800Y0051277D01*
X0068800Y0042600D01*
X0068800Y0043566D02*
X0067200Y0043566D01*
X0067200Y0045164D02*
X0068800Y0045164D01*
X0068800Y0046763D02*
X0067200Y0046763D01*
X0067200Y0048361D02*
X0068800Y0048361D01*
X0068800Y0049960D02*
X0067200Y0049960D01*
X0067200Y0041967D02*
X0043616Y0041967D01*
X0043616Y0040369D02*
X0058523Y0040369D01*
X0058523Y0038770D02*
X0043616Y0038770D01*
X0043616Y0037172D02*
X0058523Y0037172D01*
X0058523Y0035573D02*
X0043616Y0035573D01*
X0042752Y0033975D02*
X0058523Y0033975D01*
X0059887Y0032376D02*
X0012800Y0032376D01*
X0012800Y0030778D02*
X0145052Y0030778D01*
X0146651Y0029179D02*
X0012800Y0029179D01*
X0012800Y0033975D02*
X0028681Y0033975D01*
X0027817Y0035573D02*
X0012800Y0035573D01*
X0012800Y0037172D02*
X0027817Y0037172D01*
X0027817Y0038770D02*
X0012800Y0038770D01*
X0012800Y0040369D02*
X0027817Y0040369D01*
X0027817Y0041967D02*
X0012800Y0041967D01*
X0012800Y0043566D02*
X0027817Y0043566D01*
X0027817Y0045164D02*
X0012800Y0045164D01*
X0012800Y0046763D02*
X0027817Y0046763D01*
X0027817Y0048361D02*
X0012800Y0048361D01*
X0012800Y0049960D02*
X0036190Y0049960D01*
X0037788Y0051558D02*
X0012800Y0051558D01*
X0012800Y0053157D02*
X0039387Y0053157D01*
X0040985Y0054755D02*
X0012800Y0054755D01*
X0012800Y0056354D02*
X0042584Y0056354D01*
X0044183Y0057952D02*
X0012800Y0057952D01*
X0012800Y0059551D02*
X0045781Y0059551D01*
X0047380Y0061149D02*
X0012800Y0061149D01*
X0012800Y0062748D02*
X0048978Y0062748D01*
X0050577Y0064346D02*
X0012800Y0064346D01*
X0012800Y0065945D02*
X0052175Y0065945D01*
X0053774Y0067543D02*
X0012800Y0067543D01*
X0012800Y0069142D02*
X0055372Y0069142D01*
X0056971Y0070740D02*
X0012800Y0070740D01*
X0012800Y0072339D02*
X0058569Y0072339D01*
X0060168Y0073937D02*
X0012800Y0073937D01*
X0012800Y0075536D02*
X0060900Y0075536D01*
X0060900Y0077134D02*
X0012800Y0077134D01*
X0012800Y0078733D02*
X0060900Y0078733D01*
X0060900Y0080332D02*
X0012800Y0080332D01*
X0012800Y0081930D02*
X0060900Y0081930D01*
X0060900Y0083529D02*
X0012800Y0083529D01*
X0012800Y0085127D02*
X0060900Y0085127D01*
X0060900Y0086726D02*
X0012800Y0086726D01*
X0012800Y0088324D02*
X0060900Y0088324D01*
X0060900Y0089923D02*
X0012800Y0089923D01*
X0012800Y0091521D02*
X0060900Y0091521D01*
X0060900Y0093120D02*
X0012800Y0093120D01*
X0012800Y0094718D02*
X0060900Y0094718D01*
X0060900Y0096317D02*
X0012800Y0096317D01*
X0012800Y0097915D02*
X0017472Y0097915D01*
X0016034Y0099514D02*
X0012800Y0099514D01*
X0012800Y0101112D02*
X0015463Y0101112D01*
X0015464Y0102711D02*
X0012800Y0102711D01*
X0012800Y0104309D02*
X0016126Y0104309D01*
X0018010Y0105908D02*
X0012800Y0105908D01*
X0012800Y0107506D02*
X0018460Y0107506D01*
X0016266Y0109105D02*
X0012800Y0109105D01*
X0012800Y0110703D02*
X0015541Y0110703D01*
X0015463Y0112302D02*
X0012800Y0112302D01*
X0012800Y0113900D02*
X0015957Y0113900D01*
X0017269Y0115499D02*
X0012800Y0115499D01*
X0012800Y0117097D02*
X0062900Y0117097D01*
X0062926Y0118696D02*
X0012800Y0118696D01*
X0012800Y0120294D02*
X0064524Y0120294D01*
X0066123Y0121893D02*
X0012800Y0121893D01*
X0012800Y0123491D02*
X0066900Y0123491D01*
X0066900Y0125090D02*
X0012800Y0125090D01*
X0012800Y0126688D02*
X0066900Y0126688D01*
X0065392Y0128287D02*
X0012800Y0128287D01*
X0012800Y0129885D02*
X0065298Y0129885D01*
X0065298Y0131484D02*
X0012800Y0131484D01*
X0012800Y0133082D02*
X0065298Y0133082D01*
X0065298Y0134681D02*
X0012800Y0134681D01*
X0012800Y0152265D02*
X0111414Y0152265D01*
X0110494Y0153863D02*
X0012800Y0153863D01*
X0012800Y0155462D02*
X0110494Y0155462D01*
X0110494Y0157060D02*
X0012800Y0157060D01*
X0012800Y0158659D02*
X0110494Y0158659D01*
X0110494Y0160257D02*
X0012800Y0160257D01*
X0012800Y0177841D02*
X0152900Y0177841D01*
X0153669Y0179439D02*
X0012800Y0179439D01*
X0012800Y0181038D02*
X0155268Y0181038D01*
X0179069Y0176242D02*
X0183588Y0176242D01*
X0185186Y0174644D02*
X0179167Y0174644D01*
X0179167Y0173045D02*
X0186785Y0173045D01*
X0188383Y0171447D02*
X0178864Y0171447D01*
X0179167Y0169848D02*
X0189982Y0169848D01*
X0191580Y0168250D02*
X0179167Y0168250D01*
X0178660Y0166651D02*
X0193179Y0166651D01*
X0194778Y0165053D02*
X0181717Y0165053D01*
X0183316Y0163454D02*
X0196376Y0163454D01*
X0197975Y0161856D02*
X0184100Y0161856D01*
X0195922Y0169848D02*
X0281901Y0169848D01*
X0281901Y0168250D02*
X0197520Y0168250D01*
X0199119Y0166651D02*
X0281901Y0166651D01*
X0281901Y0165053D02*
X0200717Y0165053D01*
X0202316Y0163454D02*
X0281901Y0163454D01*
X0281901Y0161856D02*
X0203914Y0161856D01*
X0205100Y0160257D02*
X0281901Y0160257D01*
X0281901Y0158659D02*
X0207262Y0158659D01*
X0218237Y0149068D02*
X0220494Y0149068D01*
X0220494Y0147469D02*
X0216639Y0147469D01*
X0219836Y0150666D02*
X0220745Y0150666D01*
X0221006Y0142673D02*
X0219218Y0142673D01*
X0237271Y0115499D02*
X0281901Y0115499D01*
X0281901Y0113900D02*
X0238870Y0113900D01*
X0240468Y0112302D02*
X0281901Y0112302D01*
X0281901Y0110703D02*
X0242067Y0110703D01*
X0243665Y0109105D02*
X0281901Y0109105D01*
X0281901Y0107506D02*
X0245264Y0107506D01*
X0246862Y0105908D02*
X0281901Y0105908D01*
X0281901Y0104309D02*
X0248461Y0104309D01*
X0250059Y0102711D02*
X0281901Y0102711D01*
X0281901Y0101112D02*
X0251658Y0101112D01*
X0253256Y0099514D02*
X0281901Y0099514D01*
X0281901Y0097915D02*
X0254855Y0097915D01*
X0255100Y0096317D02*
X0281901Y0096317D01*
X0281901Y0094718D02*
X0255100Y0094718D01*
X0255100Y0093120D02*
X0281901Y0093120D01*
X0281901Y0091521D02*
X0255100Y0091521D01*
X0255100Y0089923D02*
X0281901Y0089923D01*
X0281901Y0088324D02*
X0257356Y0088324D01*
X0257356Y0086726D02*
X0281901Y0086726D01*
X0281901Y0085127D02*
X0257356Y0085127D01*
X0257356Y0083529D02*
X0281901Y0083529D01*
X0250900Y0089923D02*
X0235505Y0089923D01*
X0235505Y0088324D02*
X0248644Y0088324D01*
X0248644Y0086726D02*
X0235505Y0086726D01*
X0235505Y0085127D02*
X0248644Y0085127D01*
X0248644Y0083529D02*
X0235505Y0083529D01*
X0234100Y0091521D02*
X0250900Y0091521D01*
X0250900Y0093120D02*
X0234100Y0093120D01*
X0234100Y0094718D02*
X0250900Y0094718D01*
X0250514Y0096317D02*
X0234100Y0096317D01*
X0234100Y0097915D02*
X0248915Y0097915D01*
X0247316Y0099514D02*
X0234100Y0099514D01*
X0234100Y0101112D02*
X0245718Y0101112D01*
X0244119Y0102711D02*
X0235032Y0102711D01*
X0235702Y0104309D02*
X0242521Y0104309D01*
X0240922Y0105908D02*
X0235702Y0105908D01*
X0235702Y0107506D02*
X0239324Y0107506D01*
X0237725Y0109105D02*
X0235702Y0109105D01*
X0236127Y0110703D02*
X0235218Y0110703D01*
X0228656Y0110703D02*
X0227627Y0110703D01*
X0228028Y0109105D02*
X0228172Y0109105D01*
X0214900Y0096317D02*
X0077453Y0096317D01*
X0077106Y0097915D02*
X0076100Y0097915D01*
X0076100Y0099514D02*
X0077106Y0099514D01*
X0077211Y0101112D02*
X0076100Y0101112D01*
X0076100Y0102711D02*
X0077306Y0102711D01*
X0077306Y0104309D02*
X0076100Y0104309D01*
X0076100Y0105908D02*
X0077306Y0105908D01*
X0077306Y0107506D02*
X0076676Y0107506D01*
X0073933Y0110703D02*
X0068694Y0110703D01*
X0068694Y0109105D02*
X0072335Y0109105D01*
X0071900Y0107506D02*
X0068694Y0107506D01*
X0068694Y0105908D02*
X0071900Y0105908D01*
X0071900Y0104309D02*
X0068694Y0104309D01*
X0068694Y0102711D02*
X0071900Y0102711D01*
X0071900Y0101112D02*
X0068694Y0101112D01*
X0068694Y0099514D02*
X0071900Y0099514D01*
X0071900Y0097915D02*
X0068694Y0097915D01*
X0071900Y0096317D02*
X0065100Y0096317D01*
X0065100Y0094718D02*
X0073112Y0094718D01*
X0074711Y0093120D02*
X0065100Y0093120D01*
X0065100Y0091521D02*
X0076309Y0091521D01*
X0077908Y0089923D02*
X0065100Y0089923D01*
X0065100Y0088324D02*
X0079506Y0088324D01*
X0081105Y0086726D02*
X0065100Y0086726D01*
X0065100Y0085127D02*
X0082703Y0085127D01*
X0084302Y0083529D02*
X0065100Y0083529D01*
X0065100Y0081930D02*
X0085900Y0081930D01*
X0087499Y0080332D02*
X0065100Y0080332D01*
X0065100Y0078733D02*
X0089097Y0078733D01*
X0090696Y0077134D02*
X0065100Y0077134D01*
X0065100Y0075536D02*
X0092294Y0075536D01*
X0093893Y0073937D02*
X0065832Y0073937D01*
X0067431Y0072339D02*
X0095491Y0072339D01*
X0097090Y0070740D02*
X0069029Y0070740D01*
X0070628Y0069142D02*
X0098688Y0069142D01*
X0100287Y0067543D02*
X0072226Y0067543D01*
X0073825Y0065945D02*
X0101885Y0065945D01*
X0103484Y0064346D02*
X0075423Y0064346D01*
X0077022Y0062748D02*
X0105082Y0062748D01*
X0106681Y0061149D02*
X0078620Y0061149D01*
X0080219Y0059551D02*
X0108279Y0059551D01*
X0109878Y0057952D02*
X0081817Y0057952D01*
X0083416Y0056354D02*
X0111476Y0056354D01*
X0113075Y0054755D02*
X0085014Y0054755D01*
X0086613Y0053157D02*
X0113387Y0053157D01*
X0111788Y0051558D02*
X0088212Y0051558D01*
X0089810Y0049960D02*
X0110190Y0049960D01*
X0108591Y0048361D02*
X0108183Y0048361D01*
X0111334Y0045164D02*
X0117817Y0045164D01*
X0117817Y0043566D02*
X0109736Y0043566D01*
X0108183Y0041967D02*
X0117817Y0041967D01*
X0117817Y0040369D02*
X0108183Y0040369D01*
X0108183Y0038770D02*
X0117817Y0038770D01*
X0117817Y0037172D02*
X0108183Y0037172D01*
X0108183Y0035573D02*
X0117817Y0035573D01*
X0118681Y0033975D02*
X0107319Y0033975D01*
X0112933Y0046763D02*
X0117817Y0046763D01*
X0117817Y0048361D02*
X0114531Y0048361D01*
X0117416Y0056354D02*
X0163463Y0056354D01*
X0168537Y0056354D02*
X0250900Y0056354D01*
X0250900Y0057952D02*
X0115817Y0057952D01*
X0114219Y0059551D02*
X0250900Y0059551D01*
X0250900Y0061149D02*
X0112620Y0061149D01*
X0111022Y0062748D02*
X0190931Y0062748D01*
X0190298Y0064346D02*
X0109423Y0064346D01*
X0107825Y0065945D02*
X0190298Y0065945D01*
X0190298Y0067543D02*
X0106226Y0067543D01*
X0104628Y0069142D02*
X0190298Y0069142D01*
X0190819Y0070740D02*
X0103029Y0070740D01*
X0101431Y0072339D02*
X0191900Y0072339D01*
X0191900Y0073937D02*
X0099832Y0073937D01*
X0098234Y0075536D02*
X0191900Y0075536D01*
X0191900Y0077134D02*
X0096635Y0077134D01*
X0095037Y0078733D02*
X0165097Y0078733D01*
X0163499Y0080332D02*
X0093438Y0080332D01*
X0091840Y0081930D02*
X0162900Y0081930D01*
X0160494Y0083529D02*
X0090241Y0083529D01*
X0088643Y0085127D02*
X0160494Y0085127D01*
X0160494Y0086726D02*
X0087044Y0086726D01*
X0085446Y0088324D02*
X0160494Y0088324D01*
X0160494Y0089923D02*
X0083847Y0089923D01*
X0082249Y0091521D02*
X0168432Y0091521D01*
X0170867Y0091521D02*
X0171826Y0091521D01*
X0171826Y0091553D02*
X0171826Y0087280D01*
X0175705Y0087280D01*
X0175705Y0089990D01*
X0175583Y0090448D01*
X0175346Y0090858D01*
X0175011Y0091193D01*
X0174600Y0091430D01*
X0174142Y0091553D01*
X0171826Y0091553D01*
X0171826Y0089923D02*
X0170867Y0089923D01*
X0170867Y0088324D02*
X0171826Y0088324D01*
X0171826Y0086726D02*
X0190298Y0086726D01*
X0190298Y0088324D02*
X0175705Y0088324D01*
X0175705Y0089923D02*
X0190298Y0089923D01*
X0190298Y0085127D02*
X0175705Y0085127D01*
X0175684Y0083529D02*
X0190298Y0083529D01*
X0191900Y0081930D02*
X0167840Y0081930D01*
X0170867Y0083529D02*
X0171826Y0083529D01*
X0171826Y0085127D02*
X0170867Y0085127D01*
X0174261Y0091521D02*
X0214900Y0091521D01*
X0214900Y0093120D02*
X0080650Y0093120D01*
X0079052Y0094718D02*
X0214900Y0094718D01*
X0220494Y0083529D02*
X0205702Y0083529D01*
X0205181Y0070740D02*
X0220819Y0070740D01*
X0220494Y0069142D02*
X0219749Y0069142D01*
X0214251Y0069142D02*
X0205702Y0069142D01*
X0198693Y0070740D02*
X0197307Y0070740D01*
X0197828Y0069142D02*
X0198172Y0069142D01*
X0198172Y0067543D02*
X0197828Y0067543D01*
X0197828Y0065945D02*
X0198172Y0065945D01*
X0198172Y0064346D02*
X0197828Y0064346D01*
X0197195Y0062748D02*
X0198805Y0062748D01*
X0205069Y0062748D02*
X0220931Y0062748D01*
X0220494Y0064346D02*
X0219638Y0064346D01*
X0214362Y0064346D02*
X0205702Y0064346D01*
X0198183Y0048361D02*
X0250900Y0048361D01*
X0250900Y0046763D02*
X0198183Y0046763D01*
X0198183Y0045164D02*
X0250900Y0045164D01*
X0250900Y0043566D02*
X0198183Y0043566D01*
X0198183Y0041967D02*
X0250900Y0041967D01*
X0250900Y0040369D02*
X0198183Y0040369D01*
X0198183Y0038770D02*
X0250900Y0038770D01*
X0250900Y0037172D02*
X0198183Y0037172D01*
X0198183Y0035573D02*
X0250900Y0035573D01*
X0250900Y0033975D02*
X0197319Y0033975D01*
X0235069Y0062748D02*
X0250900Y0062748D01*
X0250900Y0064346D02*
X0235505Y0064346D01*
X0235505Y0065945D02*
X0250900Y0065945D01*
X0250900Y0067543D02*
X0235505Y0067543D01*
X0235505Y0069142D02*
X0250900Y0069142D01*
X0250900Y0070740D02*
X0235181Y0070740D01*
X0176119Y0102711D02*
X0175032Y0102711D01*
X0165133Y0102711D02*
X0164174Y0102711D01*
X0164174Y0102047D02*
X0164174Y0106320D01*
X0160294Y0106320D01*
X0160294Y0103610D01*
X0160417Y0103152D01*
X0160654Y0102742D01*
X0160989Y0102407D01*
X0161400Y0102170D01*
X0161858Y0102047D01*
X0164174Y0102047D01*
X0160685Y0102711D02*
X0150315Y0102711D01*
X0150705Y0104309D02*
X0160294Y0104309D01*
X0160294Y0105908D02*
X0150705Y0105908D01*
X0150705Y0107280D02*
X0146826Y0107280D01*
X0146826Y0111553D01*
X0149142Y0111553D01*
X0149600Y0111430D01*
X0150011Y0111193D01*
X0150346Y0110858D01*
X0150583Y0110448D01*
X0150705Y0109990D01*
X0150705Y0107280D01*
X0150705Y0107506D02*
X0160294Y0107506D01*
X0160294Y0109105D02*
X0150705Y0109105D01*
X0150435Y0110703D02*
X0160565Y0110703D01*
X0164174Y0110703D02*
X0165133Y0110703D01*
X0165133Y0109105D02*
X0164174Y0109105D01*
X0164174Y0107506D02*
X0165133Y0107506D01*
X0165133Y0105908D02*
X0164174Y0105908D01*
X0164174Y0104309D02*
X0165133Y0104309D01*
X0146826Y0104309D02*
X0145867Y0104309D01*
X0145867Y0102711D02*
X0146826Y0102711D01*
X0146826Y0105908D02*
X0145867Y0105908D01*
X0145867Y0107506D02*
X0146826Y0107506D01*
X0146826Y0109105D02*
X0145867Y0109105D01*
X0145867Y0110703D02*
X0146826Y0110703D01*
X0145608Y0128287D02*
X0160494Y0128287D01*
X0170867Y0128287D02*
X0171826Y0128287D01*
X0171826Y0129885D02*
X0170867Y0129885D01*
X0171826Y0131484D02*
X0175900Y0131484D01*
X0175705Y0132280D02*
X0175705Y0134990D01*
X0175583Y0135448D01*
X0175346Y0135858D01*
X0175011Y0136193D01*
X0174600Y0136430D01*
X0174142Y0136553D01*
X0171826Y0136553D01*
X0171826Y0132280D01*
X0175705Y0132280D01*
X0175705Y0133082D02*
X0175900Y0133082D01*
X0175900Y0134681D02*
X0175705Y0134681D01*
X0175551Y0136279D02*
X0174861Y0136279D01*
X0171826Y0136279D02*
X0170867Y0136279D01*
X0170867Y0134681D02*
X0171826Y0134681D01*
X0171826Y0133082D02*
X0170867Y0133082D01*
X0175705Y0129885D02*
X0175900Y0129885D01*
X0175900Y0128287D02*
X0175619Y0128287D01*
X0138266Y0128287D02*
X0137734Y0128287D01*
X0137828Y0129885D02*
X0138172Y0129885D01*
X0138172Y0131484D02*
X0137828Y0131484D01*
X0137828Y0133082D02*
X0138172Y0133082D01*
X0138172Y0134681D02*
X0137828Y0134681D01*
X0130298Y0134681D02*
X0120702Y0134681D01*
X0120608Y0128287D02*
X0130392Y0128287D01*
X0106900Y0126688D02*
X0079100Y0126688D01*
X0079100Y0125090D02*
X0106900Y0125090D01*
X0106900Y0123491D02*
X0079100Y0123491D01*
X0079877Y0121893D02*
X0106900Y0121893D01*
X0106900Y0120294D02*
X0081476Y0120294D01*
X0083074Y0118696D02*
X0107134Y0118696D01*
X0108733Y0117097D02*
X0083100Y0117097D01*
X0078733Y0117097D02*
X0067267Y0117097D01*
X0068694Y0115499D02*
X0077306Y0115499D01*
X0077306Y0113900D02*
X0068694Y0113900D01*
X0068540Y0112302D02*
X0077460Y0112302D01*
X0077134Y0118696D02*
X0068866Y0118696D01*
X0070464Y0120294D02*
X0075536Y0120294D01*
X0074900Y0121893D02*
X0071100Y0121893D01*
X0071100Y0123491D02*
X0074900Y0123491D01*
X0074900Y0125090D02*
X0071100Y0125090D01*
X0071100Y0126688D02*
X0074900Y0126688D01*
X0073266Y0128287D02*
X0072734Y0128287D01*
X0072828Y0129885D02*
X0073172Y0129885D01*
X0073172Y0131484D02*
X0072828Y0131484D01*
X0072828Y0133082D02*
X0073172Y0133082D01*
X0073172Y0134681D02*
X0072828Y0134681D01*
X0080702Y0134681D02*
X0105298Y0134681D01*
X0105298Y0133082D02*
X0080702Y0133082D01*
X0080702Y0131484D02*
X0105298Y0131484D01*
X0105298Y0129885D02*
X0080702Y0129885D01*
X0080608Y0128287D02*
X0105392Y0128287D01*
X0083236Y0097915D02*
X0083236Y0097915D01*
X0056833Y0097915D02*
X0028528Y0097915D01*
X0029966Y0099514D02*
X0056833Y0099514D01*
X0056833Y0101112D02*
X0030537Y0101112D01*
X0029138Y0105908D02*
X0027990Y0105908D01*
X0027540Y0107506D02*
X0056833Y0107506D01*
X0056987Y0112302D02*
X0030537Y0112302D01*
X0030043Y0113900D02*
X0056833Y0113900D01*
X0056833Y0115499D02*
X0028731Y0115499D01*
X0062910Y0070740D02*
X0063090Y0070740D01*
X0064688Y0069142D02*
X0061312Y0069142D01*
X0059713Y0067543D02*
X0066287Y0067543D01*
X0067885Y0065945D02*
X0058115Y0065945D01*
X0056516Y0064346D02*
X0069484Y0064346D01*
X0071082Y0062748D02*
X0054918Y0062748D01*
X0053319Y0061149D02*
X0072681Y0061149D01*
X0074279Y0059551D02*
X0051721Y0059551D01*
X0050122Y0057952D02*
X0075878Y0057952D01*
X0077476Y0056354D02*
X0048524Y0056354D01*
X0046925Y0054755D02*
X0079075Y0054755D01*
X0080673Y0053157D02*
X0045327Y0053157D01*
X0043728Y0051558D02*
X0082272Y0051558D01*
X0083870Y0049960D02*
X0077411Y0049960D01*
X0077477Y0048361D02*
X0085469Y0048361D01*
X0087067Y0046763D02*
X0077477Y0046763D01*
X0077477Y0045164D02*
X0088666Y0045164D01*
X0090264Y0043566D02*
X0077477Y0043566D01*
X0068800Y0040369D02*
X0067200Y0040369D01*
X0067200Y0038770D02*
X0068800Y0038770D01*
X0068800Y0037172D02*
X0067200Y0037172D01*
X0067200Y0035573D02*
X0068800Y0035573D01*
X0068800Y0033975D02*
X0067200Y0033975D01*
X0067200Y0032376D02*
X0068800Y0032376D01*
X0058523Y0043566D02*
X0043616Y0043566D01*
X0043616Y0045164D02*
X0058523Y0045164D01*
X0058523Y0046763D02*
X0043616Y0046763D01*
X0043616Y0048361D02*
X0058523Y0048361D01*
X0058589Y0049960D02*
X0042130Y0049960D01*
X0091409Y0048361D02*
X0092384Y0048361D01*
X0194323Y0171447D02*
X0281901Y0171447D01*
X0281901Y0173045D02*
X0192725Y0173045D01*
X0191126Y0174644D02*
X0281901Y0174644D01*
X0281901Y0176242D02*
X0189528Y0176242D01*
X0187929Y0177841D02*
X0281901Y0177841D01*
X0281901Y0179439D02*
X0186331Y0179439D01*
X0184732Y0181038D02*
X0281901Y0181038D01*
X0281901Y0182636D02*
X0012800Y0182636D01*
X0012800Y0184235D02*
X0281901Y0184235D01*
X0281901Y0185833D02*
X0012800Y0185833D01*
X0012800Y0187432D02*
X0281901Y0187432D01*
X0281901Y0189030D02*
X0012800Y0189030D01*
X0012800Y0190629D02*
X0281901Y0190629D01*
X0281901Y0192227D02*
X0012800Y0192227D01*
X0012800Y0193826D02*
X0281901Y0193826D01*
X0281901Y0195424D02*
X0012800Y0195424D01*
M02*
